<svg height="682pt" viewBox="-117 -21 682 682.6646" width="682pt" xmlns="http://www.w3.org/2000/svg"><path d="m431.25 639.996094h-426.664062c-5.890626 0-10.671876-4.773438-10.671876-10.660156v-618.667969c0-5.886719 4.78125-10.667969 10.671876-10.667969h330.660156c2.828125 0 5.546875 1.125 7.546875 3.125l96 96c2 2.007812 3.125 4.71875 3.125 7.542969v522.667969c0 5.886718-4.78125 10.660156-10.667969 10.660156zm-416-21.332032h405.335938v-507.582031l-89.753907-89.75h-315.582031zm0 0"/><path d="m431.25 117.332031h-96.003906c-5.886719 0-10.664063-4.773437-10.664063-10.664062v-96c0-4.308594 2.605469-8.203125 6.582031-9.855469 3.992188-1.652344 8.574219-.734375 11.628907 2.3125l96 96c3.046875 3.050781 3.964843 7.636719 2.3125 11.625-1.652344 3.992188-5.535157 6.582031-9.855469 6.582031zm-85.332031-21.332031h59.582031l-59.582031-59.585938zm0 0"/><path d="m431.25 639.996094h-426.664062c-5.890626 0-10.671876-4.773438-10.671876-10.660156v-192.003907c0-5.886719 4.78125-10.664062 10.671876-10.664062h426.664062c5.886719 0 10.667969 4.777343 10.667969 10.664062v192.003907c0 5.886718-4.78125 10.660156-10.667969 10.660156zm-416-21.332032h405.335938v-170.664062h-405.335938zm0 0"/><path d="m367.25 597.332031h-42.574219c-17.695312 0-32.09375-14.390625-32.09375-32.09375v-63.808593c0-17.695313 14.398438-32.09375 32.09375-32.09375h42.574219c5.886719 0 10.664062 4.777343 10.664062 10.664062s-4.777343 10.667969-10.664062 10.667969h-42.574219c-5.9375 0-10.761719 4.832031-10.761719 10.761719v63.808593c0 5.941407 4.824219 10.761719 10.761719 10.761719h42.574219c5.886719 0 10.664062 4.78125 10.664062 10.667969 0 5.890625-4.777343 10.664062-10.664062 10.664062zm0 0"/><path d="m79.246094 597.332031h-10.664063c-5.886719 0-10.667969-4.773437-10.667969-10.664062v-106.667969c0-5.886719 4.78125-10.664062 10.667969-10.664062h10.664063c35.289062 0 64.003906 28.699218 64.003906 63.996093 0 35.300781-28.714844 64-64.003906 64zm0-21.332031h.109375zm0-85.332031v85.332031c23.535156 0 42.671875-19.136719 42.671875-42.667969 0-23.527343-19.136719-42.664062-42.671875-42.664062zm0 0"/><path d="m228.582031 597.332031h-21.332031c-17.640625 0-32.003906-14.355469-32.003906-31.996093v-64.003907c0-17.640625 14.347656-31.996093 32.003906-31.996093h21.332031c17.640625 0 32.003907 14.355468 32.003907 31.996093v64.011719c0 17.644531-14.351563 31.988281-32.003907 31.988281zm-21.332031-106.664062c-5.878906 0-10.667969 4.78125-10.667969 10.664062v64.011719c0 5.878906 4.777344 10.664062 10.667969 10.664062h21.332031c5.878907 0 10.664063-4.773437 10.664063-10.664062v-64.011719c0-5.875-4.773438-10.664062-10.664063-10.664062zm0 0"/><path d="m153.914062 384.003906h-85.332031c-5.886719 0-10.667969-4.78125-10.667969-10.671875 0-5.886719 4.78125-10.664062 10.667969-10.664062h85.332031c5.890626 0 10.671876 4.777343 10.671876 10.664062 0 5.890625-4.78125 10.671875-10.671876 10.671875zm0 0"/><path d="m303.25 384.003906h-106.667969c-5.890625 0-10.664062-4.78125-10.664062-10.671875 0-5.886719 4.773437-10.664062 10.664062-10.664062h106.667969c5.890625 0 10.664062 4.777343 10.664062 10.664062 0 5.890625-4.773437 10.671875-10.664062 10.671875zm0 0"/><path d="m367.25 384.003906h-21.332031c-5.890625 0-10.671875-4.78125-10.671875-10.671875 0-5.886719 4.78125-10.664062 10.671875-10.664062h21.332031c5.886719 0 10.664062 4.777343 10.664062 10.664062 0 5.890625-4.777343 10.671875-10.664062 10.671875zm0 0"/><path d="m132.90625 341.332031h-64.003906c-5.886719 0-10.664063-4.777343-10.664063-10.664062v-64c0-5.886719 4.777344-10.667969 10.664063-10.667969h64.003906c5.886719 0 10.664062 4.78125 10.664062 10.667969v64c0 5.886719-4.777343 10.664062-10.664062 10.664062zm-53.335938-21.332031h42.664063v-42.667969h-42.664063zm0 0"/><path d="m367.566406 234.667969h-298.664062c-5.886719 0-10.664063-4.78125-10.664063-10.664063v-64.003906c0-5.882812 4.777344-10.664062 10.664063-10.664062h298.664062c5.890625 0 10.667969 4.78125 10.667969 10.664062v64.003906c0 5.882813-4.777344 10.664063-10.667969 10.664063zm-287.996094-21.332031h277.332032v-42.667969h-277.332032zm0 0"/><path d="m367.566406 341.332031h-64c-5.886718 0-10.664062-4.777343-10.664062-10.664062v-64c0-5.886719 4.777344-10.667969 10.664062-10.667969h64c5.890625 0 10.667969 4.78125 10.667969 10.667969v64c0 5.886719-4.777344 10.664062-10.667969 10.664062zm-53.328125-21.332031h42.664063v-42.667969h-42.664063zm0 0"/><path d="m250.238281 341.332031h-64.003906c-5.890625 0-10.664063-4.777343-10.664063-10.664062v-64c0-5.886719 4.773438-10.667969 10.664063-10.667969h64.003906c5.882813 0 10.664063 4.78125 10.664063 10.667969v64c0 5.886719-4.78125 10.664062-10.664063 10.664062zm-53.335937-21.332031h42.667968v-42.667969h-42.667968zm0 0"/></svg>