<svg height="682pt" viewBox="-117 -21 682 682.6646" width="682pt" xmlns="http://www.w3.org/2000/svg"><path d="m431.25 639.996094h-426.664062c-5.890626 0-10.671876-4.773438-10.671876-10.660156v-618.667969c0-5.886719 4.78125-10.667969 10.671876-10.667969h330.660156c2.828125 0 5.546875 1.125 7.546875 3.125l96 96c2 2.007812 3.125 4.71875 3.125 7.542969v522.667969c0 5.886718-4.78125 10.660156-10.667969 10.660156zm-416-21.332032h405.335938v-507.582031l-89.753907-89.75h-315.582031zm0 0"/><path d="m431.25 117.332031h-96.003906c-5.886719 0-10.664063-4.773437-10.664063-10.664062v-96c0-4.308594 2.605469-8.203125 6.582031-9.855469 3.976563-1.652344 8.574219-.734375 11.628907 2.3125l96 96c3.046875 3.050781 3.964843 7.636719 2.3125 11.625-1.652344 3.980469-5.535157 6.582031-9.855469 6.582031zm-85.332031-21.332031h59.582031l-59.582031-59.585938zm0 0"/><path d="m431.25 639.996094h-426.664062c-5.890626 0-10.671876-4.773438-10.671876-10.660156v-192.003907c0-5.886719 4.78125-10.664062 10.671876-10.664062h426.664062c5.886719 0 10.667969 4.777343 10.667969 10.664062v192.003907c0 5.886718-4.78125 10.660156-10.667969 10.660156zm-416-21.332032h405.335938v-170.664062h-405.335938zm0 0"/><path d="m340.585938 597.332031h-37.335938c-5.886719 0-10.667969-4.773437-10.667969-10.664062 0-5.886719 4.78125-10.667969 10.667969-10.667969h37.335938c8.816406 0 15.996093-7.179688 15.996093-16s-7.179687-15.996094-15.996093-15.996094h-10.671876c-20.585937 0-37.332031-16.75-37.332031-37.335937 0-20.585938 16.746094-37.332031 37.332031-37.332031h37.335938c5.886719 0 10.664062 4.777343 10.664062 10.664062s-4.777343 10.667969-10.664062 10.667969h-37.335938c-8.820312 0-16 7.175781-16 16 0 8.820312 7.179688 16 16 16h10.671876c20.585937 0 37.328124 16.746093 37.328124 37.332031 0 20.589844-16.742187 37.332031-37.328124 37.332031zm0 0"/><path d="m239.246094 234.667969h-42.664063c-5.890625 0-10.664062-4.78125-10.664062-10.664063v-42.671875c0-5.882812 4.773437-10.664062 10.664062-10.664062h42.664063c5.890625 0 10.667968 4.78125 10.667968 10.664062v42.671875c0 5.882813-4.777343 10.664063-10.667968 10.664063zm-31.996094-21.332031h21.332031v-21.335938h-21.332031zm0 0"/><path d="m356.582031 352h-42.667969c-5.886718 0-10.664062-4.78125-10.664062-10.667969v-42.664062c0-5.890625 4.777344-10.664063 10.664062-10.664063h42.667969c5.886719 0 10.667969 4.773438 10.667969 10.664063v42.664062c0 5.886719-4.78125 10.667969-10.667969 10.667969zm-32-21.332031h21.335938v-21.332031h-21.335938zm0 0"/><path d="m356.847656 213.335938h-114.367187c-5.738281 0-10.402344-4.78125-10.402344-10.664063 0-5.890625 4.664063-10.671875 10.402344-10.671875h114.367187c5.738282 0 10.402344 4.78125 10.402344 10.671875 0 5.882813-4.664062 10.664063-10.402344 10.664063zm0 0"/><path d="m190.300781 213.335938h-111.574219c-5.597656 0-10.144531-4.78125-10.144531-10.664063 0-5.890625 4.546875-10.671875 10.144531-10.671875h111.574219c5.601563 0 10.140625 4.78125 10.140625 10.671875 0 5.882813-4.539062 10.664063-10.140625 10.664063zm0 0"/><path d="m335.246094 309.335938c-5.886719 0-10.664063-4.78125-10.664063-10.667969 0-47.050781-38.285156-85.332031-85.335937-85.332031-5.882813 0-10.664063-4.78125-10.664063-10.664063 0-5.890625 4.78125-10.671875 10.664063-10.671875 58.820312 0 106.671875 47.851562 106.671875 106.667969 0 5.886719-4.78125 10.667969-10.671875 10.667969zm0 0"/><path d="m121.917969 352h-42.671875c-5.882813 0-10.664063-4.78125-10.664063-10.667969v-42.664062c0-5.890625 4.78125-10.664063 10.664063-10.664063h42.671875c5.882812 0 10.664062 4.773438 10.664062 10.664063v42.664062c0 5.886719-4.78125 10.667969-10.664062 10.667969zm-32-21.332031h21.332031v-21.332031h-21.332031zm0 0"/><path d="m100.585938 309.335938c-5.890626 0-10.667969-4.78125-10.667969-10.667969 0-58.816407 47.851562-106.667969 106.664062-106.667969 5.886719 0 10.667969 4.78125 10.667969 10.671875 0 5.882813-4.78125 10.664063-10.667969 10.664063-47.050781 0-85.332031 38.28125-85.332031 85.332031 0 5.886719-4.78125 10.667969-10.664062 10.667969zm0 0"/><path d="m132.582031 544.003906h-64c-5.886719 0-10.667969-4.78125-10.667969-10.671875v-53.332031c0-5.886719 4.78125-10.664062 10.667969-10.664062h64c5.890625 0 10.667969 4.777343 10.667969 10.664062s-4.777344 10.667969-10.667969 10.667969h-53.335937v32h53.335937c5.890625 0 10.667969 4.777343 10.667969 10.664062 0 5.890625-4.777344 10.671875-10.667969 10.671875zm0 0"/><path d="m132.582031 597.332031h-64c-5.886719 0-10.667969-4.773437-10.667969-10.664062v-53.335938c0-5.886719 4.78125-10.664062 10.667969-10.664062h64c5.890625 0 10.667969 4.777343 10.667969 10.664062 0 5.890625-4.777344 10.671875-10.667969 10.671875h-53.335937v31.996094h53.335937c5.890625 0 10.667969 4.78125 10.667969 10.667969 0 5.890625-4.777344 10.664062-10.667969 10.664062zm0 0"/><path d="m185.917969 597.332031c-5.890625 0-10.671875-4.773437-10.671875-10.664062v-106.667969c0-5.886719 4.78125-10.664062 10.671875-10.664062 5.886719 0 10.664062 4.777343 10.664062 10.664062v106.667969c0 5.890625-4.777343 10.664062-10.664062 10.664062zm0 0"/><path d="m217.914062 554.667969h-31.996093c-5.890625 0-10.671875-4.78125-10.671875-10.664063v-64.003906c0-5.886719 4.78125-10.664062 10.671875-10.664062h31.996093c23.53125 0 42.671876 19.132812 42.671876 42.664062s-19.140626 42.667969-42.671876 42.667969zm-21.332031-21.335938h21.332031c11.765626 0 21.332032-9.5625 21.332032-21.332031 0-11.765625-9.566406-21.332031-21.332032-21.332031h-21.332031zm0 0"/></svg>