<svg height="682pt" viewBox="-117 -21 682 682.66784" width="682pt" xmlns="http://www.w3.org/2000/svg"><path d="m431.25 640h-426.664062c-5.886719 0-10.667969-4.777344-10.667969-10.667969v-618.664062c0-5.882813 4.78125-10.66406275 10.667969-10.66406275h330.667968c2.820313 0 5.539063 1.12109375 7.539063 3.12499975l96 96c2 2.003906 3.125 4.714844 3.125 7.539063v522.664062c0 5.890625-4.78125 10.667969-10.667969 10.667969zm-415.996094-21.332031h405.332032v-507.578125l-89.753907-89.75h-315.578125zm0 0"/><path d="m431.25 117.339844h-95.996094c-5.890625 0-10.671875-4.78125-10.671875-10.671875v-96c0-4.304688 2.605469-8.195313 6.582031-9.851563 3.980469-1.65625 8.566407-.7460935 11.628907 2.3125l96 96c3.050781 3.054688 3.964843 7.636719 2.3125 11.628906-1.652344 3.976563-5.546875 6.582032-9.855469 6.582032zm-85.332031-21.335938h59.582031l-59.582031-59.582031zm0 0"/><path d="m431.25 640h-426.664062c-5.886719 0-10.667969-4.777344-10.667969-10.667969v-191.996093c0-5.886719 4.78125-10.667969 10.667969-10.667969h426.664062c5.886719 0 10.667969 4.78125 10.667969 10.667969v191.996093c0 5.890625-4.78125 10.667969-10.667969 10.667969zm-415.996094-21.332031h405.332032v-170.667969h-405.332032zm0 0"/><path d="m217.917969 394.671875c-70.578125 0-128-57.421875-128-128.003906 0-70.578125 57.421875-127.996094 128-127.996094 70.582031 0 128 57.417969 128 127.996094 0 70.582031-57.417969 128.003906-128 128.003906zm0-234.667969c-58.816407 0-106.667969 47.851563-106.667969 106.664063 0 58.820312 47.851562 106.671875 106.667969 106.671875 58.816406 0 106.664062-47.851563 106.664062-106.671875 0-58.8125-47.847656-106.664063-106.664062-106.664063zm0 0"/><path d="m196.585938 320.003906c-1.726563 0-3.457032-.414062-5.039063-1.261718-3.460937-1.855469-5.628906-5.472657-5.628906-9.40625v-85.332032c0-3.9375 2.167969-7.554687 5.628906-9.410156 3.457031-1.855469 7.671875-1.660156 10.949219.539062l63.996094 42.664063c2.976562 1.980469 4.757812 5.3125 4.757812 8.871094 0 3.566406-1.78125 6.890625-4.746094 8.878906l-64 42.664063c-1.792968 1.183593-3.851562 1.792968-5.917968 1.792968zm10.664062-76.066406v45.476562l34.101562-22.746093zm0 0"/><path d="m217.917969 597.335938c-4.363281 0-8.28125-2.65625-9.910157-6.699219l-42.667968-106.664063c-2.1875-5.472656.46875-11.683594 5.945312-13.867187 5.480469-2.167969 11.679688.476562 13.867188 5.9375l32.765625 81.90625 32.753906-81.90625c2.199219-5.460938 8.386719-8.125 13.867187-5.9375 5.476563 2.195312 8.132813 8.394531 5.945313 13.867187l-42.667969 106.664063c-1.621094 4.042969-5.535156 6.699219-9.898437 6.699219zm0 0"/><path d="m335.253906 597.335938c-5.890625 0-10.671875-4.78125-10.671875-10.667969v-106.664063c0-5.890625 4.78125-10.671875 10.671875-10.671875 5.882813 0 10.664063 4.78125 10.664063 10.671875v106.664063c0 5.886719-4.78125 10.667969-10.664063 10.667969zm0 0"/><path d="m367.25 597.335938h-64c-5.886719 0-10.667969-4.78125-10.667969-10.667969 0-5.890625 4.78125-10.664063 10.667969-10.664063h64c5.886719 0 10.667969 4.773438 10.667969 10.664063 0 5.886719-4.78125 10.667969-10.667969 10.667969zm0 0"/><path d="m367.25 490.667969h-64c-5.886719 0-10.667969-4.777344-10.667969-10.664063 0-5.890625 4.78125-10.671875 10.667969-10.671875h64c5.886719 0 10.667969 4.78125 10.667969 10.671875 0 5.886719-4.78125 10.664063-10.667969 10.664063zm0 0"/><path d="m132.582031 597.335938c-5.882812 0-10.664062-4.78125-10.664062-10.667969v-93.554688c0-1.347656-1.097657-2.445312-2.441407-2.445312h-37.78125c-1.34375 0-2.441406 1.097656-2.441406 2.445312v93.554688c0 5.886719-4.78125 10.667969-10.667968 10.667969-5.890626 0-10.664063-4.78125-10.664063-10.667969v-93.554688c0-13.109375 10.664063-23.78125 23.773437-23.78125h37.78125c13.105469 0 23.777344 10.671875 23.777344 23.78125v93.554688c0 5.886719-4.78125 10.667969-10.671875 10.667969zm0 0"/><path d="m132.582031 544h-63.996093c-5.890626 0-10.664063-4.78125-10.664063-10.664062 0-5.886719 4.773437-10.667969 10.664063-10.667969h63.996093c5.890625 0 10.671875 4.78125 10.671875 10.667969 0 5.882812-4.78125 10.664062-10.671875 10.664062zm0 0"/></svg>