<svg height="682pt" viewBox="-117 -21 682 682.6646" width="682pt" xmlns="http://www.w3.org/2000/svg"><path d="m431.25 639.996094h-426.664062c-5.890626 0-10.671876-4.773438-10.671876-10.660156v-618.667969c0-5.886719 4.78125-10.667969 10.671876-10.667969h330.660156c2.828125 0 5.546875 1.125 7.546875 3.125l96 96c2 2.007812 3.125 4.71875 3.125 7.542969v522.667969c0 5.886718-4.78125 10.660156-10.667969 10.660156zm-416-21.332032h405.335938v-507.582031l-89.753907-89.75h-315.582031zm0 0"/><path d="m431.25 117.332031h-96.003906c-5.886719 0-10.664063-4.773437-10.664063-10.664062v-96c0-4.308594 2.605469-8.203125 6.582031-9.855469 3.976563-1.652344 8.574219-.734375 11.628907 2.3125l96 96c3.046875 3.050781 3.964843 7.636719 2.3125 11.625-1.652344 3.992188-5.535157 6.582031-9.855469 6.582031zm-85.332031-21.332031h59.582031l-59.582031-59.585938zm0 0"/><path d="m431.25 639.996094h-426.664062c-5.890626 0-10.671876-4.773438-10.671876-10.660156v-192.003907c0-5.886719 4.78125-10.664062 10.671876-10.664062h426.664062c5.886719 0 10.667969 4.777343 10.667969 10.664062v192.003907c0 5.886718-4.78125 10.660156-10.667969 10.660156zm-416-21.332032h405.335938v-170.664062h-405.335938zm0 0"/><path d="m217.914062 245.335938c-5.882812 0-10.664062-4.78125-10.664062-10.667969v-128c0-5.886719 4.78125-10.667969 10.664062-10.667969 5.886719 0 10.667969 4.78125 10.667969 10.667969v128c0 5.886719-4.78125 10.667969-10.667969 10.667969zm0 0"/><path d="m260.585938 309.335938h-85.339844c-4.765625 0-8.949219-3.160157-10.246094-7.734376l-21.332031-74.667968c-.953125-3.324219-.234375-6.890625 1.925781-9.589844 47.808594-59.761719 61.855469-112.789062 61.996094-113.320312 1.21875-4.703126 5.46875-8 10.339844-8 4.863281 0 9.113281 3.296874 10.332031 8 .140625.53125 14.1875 53.558593 61.996093 113.320312 2.152344 2.699219 2.878907 6.273438 1.929688 9.589844l-21.335938 74.667968c-1.320312 4.574219-5.5 7.734376-10.265624 7.734376zm-77.296876-21.332032h69.238282l17.621094-61.675781c-26.878907-34.515625-43.078126-66.285156-52.246094-88.003906-9.160156 21.71875-25.351563 53.488281-52.242188 88.003906zm0 0"/><path d="m271.25 352h-106.664062c-17.644532 0-32.003907-14.355469-32.003907-32 0-17.640625 14.359375-31.996094 32.003907-31.996094h106.664062c17.640625 0 32 14.355469 32 31.996094 0 17.644531-14.359375 32-32 32zm-106.664062-42.664062c-5.890626 0-10.671876 4.789062-10.671876 10.664062 0 5.878906 4.78125 10.667969 10.671876 10.667969h106.664062c5.886719 0 10.667969-4.789063 10.667969-10.667969 0-5.875-4.78125-10.664062-10.667969-10.664062zm0 0"/><path d="m271.25 394.667969h-106.664062c-5.890626 0-10.671876-4.78125-10.671876-10.664063v-42.671875c0-5.882812 4.78125-10.664062 10.671876-10.664062h106.664062c5.886719 0 10.667969 4.78125 10.667969 10.664062v42.671875c0 5.882813-4.78125 10.664063-10.667969 10.664063zm-96.003906-21.335938h85.339844v-21.332031h-85.339844zm0 0"/><path d="m185.917969 597.332031c-5.890625 0-10.671875-4.773437-10.671875-10.664062v-93.558594c0-1.34375-1.097656-2.441406-2.441406-2.441406h-37.78125c-1.34375 0-2.441407 1.097656-2.441407 2.441406v93.558594c0 5.890625-4.78125 10.664062-10.664062 10.664062-5.886719 0-10.667969-4.773437-10.667969-10.664062v-93.558594c0-13.109375 10.667969-23.773437 23.773438-23.773437h37.78125c13.113281 0 23.777343 10.664062 23.777343 23.773437v93.558594c0 5.890625-4.777343 10.664062-10.664062 10.664062zm0 0"/><path d="m185.917969 544.003906h-64c-5.886719 0-10.667969-4.78125-10.667969-10.671875 0-5.886719 4.78125-10.664062 10.667969-10.664062h64c5.886719 0 10.664062 4.777343 10.664062 10.664062 0 5.890625-4.777343 10.671875-10.664062 10.671875zm0 0"/><path d="m281.917969 597.332031c-5.890625 0-10.667969-4.773437-10.667969-10.664062v-106.667969c0-5.886719 4.777344-10.664062 10.667969-10.664062 5.882812 0 10.664062 4.777343 10.664062 10.664062v106.667969c0 5.890625-4.78125 10.664062-10.664062 10.664062zm0 0"/><path d="m313.914062 597.332031h-64c-5.886718 0-10.667968-4.773437-10.667968-10.664062 0-5.886719 4.78125-10.667969 10.667968-10.667969h64c5.890626 0 10.667969 4.78125 10.667969 10.667969 0 5.890625-4.777343 10.664062-10.667969 10.664062zm0 0"/><path d="m313.914062 490.667969h-64c-5.886718 0-10.667968-4.78125-10.667968-10.667969s4.78125-10.664062 10.667968-10.664062h64c5.890626 0 10.667969 4.777343 10.667969 10.664062s-4.777343 10.667969-10.667969 10.667969zm0 0"/></svg>