<svg height="682pt" viewBox="-117 -21 682 682.6646" width="682pt" xmlns="http://www.w3.org/2000/svg"><path d="m431.25 639.996094h-426.664062c-5.890626 0-10.671876-4.773438-10.671876-10.660156v-618.667969c0-5.886719 4.78125-10.667969 10.671876-10.667969h330.660156c2.828125 0 5.546875 1.125 7.546875 3.125l96 96c2 2.007812 3.125 4.71875 3.125 7.542969v522.667969c0 5.886718-4.78125 10.660156-10.667969 10.660156zm-416-21.332032h405.335938v-507.582031l-89.753907-89.75h-315.582031zm0 0"/><path d="m431.25 117.332031h-96.003906c-5.886719 0-10.664063-4.773437-10.664063-10.664062v-96c0-4.308594 2.605469-8.203125 6.582031-9.855469 3.976563-1.652344 8.574219-.734375 11.628907 2.3125l96 96c3.046875 3.050781 3.964843 7.636719 2.3125 11.625-1.652344 3.992188-5.535157 6.582031-9.855469 6.582031zm-85.332031-21.332031h59.582031l-59.582031-59.585938zm0 0"/><path d="m431.25 639.996094h-426.664062c-5.890626 0-10.671876-4.773438-10.671876-10.660156v-192.003907c0-5.886719 4.78125-10.664062 10.671876-10.664062h426.664062c5.886719 0 10.667969 4.777343 10.667969 10.664062v192.003907c0 5.886718-4.78125 10.660156-10.667969 10.660156zm-416-21.332032h405.335938v-170.664062h-405.335938zm0 0"/><path d="m367.25 597.332031c-5.890625 0-10.667969-4.773437-10.667969-10.664062v-93.558594c0-1.34375-1.101562-2.441406-2.441406-2.441406h-37.785156c-1.34375 0-2.441407 1.097656-2.441407 2.441406v93.558594c0 5.890625-4.773437 10.664062-10.664062 10.664062-5.886719 0-10.667969-4.773437-10.667969-10.664062v-93.558594c0-13.109375 10.667969-23.773437 23.773438-23.773437h37.785156c13.109375 0 23.773437 10.664062 23.773437 23.773437v93.558594c0 5.890625-4.777343 10.664062-10.664062 10.664062zm0 0"/><path d="m367.25 544.003906h-64c-5.886719 0-10.667969-4.78125-10.667969-10.671875 0-5.886719 4.78125-10.664062 10.667969-10.664062h64c5.886719 0 10.664062 4.777343 10.664062 10.664062 0 5.890625-4.777343 10.671875-10.664062 10.671875zm0 0"/><path d="m132.582031 490.667969h-64c-5.886719 0-10.667969-4.78125-10.667969-10.667969s4.78125-10.664062 10.667969-10.664062h64c5.890625 0 10.667969 4.777343 10.667969 10.664062s-4.777344 10.667969-10.667969 10.667969zm0 0"/><path d="m132.582031 544.003906h-64c-5.886719 0-10.667969-4.78125-10.667969-10.671875 0-5.886719 4.78125-10.664062 10.667969-10.664062h64c5.890625 0 10.667969 4.777343 10.667969 10.664062 0 5.890625-4.777344 10.671875-10.667969 10.671875zm0 0"/><path d="m68.582031 597.332031c-5.886719 0-10.667969-4.773437-10.667969-10.664062v-106.667969c0-5.886719 4.78125-10.664062 10.667969-10.664062 5.890625 0 10.664063 4.777343 10.664063 10.664062v106.667969c0 5.890625-4.773438 10.664062-10.664063 10.664062zm0 0"/><path d="m249.914062 597.332031h-63.996093c-5.890625 0-10.671875-4.773437-10.671875-10.664062 0-5.886719 4.78125-10.667969 10.671875-10.667969h63.996093c5.890626 0 10.671876 4.78125 10.671876 10.667969 0 5.890625-4.78125 10.664062-10.671876 10.664062zm0 0"/><path d="m185.917969 597.332031c-5.890625 0-10.671875-4.773437-10.671875-10.664062v-106.667969c0-5.886719 4.78125-10.664062 10.671875-10.664062 5.886719 0 10.664062 4.777343 10.664062 10.664062v106.667969c0 5.890625-4.777343 10.664062-10.664062 10.664062zm0 0"/><path d="m194.210938 384.003906c-64.464844 0-114.964844-51.535156-114.964844-117.335937 0-65.804688 50.5-117.332031 114.964844-117.332031 40.25 0 70.292968 24.257812 84.621093 38.71875 2.015625 2.039062 3.125 4.800781 3.09375 7.65625-.03125 2.863281-1.238281 5.59375-3.304687 7.566406l-66.570313 63.390625 66.554688 63.378906c4.238281 4.035156 4.441406 10.734375.441406 15.011719-23.808594 25.480468-53.140625 38.945312-84.835937 38.945312zm0-213.335937c-52.496094 0-93.625 42.164062-93.625 96 0 53.835937 41.128906 96 93.625 96 27.042968 0 47.652343-12.207031 61.691406-24.777344l-66.679688-63.5c-2.113281-2.019531-3.304687-4.800781-3.304687-7.722656s1.191406-5.707031 3.304687-7.722657l66.453125-63.296874c-13.523437-11.519532-35-24.980469-61.464843-24.980469zm0 0"/><path d="m281.917969 277.332031h-21.332031c-5.890626 0-10.671876-4.773437-10.671876-10.664062 0-5.886719 4.78125-10.667969 10.671876-10.667969h21.332031c5.882812 0 10.664062 4.78125 10.664062 10.667969 0 5.890625-4.78125 10.664062-10.664062 10.664062zm0 0"/><path d="m345.917969 277.332031h-21.335938c-5.886719 0-10.667969-4.773437-10.667969-10.664062 0-5.886719 4.78125-10.667969 10.667969-10.667969h21.335938c5.886719 0 10.664062 4.78125 10.664062 10.667969 0 5.890625-4.777343 10.664062-10.664062 10.664062zm0 0"/><path d="m175.246094 224.003906h-21.332032c-5.886718 0-10.664062-4.78125-10.664062-10.667968 0-5.890626 4.777344-10.664063 10.664062-10.664063h21.332032c5.890625 0 10.671875 4.773437 10.671875 10.664063 0 5.886718-4.78125 10.667968-10.671875 10.667968zm0 0"/></svg>