<svg height="682pt" viewBox="-117 -21 682 682.6646" width="682pt" xmlns="http://www.w3.org/2000/svg"><path d="m431.25 639.996094h-426.664062c-5.890626 0-10.671876-4.773438-10.671876-10.660156v-618.667969c0-5.886719 4.78125-10.667969 10.671876-10.667969h330.660156c2.828125 0 5.546875 1.125 7.546875 3.125l96 96c2 2.007812 3.125 4.71875 3.125 7.542969v522.667969c0 5.886718-4.78125 10.660156-10.667969 10.660156zm-416-21.332032h405.335938v-507.582031l-89.753907-89.75h-315.582031zm0 0"/><path d="m431.25 117.332031h-96.003906c-5.886719 0-10.664063-4.773437-10.664063-10.664062v-96c0-4.308594 2.605469-8.203125 6.582031-9.855469 3.992188-1.652344 8.574219-.734375 11.628907 2.3125l96 96c3.046875 3.050781 3.964843 7.636719 2.3125 11.625-1.652344 3.992188-5.535157 6.582031-9.855469 6.582031zm-85.332031-21.332031h59.582031l-59.582031-59.585938zm0 0"/><path d="m431.25 639.996094h-426.664062c-5.890626 0-10.671876-4.773438-10.671876-10.660156v-192.003907c0-5.886719 4.78125-10.664062 10.671876-10.664062h426.664062c5.886719 0 10.667969 4.777343 10.667969 10.664062v192.003907c0 5.886718-4.78125 10.660156-10.667969 10.660156zm-416-21.332032h405.335938v-170.664062h-405.335938zm0 0"/><path d="m68.582031 597.332031c-5.886719 0-10.667969-4.773437-10.667969-10.664062v-106.667969c0-5.886719 4.78125-10.664062 10.667969-10.664062 5.890625 0 10.664063 4.777343 10.664063 10.664062v106.667969c0 5.890625-4.773438 10.664062-10.664063 10.664062zm0 0"/><path d="m100.585938 554.667969h-32.003907c-5.886719 0-10.667969-4.78125-10.667969-10.664063v-64.003906c0-5.886719 4.78125-10.664062 10.667969-10.664062h32.003907c23.53125 0 42.664062 19.132812 42.664062 42.664062s-19.132812 42.667969-42.664062 42.667969zm-21.339844-21.335938h21.339844c11.761718 0 21.332031-9.5625 21.332031-21.332031 0-11.765625-9.570313-21.332031-21.332031-21.332031h-21.339844zm0 0"/><path d="m313.914062 597.332031h-10.664062c-5.886719 0-10.667969-4.773437-10.667969-10.664062v-106.667969c0-5.886719 4.78125-10.664062 10.667969-10.664062h10.664062c35.289063 0 64 28.699218 64 63.996093 0 35.300781-28.710937 64-64 64zm0-21.332031h.109376zm0-85.332031v85.332031c23.53125 0 42.667969-19.136719 42.667969-42.667969 0-23.527343-19.136719-42.664062-42.667969-42.664062zm0 0"/><path d="m223.25 597.332031h-37.332031c-5.890625 0-10.671875-4.773437-10.671875-10.664062 0-5.886719 4.78125-10.667969 10.671875-10.667969h37.332031c8.820312 0 15.996094-7.179688 15.996094-16s-7.175782-15.996094-15.996094-15.996094h-10.667969c-20.585937 0-37.335937-16.75-37.335937-37.335937 0-20.585938 16.75-37.332031 37.335937-37.332031h37.332031c5.890626 0 10.671876 4.777343 10.671876 10.664062s-4.78125 10.667969-10.671876 10.667969h-37.332031c-8.820312 0-16 7.175781-16 16 0 8.820312 7.179688 16 16 16h10.667969c20.585938 0 37.335938 16.746093 37.335938 37.332031 0 20.589844-16.75 37.332031-37.335938 37.332031zm0 0"/><path d="m89.988281 405.335938c-.15625 0-.261719 0-.316406 0-5.71875-.132813-10.316406-4.746094-10.425781-10.464844-.027344-1.429688-.242188-35.457032 35.992187-76.511719 14.667969-16.621094 29.257813-27.5 43.351563-32.320313 3.859375-1.3125 8.113281-.320312 10.992187 2.550782l26.296875 26.292968c2.871094 2.867188 3.859375 7.113282 2.558594 10.953126-4.882812 14.441406-15.679688 29.117187-32.09375 43.617187-39.453125 34.835937-72.546875 35.882813-76.355469 35.882813zm69.589844-96.585938c-8.886719 4.5-18.398437 12.457031-28.339844 23.71875-17.820312 20.191406-25.292969 38.019531-28.40625 49.335938 11.316407-3.09375 29.199219-10.507813 49.398438-28.34375 10.976562-9.691407 19-19.445313 23.53125-28.542969zm0 0"/><path d="m259.738281 271.039062c-2.726562 0-5.460937-1.042968-7.542969-3.125l-35.527343-35.527343c-4.105469-4.105469-4.167969-10.75-.140625-14.9375 11.382812-11.816407 22.601562-23.152344 33.367187-33.671875 4.171875-4.085938 10.871094-4.050782 14.996094.085937l35.839844 35.839844c4.132812 4.128906 4.171875 10.828125.089843 15-10.488281 10.714844-21.730468 21.855469-33.679687 33.351563-2.070313 1.992187-4.734375 2.984374-7.402344 2.984374zm-20.566406-46.304687 20.683594 20.683594c6.316406-6.152344 12.417969-12.199219 18.292969-18.117188l-20.859376-20.867187c-5.933593 5.898437-11.992187 12.007812-18.117187 18.300781zm0 0"/><path d="m189.96875 334.710938c-2.738281 0-5.472656-1.046876-7.542969-3.125l-29.429687-29.417969c-3.953125-3.960938-4.179688-10.292969-.519532-14.527344 48.777344-56.289063 97.621094-106.230469 145.171876-148.425781 13.3125-11.8125 33.652343-11.183594 46.296874 1.46875 12.679688 12.695312 13.265626 33.101562 1.320313 46.429687-19.734375 22.050781-73.695313 80.3125-148.332031 144.996094-1.992188 1.738281-4.488282 2.601563-6.964844 2.601563zm-14.847656-40.585938 15.335937 15.335938c69.824219-61.234376 120.117188-115.558594 138.925781-136.574219 4.394532-4.910157 4.171876-12.4375-.511718-17.121094-4.671875-4.671875-12.160156-4.925781-17.046875-.59375-44.753907 39.710937-90.707031 86.417969-136.703125 138.953125zm0 0"/></svg>