<svg height="682pt" viewBox="-117 -21 682 682.6646" width="682pt" xmlns="http://www.w3.org/2000/svg"><path d="m431.25 639.996094h-426.664062c-5.890626 0-10.671876-4.773438-10.671876-10.660156v-618.667969c0-5.886719 4.78125-10.667969 10.671876-10.667969h330.660156c2.828125 0 5.546875 1.125 7.546875 3.125l96 96c2 2.007812 3.125 4.71875 3.125 7.542969v522.667969c0 5.886718-4.78125 10.660156-10.667969 10.660156zm-416-21.332032h405.335938v-507.582031l-89.753907-89.75h-315.582031zm0 0"/><path d="m431.25 117.332031h-96.003906c-5.886719 0-10.664063-4.773437-10.664063-10.664062v-96c0-4.308594 2.605469-8.203125 6.582031-9.855469 3.976563-1.652344 8.574219-.734375 11.628907 2.3125l96 96c3.046875 3.050781 3.964843 7.636719 2.3125 11.625-1.652344 3.992188-5.535157 6.582031-9.855469 6.582031zm-85.332031-21.332031h59.582031l-59.582031-59.585938zm0 0"/><path d="m431.25 639.996094h-426.664062c-5.890626 0-10.671876-4.773438-10.671876-10.660156v-192.003907c0-5.886719 4.78125-10.664062 10.671876-10.664062h426.664062c5.886719 0 10.667969 4.777343 10.667969 10.664062v192.003907c0 5.886718-4.78125 10.660156-10.667969 10.660156zm-416-21.332032h405.335938v-170.664062h-405.335938zm0 0"/><path d="m271.25 352.011719c-1.398438 0-2.828125-.28125-4.191406-.875-5.417969-2.316407-7.929688-8.585938-5.601563-14.003907l64-149.335937c2.324219-5.394531 8.597657-7.925781 14.003907-5.601563 5.421874 2.316407 7.925781 8.589844 5.601562 14.011719l-64 149.328125c-1.738281 4.042969-5.6875 6.476563-9.8125 6.476563zm0 0"/><path d="m367.25 544.003906h-64c-5.886719 0-10.667969-4.78125-10.667969-10.671875v-53.332031c0-5.886719 4.78125-10.664062 10.667969-10.664062h64c5.886719 0 10.664062 4.777343 10.664062 10.664062s-4.777343 10.667969-10.664062 10.667969h-53.335938v32h53.335938c5.886719 0 10.664062 4.777343 10.664062 10.664062 0 5.890625-4.777343 10.671875-10.664062 10.671875zm0 0"/><path d="m367.25 597.332031h-64c-5.886719 0-10.667969-4.773437-10.667969-10.664062v-53.335938c0-5.886719 4.78125-10.664062 10.667969-10.664062h64c5.886719 0 10.664062 4.777343 10.664062 10.664062 0 5.890625-4.777343 10.671875-10.664062 10.671875h-53.335938v31.996094h53.335938c5.886719 0 10.664062 4.78125 10.664062 10.667969 0 5.890625-4.777343 10.664062-10.664062 10.664062zm0 0"/><path d="m185.90625 597.332031c-1.871094 0-3.769531-.488281-5.472656-1.523437-5.058594-3.03125-6.691406-9.578125-3.65625-14.632813l63.996094-106.671875c3.027343-5.050781 9.582031-6.683594 14.636718-3.65625 5.058594 3.027344 6.6875 9.582032 3.65625 14.632813l-64 106.671875c-2.007812 3.335937-5.535156 5.179687-9.160156 5.179687zm0 0"/><path d="m249.925781 597.332031c-3.628906 0-7.160156-1.84375-9.152343-5.171875l-63.996094-106.667968c-3.035156-5.054688-1.402344-11.601563 3.65625-14.632813 5.042968-3.039063 11.605468-1.398437 14.632812 3.660156l64 106.664063c3.03125 5.054687 1.402344 11.609375-3.65625 14.636718-1.71875 1.023438-3.621094 1.511719-5.484375 1.511719zm0 0"/><path d="m132.582031 544.003906h-64c-5.886719 0-10.667969-4.78125-10.667969-10.671875v-53.332031c0-5.886719 4.78125-10.664062 10.667969-10.664062h64c5.890625 0 10.667969 4.777343 10.667969 10.664062s-4.777344 10.667969-10.667969 10.667969h-53.335937v32h53.335937c5.890625 0 10.667969 4.777343 10.667969 10.664062 0 5.890625-4.777344 10.671875-10.667969 10.671875zm0 0"/><path d="m132.582031 597.332031h-64c-5.886719 0-10.667969-4.773437-10.667969-10.664062v-53.335938c0-5.886719 4.78125-10.664062 10.667969-10.664062h64c5.890625 0 10.667969 4.777343 10.667969 10.664062 0 5.890625-4.777344 10.671875-10.667969 10.671875h-53.335937v31.996094h53.335937c5.890625 0 10.667969 4.78125 10.667969 10.667969 0 5.890625-4.777344 10.664062-10.667969 10.664062zm0 0"/><path d="m164.585938 341.429688h-42.574219c-17.695313 0-32.09375-14.398438-32.09375-32.09375v-85.238282c0-17.695312 14.398437-32.097656 32.09375-32.097656h42.574219c5.886718 0 10.660156 4.78125 10.660156 10.671875 0 5.882813-4.773438 10.664063-10.660156 10.664063h-42.574219c-5.941407 0-10.761719 4.832031-10.761719 10.761718v85.238282c0 5.925781 4.820312 10.761718 10.761719 10.761718h42.574219c5.886718 0 10.660156 4.78125 10.660156 10.667969 0 5.882813-4.773438 10.664063-10.660156 10.664063zm0 0"/><path d="m217.914062 245.335938c-5.882812 0-10.664062-4.78125-10.664062-10.667969v-10.664063c0-5.890625 4.78125-10.667968 10.664062-10.667968 5.886719 0 10.667969 4.777343 10.667969 10.667968v10.664063c0 5.886719-4.78125 10.667969-10.667969 10.667969zm0 0"/><path d="m217.914062 320c-5.882812 0-10.664062-4.777344-10.664062-10.664062v-10.667969c0-5.890625 4.78125-10.664063 10.664062-10.664063 5.886719 0 10.667969 4.773438 10.667969 10.664063v10.667969c0 5.886718-4.78125 10.664062-10.667969 10.664062zm0 0"/></svg>