<svg height="682pt" viewBox="-117 -21 682 682.6646" width="682pt" xmlns="http://www.w3.org/2000/svg"><path d="m431.25 639.996094h-426.664062c-5.890626 0-10.671876-4.773438-10.671876-10.660156v-618.667969c0-5.886719 4.78125-10.667969 10.671876-10.667969h330.660156c2.828125 0 5.546875 1.125 7.546875 3.125l96 96c2 2.007812 3.125 4.71875 3.125 7.542969v522.667969c0 5.886718-4.78125 10.660156-10.667969 10.660156zm-416-21.332032h405.335938v-507.582031l-89.753907-89.75h-315.582031zm0 0"/><path d="m431.25 117.332031h-96.003906c-5.886719 0-10.664063-4.773437-10.664063-10.664062v-96c0-4.308594 2.605469-8.203125 6.582031-9.855469 3.976563-1.652344 8.574219-.734375 11.628907 2.3125l96 96c3.046875 3.050781 3.964843 7.636719 2.3125 11.625-1.652344 3.992188-5.535157 6.582031-9.855469 6.582031zm-85.332031-21.332031h59.582031l-59.582031-59.585938zm0 0"/><path d="m431.25 639.996094h-426.664062c-5.890626 0-10.671876-4.773438-10.671876-10.660156v-192.003907c0-5.886719 4.78125-10.664062 10.671876-10.664062h426.664062c5.886719 0 10.667969 4.777343 10.667969 10.664062v192.003907c0 5.886718-4.78125 10.660156-10.667969 10.660156zm-416-21.332032h405.335938v-170.664062h-405.335938zm0 0"/><path d="m335.246094 384.003906h-234.660156c-5.890626 0-10.667969-4.78125-10.667969-10.671875v-192c0-5.882812 4.777343-10.664062 10.667969-10.664062h234.660156c5.890625 0 10.671875 4.78125 10.671875 10.664062v192c0 5.890625-4.78125 10.671875-10.671875 10.671875zm-223.996094-21.335937h213.332031v-170.667969h-213.332031zm0 0"/><path d="m345.917969 597.332031h-21.335938c-17.640625 0-32-14.355469-32-31.996093v-64.003907c0-17.640625 14.34375-31.996093 32-31.996093h21.335938c17.640625 0 31.996093 14.355468 31.996093 31.996093v64.011719c0 17.644531-14.347656 31.988281-31.996093 31.988281zm-21.335938-106.664062c-5.878906 0-10.667969 4.78125-10.667969 10.664062v64.011719c0 5.878906 4.78125 10.664062 10.667969 10.664062h21.335938c5.871093 0 10.664062-4.773437 10.664062-10.664062v-64.011719c0-5.875-4.777343-10.664062-10.664062-10.664062zm0 0"/><path d="m249.914062 597.332031h-42.566406c-17.699218 0-32.101562-14.390625-32.101562-32.09375v-63.808593c0-17.695313 14.402344-32.09375 32.101562-32.09375h42.566406c5.890626 0 10.671876 4.777343 10.671876 10.664062s-4.78125 10.667969-10.671876 10.667969h-42.566406c-5.941406 0-10.765625 4.832031-10.765625 10.761719v63.808593c0 5.941407 4.824219 10.761719 10.765625 10.761719h42.566406c5.890626 0 10.671876 4.78125 10.671876 10.667969 0 5.890625-4.78125 10.664062-10.671876 10.664062zm0 0"/><path d="m132.582031 490.667969h-64c-5.886719 0-10.667969-4.78125-10.667969-10.667969s4.78125-10.664062 10.667969-10.664062h64c5.890625 0 10.667969 4.777343 10.667969 10.664062s-4.777344 10.667969-10.667969 10.667969zm0 0"/><path d="m132.582031 597.332031h-64c-5.886719 0-10.667969-4.773437-10.667969-10.664062 0-5.886719 4.78125-10.667969 10.667969-10.667969h64c5.890625 0 10.667969 4.78125 10.667969 10.667969 0 5.890625-4.777344 10.664062-10.667969 10.664062zm0 0"/><path d="m100.585938 597.332031c-5.890626 0-10.667969-4.773437-10.667969-10.664062v-106.667969c0-5.886719 4.777343-10.664062 10.667969-10.664062 5.882812 0 10.664062 4.777343 10.664062 10.664062v106.667969c0 5.890625-4.78125 10.664062-10.664062 10.664062zm0 0"/><path d="m249.914062 234.667969h-63.996093c-5.890625 0-10.671875-4.78125-10.671875-10.664063 0-5.890625 4.78125-10.667968 10.671875-10.667968h63.996093c5.890626 0 10.671876 4.777343 10.671876 10.667968 0 5.882813-4.78125 10.664063-10.671876 10.664063zm0 0"/><path d="m249.914062 341.332031h-63.996093c-5.890625 0-10.671875-4.777343-10.671875-10.664062s4.78125-10.667969 10.671875-10.667969h63.996093c5.890626 0 10.671876 4.78125 10.671876 10.667969s-4.78125 10.664062-10.671876 10.664062zm0 0"/><path d="m217.914062 341.332031c-5.882812 0-10.664062-4.777343-10.664062-10.664062v-106.664063c0-5.890625 4.78125-10.667968 10.664062-10.667968 5.886719 0 10.667969 4.777343 10.667969 10.667968v106.664063c0 5.886719-4.78125 10.664062-10.667969 10.664062zm0 0"/></svg>