<svg height="682pt" viewBox="-117 -21 682 682.66784" width="682pt" xmlns="http://www.w3.org/2000/svg"><path d="m431.25 640h-426.664062c-5.886719 0-10.667969-4.777344-10.667969-10.667969v-618.664062c0-5.882813 4.78125-10.66406275 10.667969-10.66406275h330.667968c2.820313 0 5.539063 1.12109375 7.539063 3.12499975l96 96c2 2.003906 3.125 4.714844 3.125 7.539063v522.664062c0 5.890625-4.78125 10.667969-10.667969 10.667969zm-415.996094-21.332031h405.332032v-507.578125l-89.753907-89.75h-315.578125zm0 0"/><path d="m431.25 117.339844h-95.996094c-5.890625 0-10.671875-4.78125-10.671875-10.671875v-96c0-4.304688 2.605469-8.195313 6.582031-9.851563 3.992188-1.65625 8.574219-.7460935 11.628907 2.3125l96 96c3.050781 3.054688 3.964843 7.636719 2.3125 11.628906-1.652344 3.976563-5.546875 6.582032-9.855469 6.582032zm-85.332031-21.335938h59.582031l-59.582031-59.582031zm0 0"/><path d="m431.25 640h-426.664062c-5.886719 0-10.667969-4.777344-10.667969-10.667969v-191.996093c0-5.886719 4.78125-10.667969 10.667969-10.667969h426.664062c5.886719 0 10.667969 4.78125 10.667969 10.667969v191.996093c0 5.890625-4.78125 10.667969-10.667969 10.667969zm-415.996094-21.332031h405.332032v-170.667969h-405.332032zm0 0"/><path d="m143.253906 597.335938c-5.890625 0-10.671875-4.78125-10.671875-10.667969v-66.496094l-22.738281 39.785156c-3.796875 6.644531-14.722656 6.644531-18.515625 0l-22.742187-39.785156v66.496094c0 5.886719-4.777344 10.667969-10.664063 10.667969-5.890625 0-10.671875-4.78125-10.671875-10.667969v-106.664063c0-4.84375 3.253906-9.070312 7.925781-10.304687 4.664063-1.269531 9.601563.820312 12.003907 5.011719l33.40625 58.453124 33.410156-58.453124c2.394531-4.199219 7.328125-6.269532 11.996094-5.011719 4.671874 1.234375 7.925781 5.460937 7.925781 10.304687v106.664063c0 5.886719-4.777344 10.667969-10.664063 10.667969zm0 0"/><path d="m335.253906 597.335938c-4.367187 0-8.28125-2.65625-9.914062-6.699219l-42.664063-106.664063c-2.1875-5.472656.46875-11.683594 5.941407-13.867187 5.492187-2.167969 11.679687.476562 13.867187 5.9375l32.769531 81.90625 32.753906-81.90625c2.1875-5.46875 8.382813-8.117188 13.867188-5.9375 5.472656 2.195312 8.128906 8.394531 5.941406 13.867187l-42.667968 106.664063c-1.621094 4.042969-5.535157 6.699219-9.894532 6.699219zm0 0"/><path d="m185.917969 597.335938c-5.890625 0-10.664063-4.78125-10.664063-10.667969v-106.664063c0-5.890625 4.773438-10.671875 10.664063-10.671875 5.886719 0 10.667969 4.78125 10.667969 10.671875v106.664063c0 5.886719-4.78125 10.667969-10.667969 10.667969zm0 0"/><path d="m185.917969 544c-3.050781 0-6.089844-1.3125-8.203125-3.835938-3.773438-4.527343-3.15625-11.257812 1.367187-15.019531l64-53.335937c4.519531-3.773438 11.253907-3.152344 15.019531 1.367187 3.761719 4.523438 3.152344 11.25-1.367187 15.019531l-64 53.328126c-1.984375 1.667968-4.40625 2.476562-6.816406 2.476562zm0 0"/><path d="m249.917969 597.335938c-2.410157 0-4.832031-.8125-6.828125-2.476563l-64-53.335937c-4.519532-3.773438-5.140625-10.492188-1.367188-15.019532 3.78125-4.519531 10.5-5.125 15.019532-1.359375l64 53.332031c4.527343 3.777344 5.132812 10.496094 1.367187 15.015626-2.113281 2.539062-5.140625 3.84375-8.191406 3.84375zm0 0"/><path d="m356.585938 405.335938h-277.332032c-5.890625 0-10.667968-4.78125-10.667968-10.664063v-42.671875c0-5.882812 4.777343-10.664062 10.667968-10.664062h277.332032c5.882812 0 10.664062 4.78125 10.664062 10.664062v42.671875c0 5.882813-4.78125 10.664063-10.664062 10.664063zm-266.667969-21.335938h256v-21.332031h-256zm0 0"/><path d="m324.582031 362.667969h-213.332031c-3.476562 0-6.738281-1.691407-8.734375-4.542969-1.992187-2.847656-2.476563-6.496094-1.289063-9.773438l85.332032-234.660156c1.535156-4.214844 5.546875-7.023437 10.027344-7.023437h42.667968c4.476563 0 8.488282 2.808593 10.023438 7.023437l85.332031 234.660156c1.183594 3.277344.707031 6.914063-1.289063 9.773438-1.992187 2.851562-5.261718 4.542969-8.738281 4.542969zm-198.097656-21.332031h182.878906l-77.578125-213.332032h-27.734375zm0 0"/><path d="m274.15625 224.003906h-112.480469c-3.480469 0-6.742187-1.695312-8.742187-4.546875-1.992188-2.847656-2.46875-6.492187-1.289063-9.769531l15.523438-42.667969c1.53125-4.210937 5.53125-7.015625 10.023437-7.015625h81.449219c4.484375 0 8.492187 2.804688 10.03125 7.015625l15.515625 42.667969c1.1875 3.277344.703125 6.914062-1.289062 9.769531-2.003907 2.851563-5.257813 4.546875-8.742188 4.546875zm-97.253906-21.332031h82.027344l-7.753907-21.335937h-66.507812zm0 0"/><path d="m309.0625 320.003906h-182.289062c-3.476563 0-6.742188-1.695312-8.734376-4.546875-2-2.847656-2.476562-6.492187-1.296874-9.769531l15.523437-42.667969c1.523437-4.210937 5.539063-7.015625 10.015625-7.015625h151.273438c4.480468 0 8.492187 2.804688 10.027343 7.015625l15.519531 42.667969c1.183594 3.277344.703126 6.914062-1.289062 9.769531-2.007812 2.851563-5.261719 4.546875-8.75 4.546875zm-167.070312-21.332031h151.839843l-7.753906-21.335937h-136.320313zm0 0"/></svg>