<svg height="682pt" viewBox="-117 -21 682 682.66784" width="682pt" xmlns="http://www.w3.org/2000/svg"><path d="m431.25 640h-426.664062c-5.886719 0-10.667969-4.777344-10.667969-10.667969v-618.664062c0-5.882813 4.78125-10.66406275 10.667969-10.66406275h330.667968c2.820313 0 5.539063 1.12109375 7.539063 3.12499975l96 96c2 2.003906 3.125 4.714844 3.125 7.539063v522.664062c0 5.890625-4.78125 10.667969-10.667969 10.667969zm-415.996094-21.332031h405.332032v-507.578125l-89.753907-89.75h-315.578125zm0 0"/><path d="m431.25 117.339844h-95.996094c-5.890625 0-10.671875-4.78125-10.671875-10.671875v-96c0-4.304688 2.605469-8.195313 6.582031-9.851563 3.980469-1.65625 8.574219-.7460935 11.628907 2.3125l96 96c3.050781 3.054688 3.964843 7.636719 2.3125 11.628906-1.652344 3.976563-5.546875 6.582032-9.855469 6.582032zm-85.332031-21.335938h59.582031l-59.582031-59.582031zm0 0"/><path d="m431.25 640h-426.664062c-5.886719 0-10.667969-4.777344-10.667969-10.667969v-191.996093c0-5.886719 4.78125-10.667969 10.667969-10.667969h426.664062c5.886719 0 10.667969 4.78125 10.667969 10.667969v191.996093c0 5.890625-4.78125 10.667969-10.667969 10.667969zm-415.996094-21.332031h405.332032v-170.667969h-405.332032zm0 0"/><path d="m345.917969 384h-256c-5.890625 0-10.664063-4.777344-10.664063-10.660156v-213.335938c0-5.886718 4.773438-10.667968 10.664063-10.667968h256c5.886719 0 10.667969 4.78125 10.667969 10.667968v213.335938c0 5.882812-4.78125 10.660156-10.667969 10.660156zm-245.332031-21.332031h234.667968v-192h-234.667968zm0 0"/><path d="m185.917969 320.003906c-1.730469 0-3.457031-.414062-5.035157-1.261718-3.464843-1.855469-5.628906-5.472657-5.628906-9.40625v-85.332032c0-3.9375 2.164063-7.554687 5.628906-9.410156 3.457032-1.863281 7.671876-1.660156 10.941407.539062l64 42.664063c2.980469 1.980469 4.761719 5.3125 4.761719 8.871094 0 3.566406-1.78125 6.890625-4.746094 8.878906l-64.003906 42.664063c-1.792969 1.183593-3.847657 1.792968-5.917969 1.792968zm10.667969-76.066406v45.476562l34.101562-22.746093zm0 0"/><path d="m345.917969 597.335938c-4.363281 0-8.277344-2.65625-9.910157-6.699219l-42.667968-106.664063c-2.183594-5.472656.472656-11.683594 5.941406-13.867187 5.492188-2.167969 11.679688.476562 13.867188 5.9375l32.769531 81.90625 32.757812-81.90625c2.1875-5.46875 8.375-8.117188 13.867188-5.9375 5.46875 2.195312 8.125 8.394531 5.9375 13.867187l-42.667969 106.664063c-1.621094 4.042969-5.53125 6.699219-9.894531 6.699219zm0 0"/><path d="m132.582031 213.339844h-42.664062c-5.890625 0-10.664063-4.78125-10.664063-10.667969v-42.667969c0-5.886718 4.773438-10.667968 10.664063-10.667968h42.664062c5.890625 0 10.671875 4.78125 10.671875 10.667968v42.667969c0 5.886719-4.78125 10.667969-10.671875 10.667969zm-31.996093-21.339844h21.332031v-21.332031h-21.332031zm0 0"/><path d="m132.582031 256.003906h-42.664062c-5.890625 0-10.664063-4.78125-10.664063-10.667968v-42.664063c0-5.890625 4.773438-10.671875 10.664063-10.671875h42.664062c5.890625 0 10.671875 4.78125 10.671875 10.671875v42.664063c0 5.886718-4.78125 10.667968-10.671875 10.667968zm-31.996093-21.332031h21.332031v-21.332031h-21.332031zm0 0"/><path d="m132.582031 298.671875h-42.664062c-5.890625 0-10.664063-4.78125-10.664063-10.671875v-42.664062c0-5.890626 4.773438-10.664063 10.664063-10.664063h42.664062c5.890625 0 10.671875 4.773437 10.671875 10.664063v42.664062c0 5.890625-4.78125 10.671875-10.671875 10.671875zm-31.996093-21.335937h21.332031v-21.332032h-21.332031zm0 0"/><path d="m132.582031 341.335938h-42.664062c-5.890625 0-10.664063-4.78125-10.664063-10.667969v-42.667969c0-5.886719 4.773438-10.664062 10.664063-10.664062h42.664062c5.890625 0 10.671875 4.777343 10.671875 10.664062v42.667969c0 5.886719-4.78125 10.667969-10.671875 10.667969zm-31.996093-21.332032h21.332031v-21.332031h-21.332031zm0 0"/><path d="m132.582031 384h-42.664062c-5.890625 0-10.664063-4.777344-10.664063-10.660156v-42.671875c0-5.882813 4.773438-10.664063 10.664063-10.664063h42.664062c5.890625 0 10.671875 4.78125 10.671875 10.664063v42.671875c0 5.882812-4.78125 10.660156-10.671875 10.660156zm-31.996093-21.332031h21.332031v-21.332031h-21.332031zm0 0"/><path d="m345.917969 213.339844h-42.667969c-5.886719 0-10.667969-4.78125-10.667969-10.667969v-42.667969c0-5.886718 4.78125-10.667968 10.667969-10.667968h42.667969c5.886719 0 10.667969 4.78125 10.667969 10.667968v42.667969c0 5.886719-4.78125 10.667969-10.667969 10.667969zm-32.003907-21.339844h21.339844v-21.332031h-21.339844zm0 0"/><path d="m345.917969 256.003906h-42.667969c-5.886719 0-10.667969-4.78125-10.667969-10.667968v-42.664063c0-5.890625 4.78125-10.671875 10.667969-10.671875h42.667969c5.886719 0 10.667969 4.78125 10.667969 10.671875v42.664063c0 5.886718-4.78125 10.667968-10.667969 10.667968zm-32.003907-21.332031h21.339844v-21.332031h-21.339844zm0 0"/><path d="m345.917969 298.671875h-42.667969c-5.886719 0-10.667969-4.78125-10.667969-10.671875v-42.664062c0-5.890626 4.78125-10.664063 10.667969-10.664063h42.667969c5.886719 0 10.667969 4.773437 10.667969 10.664063v42.664062c0 5.890625-4.78125 10.671875-10.667969 10.671875zm-32.003907-21.335937h21.339844v-21.332032h-21.339844zm0 0"/><path d="m345.917969 341.335938h-42.667969c-5.886719 0-10.667969-4.78125-10.667969-10.667969v-42.667969c0-5.886719 4.78125-10.664062 10.667969-10.664062h42.667969c5.886719 0 10.667969 4.777343 10.667969 10.664062v42.667969c0 5.886719-4.78125 10.667969-10.667969 10.667969zm-32.003907-21.332032h21.339844v-21.332031h-21.339844zm0 0"/><path d="m345.917969 384h-42.667969c-5.886719 0-10.667969-4.777344-10.667969-10.660156v-42.671875c0-5.882813 4.78125-10.664063 10.667969-10.664063h42.667969c5.886719 0 10.667969 4.78125 10.667969 10.664063v42.671875c0 5.882812-4.78125 10.660156-10.667969 10.660156zm-32.003907-21.332031h21.339844v-21.332031h-21.339844zm0 0"/><path d="m260.585938 597.335938c-5.890626 0-10.667969-4.78125-10.667969-10.667969v-66.496094l-22.742188 39.785156c-3.789062 6.644531-14.730469 6.644531-18.519531 0l-22.738281-39.785156v66.496094c0 5.886719-4.78125 10.667969-10.664063 10.667969-5.890625 0-10.667968-4.78125-10.667968-10.667969v-106.664063c0-4.84375 3.25-9.070312 7.921874-10.304687 4.683594-1.269531 9.601563.8125 12.003907 5.011719l33.40625 58.453124 33.410156-58.453124c2.398437-4.191407 7.304687-6.28125 11.996094-5.011719 4.671875 1.234375 7.925781 5.460937 7.925781 10.304687v106.664063c0 5.886719-4.777344 10.667969-10.664062 10.667969zm0 0"/><path d="m121.917969 597.335938c-4.210938 0-8.09375-2.496094-9.792969-6.464844l-22.207031-51.789063-22.199219 51.789063c-1.90625 4.457031-6.621094 7.058594-11.417969 6.335937-4.816406-.734375-8.515625-4.640625-8.996093-9.472656l-10.664063-106.667969c-.589844-5.863281 3.6875-11.09375 9.546875-11.679687 5.863281-.523438 11.09375 3.691406 11.679688 9.5625l6.546874 65.492187 15.703126-36.640625c1.675781-3.925781 5.53125-6.464843 9.800781-6.464843 4.265625 0 8.128906 2.539062 9.804687 6.464843l15.699219 36.640625 6.550781-65.492187c.585938-5.859375 5.738282-10.09375 11.679688-9.5625 5.855468.585937 10.132812 5.816406 9.554687 11.679687l-10.664062 106.667969c-.480469 4.839844-4.183594 8.738281-8.992188 9.484375-.558593.074219-1.097656.117188-1.632812.117188zm0 0"/></svg>