<svg height="682pt" viewBox="-117 -21 682 682.66784" width="682pt" xmlns="http://www.w3.org/2000/svg"><path d="m431.25 640h-426.664062c-5.886719 0-10.667969-4.777344-10.667969-10.667969v-618.664062c0-5.882813 4.78125-10.66406275 10.667969-10.66406275h330.667968c2.820313 0 5.539063 1.12109375 7.539063 3.12499975l96 96c2 2.003906 3.125 4.714844 3.125 7.539063v522.664062c0 5.890625-4.78125 10.667969-10.667969 10.667969zm-415.996094-21.332031h405.332032v-507.578125l-89.753907-89.75h-315.578125zm0 0"/><path d="m431.25 117.339844h-95.996094c-5.890625 0-10.671875-4.78125-10.671875-10.671875v-96c0-4.304688 2.605469-8.195313 6.582031-9.851563 3.980469-1.65625 8.566407-.7460935 11.628907 2.3125l96 96c3.050781 3.054688 3.964843 7.636719 2.3125 11.628906-1.652344 3.976563-5.546875 6.582032-9.855469 6.582032zm-85.332031-21.335938h59.582031l-59.582031-59.582031zm0 0"/><path d="m431.25 640h-426.664062c-5.886719 0-10.667969-4.777344-10.667969-10.667969v-191.996093c0-5.886719 4.78125-10.667969 10.667969-10.667969h426.664062c5.886719 0 10.667969 4.78125 10.667969 10.667969v191.996093c0 5.890625-4.78125 10.667969-10.667969 10.667969zm-415.996094-21.332031h405.332032v-170.667969h-405.332032zm0 0"/><path d="m223.25 597.335938h-37.332031c-5.890625 0-10.664063-4.78125-10.664063-10.667969 0-5.890625 4.773438-10.664063 10.664063-10.664063h37.332031c8.824219 0 16.003906-7.179687 16.003906-16.003906 0-8.820312-7.179687-16-16.003906-16h-10.667969c-20.585937 0-37.328125-16.746094-37.328125-37.332031 0-20.585938 16.742188-37.335938 37.328125-37.335938h37.335938c5.886719 0 10.667969 4.78125 10.667969 10.671875 0 5.886719-4.78125 10.664063-10.667969 10.664063h-37.335938c-8.816406 0-15.996093 7.179687-15.996093 16 0 8.824219 7.179687 16 15.996093 16h10.667969c20.585938 0 37.335938 16.746093 37.335938 37.332031s-16.75 37.335938-37.335938 37.335938zm0 0"/><path d="m345.917969 597.335938h-21.335938c-17.640625 0-32-14.359376-32-32.003907v-63.996093c0-17.640626 14.359375-32.003907 32-32.003907h21.335938c17.640625 0 32 14.363281 32 32.003907v64.007812c0 17.632812-14.359375 31.992188-32 31.992188zm-21.335938-106.667969c-5.878906 0-10.667969 4.777343-10.667969 10.667969v64.007812c0 5.878906 4.78125 10.667969 10.667969 10.667969h21.335938c5.878906 0 10.667969-4.78125 10.667969-10.667969v-64.007812c0-5.878907-4.78125-10.667969-10.667969-10.667969zm0 0"/><path d="m100.585938 597.335938c-5.886719 0-10.667969-4.78125-10.667969-10.667969v-106.664063c0-5.890625 4.78125-10.671875 10.667969-10.671875 5.890624 0 10.664062 4.78125 10.664062 10.671875v106.664063c0 5.886719-4.773438 10.667969-10.664062 10.667969zm0 0"/><path d="m132.582031 597.335938h-63.996093c-5.890626 0-10.664063-4.78125-10.664063-10.667969 0-5.890625 4.773437-10.664063 10.664063-10.664063h63.996093c5.890625 0 10.671875 4.773438 10.671875 10.664063 0 5.886719-4.78125 10.667969-10.671875 10.667969zm0 0"/><path d="m132.582031 490.667969h-63.996093c-5.890626 0-10.664063-4.777344-10.664063-10.664063 0-5.890625 4.773437-10.671875 10.664063-10.671875h63.996093c5.890625 0 10.671875 4.78125 10.671875 10.671875 0 5.886719-4.78125 10.664063-10.671875 10.664063zm0 0"/><path d="m217.917969 394.671875c-70.578125 0-128-57.421875-128-128.003906 0-70.578125 57.421875-127.996094 128-127.996094 70.582031 0 128 57.417969 128 127.996094 0 70.582031-57.417969 128.003906-128 128.003906zm0-234.667969c-58.816407 0-106.667969 47.851563-106.667969 106.664063 0 58.820312 47.851562 106.671875 106.667969 106.671875 58.816406 0 106.664062-47.851563 106.664062-106.671875 0-58.8125-47.847656-106.664063-106.664062-106.664063zm0 0"/><path d="m217.917969 309.335938c-23.527344 0-42.664063-19.136719-42.664063-42.667969s19.136719-42.664063 42.664063-42.664063c23.53125 0 42.667969 19.132813 42.667969 42.664063s-19.136719 42.667969-42.667969 42.667969zm0-64c-11.765625 0-21.332031 9.570312-21.332031 21.332031 0 11.769531 9.566406 21.332031 21.332031 21.332031s21.335937-9.5625 21.335937-21.332031c0-11.761719-9.570312-21.332031-21.335937-21.332031zm0 0"/><path d="m143.253906 277.335938c-5.890625 0-10.671875-4.777344-10.671875-10.667969 0-47.050781 38.285157-85.332031 85.335938-85.332031 5.890625 0 10.664062 4.78125 10.664062 10.664062 0 5.890625-4.773437 10.671875-10.664062 10.671875-35.296875 0-64 28.703125-64 63.996094 0 5.890625-4.777344 10.667969-10.664063 10.667969zm0 0"/><path d="m217.917969 352c-5.886719 0-10.667969-4.773438-10.667969-10.664062 0-5.886719 4.78125-10.667969 10.667969-10.667969 35.292969 0 64-28.703125 64-64 0-5.886719 4.78125-10.664063 10.664062-10.664063 5.890625 0 10.667969 4.777344 10.667969 10.664063 0 47.050781-38.28125 85.332031-85.332031 85.332031zm0 0"/></svg>