<svg height="681pt" viewBox="-117 -21 681 681.33176" width="681pt" xmlns="http://www.w3.org/2000/svg"><path d="m430.234375 638.75h-425.828125c-5.878906 0-10.644531-4.757812-10.644531-10.644531v-617.453125c0-5.886719 4.765625-10.64843775 10.644531-10.64843775h330.019531c2.816407 0 5.53125 1.12109375 7.523438 3.12109375l95.808593 95.8125c2.003907 1.988281 3.121094 4.691406 3.121094 7.523438v521.644531c0 5.875-4.765625 10.644531-10.644531 10.644531zm-415.179687-21.292969h404.53125v-506.585937l-89.570313-89.574219h-314.960937zm0 0"/><path d="m430.234375 117.109375h-95.808594c-5.878906 0-10.648437-4.761719-10.648437-10.648437v-95.808594c0-4.304688 2.597656-8.195313 6.570312-9.839844 3.96875-1.65625 8.554688-.7304688 11.601563 2.3125l95.808593 95.8125c3.046876 3.046875 3.964844 7.621094 2.3125 11.601562-1.648437 3.984376-5.523437 6.570313-9.835937 6.570313zm-85.164063-21.289063h59.46875l-59.46875-59.472656zm0 0"/><path d="m430.234375 638.75h-425.828125c-5.878906 0-10.644531-4.757812-10.644531-10.644531v-191.625c0-5.886719 4.765625-10.648438 10.644531-10.648438h425.828125c5.878906 0 10.644531 4.761719 10.644531 10.648438v191.625c0 5.875-4.765625 10.644531-10.644531 10.644531zm-415.179687-21.292969h404.53125v-170.332031h-404.53125zm0 0"/><path d="m100.21875 596.164062c-23.484375 0-42.582031-19.097656-42.582031-42.582031 0-5.886719 4.765625-10.644531 10.644531-10.644531 5.875 0 10.644531 4.757812 10.644531 10.644531 0 11.746094 9.546875 21.292969 21.292969 21.292969 11.742188 0 21.292969-9.546875 21.292969-21.292969v-74.515625c0-5.886718 4.765625-10.648437 10.640625-10.648437 5.878906 0 10.648437 4.761719 10.648437 10.648437v74.515625c0 23.484375-19.097656 42.582031-42.582031 42.582031zm0 0"/><path d="m249.257812 596.164062c-5.875 0-10.648437-4.753906-10.648437-10.640624v-93.378907c0-1.347656-1.09375-2.4375-2.433594-2.4375h-37.710937c-1.339844 0-2.4375 1.097657-2.4375 2.4375v93.378907c0 5.886718-4.769532 10.640624-10.640625 10.640624-5.878907 0-10.648438-4.753906-10.648438-10.640624v-93.378907c0-13.078125 10.648438-23.726562 23.726563-23.726562h37.710937c13.082031 0 23.726563 10.648437 23.726563 23.726562v93.378907c0 5.875-4.769532 10.640624-10.644532 10.640624zm0 0"/><path d="m249.257812 542.9375h-63.871093c-5.878907 0-10.648438-4.757812-10.648438-10.644531 0-5.890625 4.769531-10.644531 10.648438-10.644531h63.871093c5.875 0 10.644532 4.753906 10.644532 10.644531 0 5.886719-4.769532 10.644531-10.644532 10.644531zm0 0"/><path d="m302.484375 596.164062c-5.875 0-10.640625-4.753906-10.640625-10.640624v-106.457032c0-5.886718 4.765625-10.648437 10.640625-10.648437 5.878906 0 10.648437 4.761719 10.648437 10.648437v106.457032c0 5.875-4.769531 10.640624-10.648437 10.640624zm0 0"/><path d="m334.425781 553.582031h-31.941406c-5.875 0-10.640625-4.753906-10.640625-10.644531v-63.871094c0-5.886718 4.765625-10.648437 10.640625-10.648437h31.941406c23.484375 0 42.578125 19.097656 42.578125 42.582031s-19.09375 42.582031-42.578125 42.582031zm-21.292969-21.289062h21.292969c11.738281 0 21.285157-9.546875 21.285157-21.292969 0-11.738281-9.546876-21.292969-21.285157-21.292969h-21.292969zm0 0"/><path d="m366.371094 596.164062c-3.238282 0-6.429688-1.464843-8.53125-4.257812l-31.933594-42.582031c-3.523438-4.695313-2.578125-11.371094 2.128906-14.894531 4.703125-3.511719 11.378906-2.570313 14.902344 2.128906l31.941406 42.585937c3.523438 4.695313 2.574219 11.367188-2.128906 14.890625-1.921875 1.429688-4.164062 2.128906-6.378906 2.128906zm0 0"/><path d="m185.386719 351.316406c-70.445313 0-127.75-57.304687-127.75-127.75v-31.9375c0-5.886718 4.765625-10.644531 10.644531-10.644531h234.203125c5.878906 0 10.648437 4.757813 10.648437 10.644531v31.9375c0 70.445313-57.308593 127.75-127.746093 127.75zm-106.460938-149.039062v21.289062c0 58.699219 47.753907 106.457032 106.460938 106.457032 58.699219 0 106.457031-47.757813 106.457031-106.457032v-21.289062zm0 0"/><path d="m313.132812 255.503906h-12.667968c-3.164063 0-6.15625-1.40625-8.179688-3.832031-2.023437-2.425781-2.859375-5.625-2.285156-8.726563 1.234375-6.796874 1.84375-13.121093 1.84375-19.378906v-31.9375c0-5.886718 4.765625-10.644531 10.640625-10.644531h63.875c5.878906 0 10.644531 4.757813 10.644531 10.644531 0 35.21875-28.65625 63.875-63.871094 63.875zm-.480468-21.292968h.480468c19.800782 0 36.492188-13.582032 41.238282-31.933594h-41.238282v21.289062c0 3.523438-.160156 7.058594-.480468 10.644532zm0 0"/><path d="m281.195312 351.316406h-191.625c-5.875 0-10.644531-4.761718-10.644531-10.648437s4.769531-10.644531 10.644531-10.644531h191.625c5.875 0 10.648438 4.757812 10.648438 10.644531s-4.773438 10.648437-10.648438 10.648437zm0 0"/></svg>