<svg height="681pt" viewBox="-117 -21 681 681.33176" width="681pt" xmlns="http://www.w3.org/2000/svg"><path d="m430.234375 638.75h-425.828125c-5.878906 0-10.644531-4.757812-10.644531-10.644531v-617.453125c0-5.886719 4.765625-10.64843775 10.644531-10.64843775h330.019531c2.816407 0 5.53125 1.12109375 7.523438 3.12109375l95.808593 95.8125c2.003907 1.988281 3.121094 4.691406 3.121094 7.523438v521.644531c0 5.875-4.765625 10.644531-10.644531 10.644531zm-415.179687-21.292969h404.53125v-506.585937l-89.570313-89.574219h-314.960937zm0 0"/><path d="m430.234375 117.109375h-95.808594c-5.878906 0-10.648437-4.761719-10.648437-10.648437v-95.808594c0-4.304688 2.597656-8.195313 6.570312-9.839844 3.980469-1.65625 8.554688-.7304688 11.601563 2.3125l95.808593 95.8125c3.046876 3.046875 3.964844 7.621094 2.3125 11.601562-1.648437 3.984376-5.523437 6.570313-9.835937 6.570313zm-85.164063-21.289063h59.46875l-59.46875-59.472656zm0 0"/><path d="m430.234375 638.75h-425.828125c-5.878906 0-10.644531-4.757812-10.644531-10.644531v-191.625c0-5.886719 4.765625-10.648438 10.644531-10.648438h425.828125c5.878906 0 10.644531 4.761719 10.644531 10.648438v191.625c0 5.875-4.765625 10.644531-10.644531 10.644531zm-415.179687-21.292969h404.53125v-170.332031h-404.53125zm0 0"/><path d="m355.710938 404.542969h-276.785157c-5.875 0-10.644531-4.757813-10.644531-10.644531v-244.855469c0-5.886719 4.769531-10.640625 10.644531-10.640625h276.785157c5.878906 0 10.648437 4.753906 10.648437 10.640625v244.855469c0 5.878906-4.769531 10.644531-10.648437 10.644531zm-266.140626-21.292969h255.5v-223.558594h-255.5zm0 0"/><path d="m217.320312 308.734375c-35.214843 0-63.875-28.652344-63.875-63.875 0-35.230469 28.660157-63.875 63.875-63.875 35.214844 0 63.875 28.644531 63.875 63.875 0 35.222656-28.660156 63.875-63.875 63.875zm0-106.457031c-23.484374 0-42.582031 19.097656-42.582031 42.582031s19.097657 42.582031 42.582031 42.582031c23.484376 0 42.582032-19.097656 42.582032-42.582031s-19.097656-42.582031-42.582032-42.582031zm0 0"/><path d="m302.484375 361.960938h-170.332031c-5.875 0-10.640625-4.757813-10.640625-10.644532v-31.960937c0-29.339844 23.863281-53.207031 53.207031-53.207031 3.328125 0 6.75 1.566406 8.761719 4.226562 8.195312 10.847656 20.519531 17.066406 33.839843 17.066406 13.316407 0 25.65625-6.21875 33.84375-17.066406 2.007813-2.660156 5.152344-4.226562 8.496094-4.226562h.261719c29.34375 0 53.210937 23.867187 53.210937 53.207031v31.960937c0 5.875-4.769531 10.644532-10.648437 10.644532zm-159.683594-21.292969h149.042969v-21.3125c0-16.085938-11.960938-29.421875-27.449219-31.605469-12.113281 13.398438-28.976562 20.984375-47.074219 20.984375-18.085937 0-34.9375-7.570313-47.050781-20.953125-15.609375 2.257812-27.46875 15.550781-27.46875 31.574219zm0 0"/><path d="m100.21875 596.164062c-4.355469 0-8.273438-2.648437-9.882812-6.695312l-42.582032-106.457031c-2.179687-5.457031.46875-11.65625 5.929688-13.839844 5.453125-2.179687 11.648437.46875 13.839844 5.941406l32.695312 81.738281 32.699219-81.75c2.183593-5.472656 8.394531-8.132812 13.839843-5.9375 5.464844 2.179688 8.117188 8.375 5.933594 13.839844l-42.585937 106.457032c-1.617188 4.054687-5.535157 6.703124-9.886719 6.703124zm0 0"/><path d="m377.003906 489.707031h-63.871094c-5.875 0-10.648437-4.753906-10.648437-10.640625 0-5.886718 4.773437-10.648437 10.648437-10.648437h63.871094c5.875 0 10.648438 4.761719 10.648438 10.648437 0 5.886719-4.773438 10.640625-10.648438 10.640625zm0 0"/><path d="m377.003906 542.9375h-63.871094c-5.875 0-10.648437-4.757812-10.648437-10.644531 0-5.890625 4.773437-10.644531 10.648437-10.644531h63.871094c5.875 0 10.648438 4.753906 10.648438 10.644531 0 5.886719-4.773438 10.644531-10.648438 10.644531zm0 0"/><path d="m313.132812 596.164062c-5.875 0-10.648437-4.753906-10.648437-10.640624v-106.457032c0-5.886718 4.773437-10.648437 10.648437-10.648437s10.644532 4.761719 10.644532 10.648437v106.457032c0 5.875-4.769532 10.640624-10.644532 10.640624zm0 0"/><path d="m259.902344 596.164062h-42.484375c-17.660157 0-32.03125-14.371093-32.03125-32.03125v-63.683593c0-17.660157 14.371093-32.03125 32.03125-32.03125h42.484375c5.878906 0 10.648437 4.761719 10.648437 10.648437 0 5.886719-4.769531 10.640625-10.648437 10.640625h-42.484375c-5.921875 0-10.742188 4.816407-10.742188 10.742188v63.683593c0 5.929688 4.8125 10.742188 10.742188 10.742188h42.484375c5.878906 0 10.648437 4.761719 10.648437 10.648438 0 5.886718-4.769531 10.640624-10.648437 10.640624zm0 0"/></svg>