<svg height="681pt" viewBox="-117 -21 681 681.33176" width="681pt" xmlns="http://www.w3.org/2000/svg"><path d="m430.234375 638.75h-425.828125c-5.878906 0-10.644531-4.757812-10.644531-10.644531v-617.453125c0-5.886719 4.765625-10.64843775 10.644531-10.64843775h330.019531c2.816407 0 5.53125 1.12109375 7.523438 3.12109375l95.808593 95.8125c2.003907 1.988281 3.121094 4.691406 3.121094 7.523438v521.644531c0 5.875-4.765625 10.644531-10.644531 10.644531zm-415.179687-21.292969h404.53125v-506.585937l-89.570313-89.574219h-314.960937zm0 0"/><path d="m430.234375 117.109375h-95.808594c-5.878906 0-10.648437-4.761719-10.648437-10.648437v-95.808594c0-4.304688 2.597656-8.195313 6.570312-9.839844 3.980469-1.65625 8.554688-.7304688 11.601563 2.3125l95.808593 95.8125c3.046876 3.046875 3.964844 7.621094 2.3125 11.601562-1.648437 3.984376-5.523437 6.570313-9.835937 6.570313zm-85.164063-21.289063h59.46875l-59.46875-59.472656zm0 0"/><path d="m430.234375 638.75h-425.828125c-5.878906 0-10.644531-4.757812-10.644531-10.644531v-191.625c0-5.886719 4.765625-10.648438 10.644531-10.648438h425.828125c5.878906 0 10.644531 4.761719 10.644531 10.648438v191.625c0 5.875-4.765625 10.644531-10.644531 10.644531zm-415.179687-21.292969h404.53125v-170.332031h-404.53125zm0 0"/><path d="m334.425781 596.164062c-23.484375 0-42.582031-19.097656-42.582031-42.582031 0-5.886719 4.765625-10.644531 10.640625-10.644531 5.878906 0 10.648437 4.757812 10.648437 10.644531 0 11.746094 9.546876 21.292969 21.292969 21.292969 11.738281 0 21.285157-9.546875 21.285157-21.292969v-74.515625c0-5.886718 4.773437-10.648437 10.648437-10.648437 5.878906 0 10.644531 4.761719 10.644531 10.648437v74.515625c0 23.484375-19.09375 42.582031-42.578125 42.582031zm0 0"/><path d="m110.863281 596.164062h-21.292969c-17.605468 0-31.933593-14.324218-31.933593-31.933593v-63.875c0-17.605469 14.316406-31.9375 31.933593-31.9375h21.292969c17.605469 0 31.9375 14.332031 31.9375 31.9375v63.875c0 17.609375-14.320312 31.933593-31.9375 31.933593zm-21.292969-106.457031c-5.867187 0-10.644531 4.773438-10.644531 10.648438v63.875c0 5.878906 4.769531 10.644531 10.644531 10.644531h21.292969c5.867188 0 10.648438-4.765625 10.648438-10.644531v-63.875c0-5.875-4.773438-10.648438-10.648438-10.648438zm0 0"/><path d="m222.640625 542.9375h-37.253906c-5.878907 0-10.648438-4.757812-10.648438-10.644531v-53.226563c0-5.886718 4.769531-10.648437 10.648438-10.648437h37.253906c20.546875 0 37.261719 16.714843 37.261719 37.261719 0 20.542968-16.714844 37.257812-37.261719 37.257812zm-26.613281-21.289062h26.613281c8.808594 0 15.96875-7.164063 15.96875-15.96875 0-8.808594-7.160156-15.972657-15.96875-15.972657h-26.613281zm0 0"/><path d="m222.640625 596.164062h-37.253906c-5.878907 0-10.648438-4.753906-10.648438-10.640624v-53.230469c0-5.890625 4.769531-10.644531 10.648438-10.644531h37.253906c20.546875 0 37.261719 16.710937 37.261719 37.253906 0 20.550781-16.714844 37.261718-37.261719 37.261718zm-26.613281-21.289062h26.613281c8.808594 0 15.96875-7.164062 15.96875-15.972656 0-8.800782-7.160156-15.964844-15.96875-15.964844h-26.613281zm0 0"/><path d="m238.609375 287.441406h-149.039063c-5.875 0-10.644531-4.761718-10.644531-10.648437v-149.039063c0-5.886718 4.769531-10.644531 10.644531-10.644531h149.039063c5.878906 0 10.648437 4.757813 10.648437 10.644531v149.039063c0 5.878906-4.769531 10.648437-10.648437 10.648437zm-138.390625-21.292968h127.75v-127.746094h-127.75zm0 0"/><path d="m323.777344 372.609375h-149.039063c-5.878906 0-10.644531-4.761719-10.644531-10.648437v-85.167969c0-5.886719 4.765625-10.644531 10.644531-10.644531h53.230469v-53.230469c0-5.886719 4.765625-10.640625 10.640625-10.640625h85.167969c5.878906 0 10.648437 4.753906 10.648437 10.640625v149.042969c0 5.875-4.769531 10.648437-10.648437 10.648437zm-138.390625-21.292969h127.746093v-127.75h-63.875v53.226563c0 5.886719-4.769531 10.648437-10.648437 10.648437h-53.222656zm0 0"/></svg>