<svg height="681pt" viewBox="-117 -21 681 681.33176" width="681pt" xmlns="http://www.w3.org/2000/svg"><path d="m430.234375 638.75h-425.828125c-5.878906 0-10.644531-4.757812-10.644531-10.644531v-617.453125c0-5.886719 4.765625-10.64843775 10.644531-10.64843775h330.019531c2.816407 0 5.53125 1.12109375 7.523438 3.12109375l95.808593 95.8125c2.003907 1.988281 3.121094 4.691406 3.121094 7.523438v521.644531c0 5.875-4.765625 10.644531-10.644531 10.644531zm-415.179687-21.292969h404.53125v-506.585937l-89.570313-89.574219h-314.960937zm0 0"/><path d="m430.234375 117.109375h-95.808594c-5.878906 0-10.648437-4.761719-10.648437-10.648437v-95.808594c0-4.304688 2.597656-8.195313 6.570312-9.839844 3.96875-1.65625 8.554688-.7304688 11.601563 2.3125l95.808593 95.8125c3.046876 3.046875 3.964844 7.621094 2.3125 11.601562-1.648437 3.984376-5.523437 6.570313-9.835937 6.570313zm-85.164063-21.289063h59.46875l-59.46875-59.472656zm0 0"/><path d="m430.234375 638.75h-425.828125c-5.878906 0-10.644531-4.757812-10.644531-10.644531v-191.625c0-5.886719 4.765625-10.648438 10.644531-10.648438h425.828125c5.878906 0 10.644531 4.761719 10.644531 10.648438v191.625c0 5.875-4.765625 10.644531-10.644531 10.644531zm-415.179687-21.292969h404.53125v-170.332031h-404.53125zm0 0"/><path d="m68.28125 596.164062c-5.878906 0-10.644531-4.753906-10.644531-10.640624v-106.457032c0-5.886718 4.765625-10.648437 10.644531-10.648437 5.875 0 10.644531 4.761719 10.644531 10.648437v106.457032c0 5.875-4.769531 10.640624-10.644531 10.640624zm0 0"/><path d="m132.152344 596.164062c-5.875 0-10.640625-4.753906-10.640625-10.640624v-106.457032c0-5.886718 4.765625-10.648437 10.640625-10.648437 5.878906 0 10.648437 4.761719 10.648437 10.648437v106.457032c0 5.875-4.769531 10.640624-10.648437 10.640624zm0 0"/><path d="m132.152344 542.9375h-63.871094c-5.878906 0-10.644531-4.757812-10.644531-10.644531 0-5.890625 4.765625-10.644531 10.644531-10.644531h63.871094c5.878906 0 10.648437 4.753906 10.648437 10.644531 0 5.886719-4.769531 10.644531-10.648437 10.644531zm0 0"/><path d="m238.609375 489.707031h-63.871094c-5.878906 0-10.644531-4.753906-10.644531-10.640625 0-5.886718 4.765625-10.648437 10.644531-10.648437h63.871094c5.878906 0 10.648437 4.761719 10.648437 10.648437 0 5.886719-4.769531 10.640625-10.648437 10.640625zm0 0"/><path d="m206.675781 596.164062c-5.875 0-10.648437-4.753906-10.648437-10.640624v-106.457032c0-5.886718 4.773437-10.648437 10.648437-10.648437s10.644531 4.761719 10.644531 10.648437v106.457032c0 5.875-4.769531 10.640624-10.644531 10.640624zm0 0"/><path d="m366.359375 596.164062c-5.875 0-10.648437-4.753906-10.648437-10.640624v-66.367188l-22.695313 39.710938c-3.789063 6.628906-14.6875 6.628906-18.476563 0l-22.695312-39.722657v66.367188c0 5.886719-4.773438 10.644531-10.648438 10.644531-5.878906 0-10.644531-4.757812-10.644531-10.644531v-106.457031c0-4.824219 3.246094-9.058594 7.910157-10.296876 4.660156-1.234374 9.582031.808594 11.972656 5.015626l33.34375 58.347656 33.34375-58.339844c2.390625-4.203125 7.3125-6.257812 11.972656-5.011719 4.664062 1.234375 7.910156 5.472657 7.910156 10.296875v106.457032c0 5.875-4.765625 10.640624-10.644531 10.640624zm0 0"/><path d="m217.320312 393.898438c-70.445312 0-127.75-57.304688-127.75-127.75 0-70.441407 57.304688-127.746094 127.75-127.746094 70.441407 0 127.75 57.304687 127.75 127.746094 0 70.445312-57.308593 127.75-127.75 127.75zm0-234.207032c-58.699218 0-106.457031 47.753906-106.457031 106.457032 0 58.699218 47.757813 106.460937 106.457031 106.460937 58.699219 0 106.457032-47.761719 106.457032-106.460937 0-58.703126-47.757813-106.457032-106.457032-106.457032zm0 0"/><path d="m217.320312 393.898438c-33.605468 0-42.582031-80.300782-42.582031-127.75 0-47.445313 8.976563-127.746094 42.582031-127.746094 33.605469 0 42.582032 80.300781 42.582032 127.746094 0 47.449218-8.976563 127.75-42.582032 127.75zm-.449218-234.269532c-6.6875 2.96875-20.84375 42.1875-20.84375 106.519532 0 64.335937 14.15625 103.550781 21.742187 106.523437 6.683594-2.984375 20.839844-42.1875 20.839844-106.523437 0-64.332032-14.15625-103.550782-21.738281-106.519532zm0 0"/><path d="m334.425781 276.792969h-234.207031c-5.875 0-10.648438-4.753907-10.648438-10.644531 0-5.886719 4.773438-10.644532 10.648438-10.644532h234.207031c5.871094 0 10.644531 4.757813 10.644531 10.644532 0 5.890624-4.773437 10.644531-10.644531 10.644531zm0 0"/></svg>