<svg height="681pt" viewBox="-117 -21 681 681.33176" width="681pt" xmlns="http://www.w3.org/2000/svg"><path d="m430.234375 638.75h-425.828125c-5.878906 0-10.644531-4.757812-10.644531-10.644531v-617.453125c0-5.886719 4.765625-10.64843775 10.644531-10.64843775h330.019531c2.816407 0 5.53125 1.12109375 7.523438 3.12109375l95.808593 95.8125c2.003907 1.988281 3.121094 4.691406 3.121094 7.523438v521.644531c0 5.875-4.765625 10.644531-10.644531 10.644531zm-415.179687-21.292969h404.53125v-506.585937l-89.570313-89.574219h-314.960937zm0 0"/><path d="m430.234375 117.109375h-95.808594c-5.878906 0-10.648437-4.761719-10.648437-10.648437v-95.808594c0-4.304688 2.597656-8.195313 6.570312-9.839844 3.96875-1.65625 8.554688-.7304688 11.601563 2.3125l95.808593 95.8125c3.046876 3.046875 3.964844 7.621094 2.3125 11.601562-1.648437 3.984376-5.523437 6.570313-9.835937 6.570313zm-85.164063-21.289063h59.46875l-59.46875-59.472656zm0 0"/><path d="m430.234375 638.75h-425.828125c-5.878906 0-10.644531-4.757812-10.644531-10.644531v-191.625c0-5.886719 4.765625-10.648438 10.644531-10.648438h425.828125c5.878906 0 10.644531 4.761719 10.644531 10.648438v191.625c0 5.875-4.765625 10.644531-10.644531 10.644531zm-415.179687-21.292969h404.53125v-170.332031h-404.53125zm0 0"/><path d="m78.925781 596.164062h-10.644531c-5.878906 0-10.644531-4.753906-10.644531-10.640624v-106.457032c0-5.886718 4.765625-10.648437 10.644531-10.648437h10.644531c35.214844 0 63.875 28.648437 63.875 63.875 0 35.226562-28.660156 63.871093-63.875 63.871093zm0-21.289062h.105469zm0-85.167969v85.167969c23.488281 0 42.585938-19.097656 42.585938-42.582031s-19.097657-42.585938-42.585938-42.585938zm0 0"/><path d="m249.257812 596.164062h-63.871093c-5.878907 0-10.648438-4.753906-10.648438-10.640624v-106.457032c0-5.886718 4.769531-10.648437 10.648438-10.648437 5.871093 0 10.640625 4.761719 10.640625 10.648437v95.808594h53.230468c5.875 0 10.644532 4.761719 10.644532 10.648438 0 5.886718-4.769532 10.640624-10.644532 10.640624zm0 0"/><path d="m366.359375 596.164062h-63.875c-5.875 0-10.640625-4.753906-10.640625-10.640624v-106.457032c0-5.886718 4.765625-10.648437 10.640625-10.648437 5.878906 0 10.648437 4.761719 10.648437 10.648437v95.808594h53.226563c5.878906 0 10.644531 4.761719 10.644531 10.648438 0 5.886718-4.765625 10.640624-10.644531 10.640624zm0 0"/><path d="m224.664062 372.609375h-14.6875c-5.367187 0-9.902343-4.007813-10.5625-9.328125l-.492187-3.949219c-1.042969-8.390625-6.480469-15.597656-13.847656-18.375-1.671875-.640625-3.289063-1.289062-4.898438-2-7.621093-3.40625-16.773437-2.089843-23.84375 3.425781l-2.566406 2.003907c-4.238281 3.296875-10.261719 2.914062-14.0625-.886719l-10.378906-10.390625c-3.792969-3.785156-4.171875-9.824219-.875-14.058594l1.988281-2.558593c5.507812-7.078126 6.8125-16.214844 3.421875-23.855469-.726563-1.617188-1.382813-3.246094-2.003906-4.886719-2.765625-7.34375-9.984375-12.785156-18.375-13.839844l-3.957031-.5c-5.3125-.679687-9.304688-5.207031-9.304688-10.574218v-14.679688c0-5.363281 3.992188-9.886719 9.3125-10.558594l3.949219-.503906c8.402343-1.050781 15.617187-6.480469 18.394531-13.847656.621094-1.628906 1.277344-3.253906 2.003906-4.863282 3.398438-7.65625 2.085938-16.789062-3.414062-23.871093l-1.996094-2.554688c-3.296875-4.234375-2.929688-10.269531.875-14.0625l10.378906-10.390625c3.800782-3.785156 9.8125-4.171875 14.054688-.882812l2.554687 1.988281c7.089844 5.519531 16.230469 6.828125 23.886719 3.433594 1.574219-.703125 3.191406-1.367188 4.824219-1.996094 7.410156-2.785156 12.847656-9.984375 13.890625-18.378906l.492187-3.953125c.65625-5.320313 5.195313-9.324219 10.558594-9.324219h14.679687c5.367188 0 9.902344 4.003906 10.558594 9.324219l.492188 3.953125c1.042968 8.386719 6.484375 15.59375 13.851562 18.371093 1.671875.636719 3.289063 1.285157 4.898438 2.003907 7.621094 3.386719 16.761718 2.066406 23.84375-3.433594l2.5625-1.996094c4.242187-3.289062 10.265625-2.910156 14.066406.882813l10.378906 10.390625c3.792969 3.789062 4.171875 9.824219.875 14.0625l-1.992187 2.554687c-5.503907 7.078125-6.8125 16.210938-3.417969 23.859375.726562 1.617188 1.382812 3.246094 2 4.882813 2.769531 7.347656 9.988281 12.785156 18.378906 13.839844l3.957032.5c5.320312.667968 9.316406 5.195312 9.316406 10.5625v14.679687c0 5.363281-3.996094 9.890625-9.316406 10.558594l-3.945313.503906c-8.402344 1.050781-15.621094 6.480469-18.398437 13.847656-.617188 1.628907-1.277344 3.257813-2.003907 4.863281-3.394531 7.65625-2.085937 16.789063 3.421875 23.871094l1.988282 2.554688c3.300781 4.238281 2.929687 10.269531-.871094 14.0625l-10.382813 10.390625c-3.789062 3.800781-9.8125 4.183593-14.0625.882812l-2.554687-1.988281c-7.089844-5.519531-16.222656-6.839844-23.878906-3.433594-1.582032.707032-3.203126 1.367188-4.832032 1.996094-7.410156 2.785156-12.847656 9.992188-13.890625 18.394531l-.492187 3.9375c-.65625 5.347657-5.183594 9.339844-10.550782 9.339844zm-53.34375-56.800781c5.96875 0 11.933594 1.203125 17.523438 3.699218 1.253906.5625 2.511719 1.074219 3.769531 1.550782 11.421875 4.300781 20.285157 13.371094 24.707031 24.785156 4.417969-11.414062 13.292969-20.492188 24.75-24.796875 1.214844-.464844 2.472657-.976563 3.714844-1.527344 11.382813-5.070312 24.292969-4.878906 35.695313.144531-5.023438-11.390624-5.203125-24.3125-.160157-35.683593.546876-1.222657 1.054688-2.46875 1.535157-3.726563 4.324219-11.460937 13.390625-20.332031 24.804687-24.75-11.414062-4.417968-20.480468-13.285156-24.804687-24.738281-.46875-1.257813-.988281-2.503906-1.535157-3.75-5.042968-11.347656-4.863281-24.273437.160157-35.675781-11.386719 5.015625-24.300781 5.210937-35.679688.160156-1.257812-.5625-2.515625-1.074219-3.773437-1.554688-11.421875-4.296874-20.289063-13.371093-24.707032-24.769531-4.421874 11.398438-13.292968 20.480469-24.753906 24.78125-1.210937.46875-2.46875.980469-3.703125 1.535157-11.390625 5.058593-24.300781 4.851562-35.707031-.152344 5.027344 11.394531 5.207031 24.316406.164062 35.6875-.546874 1.222656-1.054687 2.472656-1.535156 3.722656-4.324218 11.46875-13.394531 20.335938-24.804687 24.753906 11.410156 4.417969 20.480469 13.289063 24.804687 24.738282.464844 1.257812.988282 2.5 1.535156 3.75 5.042969 11.347656 4.863282 24.273437-.164062 35.671874 5.804688-2.554687 11.988281-3.855468 18.164062-3.855468zm0 0"/><path d="m217.320312 298.085938c-23.484374 0-42.582031-19.097657-42.582031-42.582032 0-23.488281 19.097657-42.585937 42.582031-42.585937 23.484376 0 42.582032 19.097656 42.582032 42.585937 0 23.484375-19.097656 42.582032-42.582032 42.582032zm0-63.875c-11.742187 0-21.292968 9.550781-21.292968 21.292968 0 11.742188 9.550781 21.289063 21.292968 21.289063 11.746094 0 21.289063-9.546875 21.289063-21.289063 0-11.742187-9.542969-21.292968-21.289063-21.292968zm0 0"/></svg>