<svg height="681pt" viewBox="-117 -21 681 681.335" width="681pt" xmlns="http://www.w3.org/2000/svg"><path d="m68.28125 596.167969h-10.644531c-5.875 0-10.648438-4.761719-10.648438-10.648438v-106.457031c0-5.886719 4.773438-10.640625 10.648438-10.640625h10.644531c35.230469 0 63.875 28.644531 63.875 63.871094 0 35.226562-28.644531 63.875-63.875 63.875zm0-21.289063h.105469zm0-85.167968v85.167968c23.484375 0 42.582031-19.101562 42.582031-42.585937s-19.097656-42.582031-42.582031-42.582031zm0 0"/><path d="m430.234375 638.75h-425.828125c-5.875 0-10.644531-4.757812-10.644531-10.648438v-617.449218c0-5.886719 4.769531-10.6406252 10.644531-10.6406252h330.019531c2.820313 0 5.535157 1.1132812 7.523438 3.1171872l95.816406 95.808594c1.996094 1.992188 3.117187 4.699219 3.117187 7.527344v521.636718c0 5.890626-4.769531 10.648438-10.648437 10.648438zm-415.179687-21.289062h404.535156v-506.589844l-89.574219-89.570313h-314.960937zm0 0"/><path d="m430.234375 117.109375h-95.808594c-5.878906 0-10.648437-4.753906-10.648437-10.644531v-95.8125c0-4.296875 2.597656-8.195313 6.570312-9.832032 3.980469-1.664062 8.554688-.7460932 11.601563 2.308594l95.816406 95.808594c3.039063 3.046875 3.957031 7.621094 2.308594 11.601562-1.652344 3.984376-5.535157 6.570313-9.839844 6.570313zm-85.164063-21.289063h59.46875l-59.46875-59.464843zm0 0"/><path d="m430.234375 638.75h-425.828125c-5.875 0-10.644531-4.757812-10.644531-10.648438v-191.621093c0-5.886719 4.769531-10.644531 10.644531-10.644531h425.828125c5.878906 0 10.648437 4.757812 10.648437 10.644531v191.621093c0 5.890626-4.769531 10.648438-10.648437 10.648438zm-415.179687-21.289062h404.535156v-170.332032h-404.535156zm0 0"/><path d="m249.261719 596.167969c-4.207031 0-8.082031-2.488281-9.777344-6.453125l-22.164063-51.683594-22.152343 51.675781c-1.90625 4.457031-6.621094 7.054688-11.398438 6.332031-4.800781-.734374-8.496093-4.632812-8.976562-9.464843l-10.644531-106.457031c-.585938-5.855469 3.683593-11.066407 9.535156-11.65625 5.84375-.5 11.074218 3.683593 11.660156 9.539062l6.535156 65.367188 15.671875-36.558594c1.671875-3.917969 5.523438-6.453125 9.78125-6.453125 4.257813 0 8.113281 2.535156 9.785157 6.453125l15.671874 36.558594 6.535157-65.367188c.585937-5.855469 5.757812-10.046875 11.65625-9.539062 5.84375.589843 10.113281 5.800781 9.535156 11.65625l-10.640625 106.457031c-.484375 4.832031-4.175781 8.722656-8.976562 9.464843-.566407.085938-1.105469.128907-1.636719.128907zm0 0"/><path d="m355.683594 596.167969h-21.164063c-17.660156 0-32.035156-14.371094-32.035156-32.03125v-63.683594c0-17.660156 14.375-32.03125 32.035156-32.03125h42.488281c5.878907 0 10.644532 4.753906 10.644532 10.640625s-4.765625 10.648438-10.644532 10.648438h-42.488281c-5.917969 0-10.742187 4.8125-10.742187 10.742187v63.683594c0 5.925781 4.824218 10.742187 10.742187 10.742187h21.164063c5.886718 0 10.675781-4.792968 10.675781-10.695312v-31.890625c0-5.886719 4.773437-10.648438 10.648437-10.648438 5.878907 0 10.644532 4.761719 10.644532 10.648438v31.890625c0 17.632812-14.335938 31.984375-31.96875 31.984375zm0 0"/><path d="m377.007812 542.9375h-21.289062c-5.878906 0-10.648438-4.757812-10.648438-10.644531s4.769532-10.648438 10.648438-10.648438h21.289062c5.878907 0 10.644532 4.761719 10.644532 10.648438s-4.765625 10.644531-10.644532 10.644531zm0 0"/><path d="m270.550781 308.734375h-106.457031c-5.875 0-10.648438-4.757813-10.648438-10.644531v-106.457032c0-5.886718 4.773438-10.648437 10.648438-10.648437h106.457031c5.878907 0 10.644531 4.761719 10.644531 10.648437v106.457032c0 5.886718-4.765624 10.644531-10.644531 10.644531zm-95.8125-21.292969h85.164063v-85.164062h-85.164063zm0 0"/><path d="m217.320312 202.277344c-5.875 0-10.644531-4.757813-10.644531-10.644532v-85.167968c0-5.886719 4.769531-10.644532 10.644531-10.644532 5.878907 0 10.648438 4.757813 10.648438 10.644532v85.167968c0 5.886719-4.769531 10.644532-10.648438 10.644532zm0 0"/><path d="m217.320312 393.898438c-5.875 0-10.644531-4.757813-10.644531-10.644532v-85.164062c0-5.886719 4.769531-10.648438 10.644531-10.648438 5.878907 0 10.648438 4.761719 10.648438 10.648438v85.164062c0 5.886719-4.769531 10.644532-10.648438 10.644532zm0 0"/><path d="m355.71875 255.507812h-85.167969c-5.875 0-10.648437-4.761718-10.648437-10.648437s4.773437-10.644531 10.648437-10.644531h85.167969c5.875 0 10.640625 4.757812 10.640625 10.644531s-4.765625 10.648437-10.640625 10.648437zm0 0"/><path d="m164.09375 255.507812h-85.164062c-5.878907 0-10.648438-4.761718-10.648438-10.648437s4.769531-10.644531 10.648438-10.644531h85.164062c5.878906 0 10.644531 4.757812 10.644531 10.644531s-4.765625 10.648437-10.644531 10.648437zm0 0"/></svg>