<svg height="681pt" viewBox="-117 -21 681 681.335" width="681pt" xmlns="http://www.w3.org/2000/svg"><path d="m430.234375 638.75h-425.828125c-5.875 0-10.644531-4.757812-10.644531-10.648438v-617.449218c0-5.886719 4.769531-10.6406252 10.644531-10.6406252h330.019531c2.820313 0 5.535157 1.1132812 7.523438 3.1171872l95.816406 95.808594c1.996094 1.992188 3.117187 4.699219 3.117187 7.527344v521.636718c0 5.890626-4.769531 10.648438-10.648437 10.648438zm-415.179687-21.289062h404.535156v-506.589844l-89.574219-89.570313h-314.960937zm0 0"/><path d="m430.234375 117.109375h-95.808594c-5.878906 0-10.648437-4.753906-10.648437-10.644531v-95.8125c0-4.296875 2.597656-8.195313 6.570312-9.832032 3.980469-1.664062 8.546875-.7460932 11.601563 2.308594l95.816406 95.808594c3.039063 3.046875 3.957031 7.621094 2.308594 11.601562-1.652344 3.984376-5.535157 6.570313-9.839844 6.570313zm-85.164063-21.289063h59.46875l-59.46875-59.464843zm0 0"/><path d="m430.234375 638.75h-425.828125c-5.875 0-10.644531-4.757812-10.644531-10.648438v-191.621093c0-5.886719 4.769531-10.644531 10.644531-10.644531h425.828125c5.878906 0 10.648437 4.757812 10.648437 10.644531v191.621093c0 5.890626-4.769531 10.648438-10.648437 10.648438zm-415.179687-21.289062h404.535156v-170.332032h-404.535156zm0 0"/><path d="m366.359375 596.167969h-63.875c-5.875 0-10.640625-4.761719-10.640625-10.648438s4.765625-10.640625 10.640625-10.640625h63.875c5.878906 0 10.648437 4.753906 10.648437 10.640625s-4.769531 10.648438-10.648437 10.648438zm0 0"/><path d="m302.484375 596.167969c-5.875 0-10.640625-4.761719-10.640625-10.648438v-106.457031c0-5.886719 4.765625-10.640625 10.640625-10.640625 5.878906 0 10.648437 4.753906 10.648437 10.640625v106.457031c0 5.886719-4.769531 10.648438-10.648437 10.648438zm0 0"/><path d="m259.902344 596.167969c-5.875 0-10.640625-4.761719-10.640625-10.648438v-66.363281l-22.703125 39.707031c-3.773438 6.632813-14.695313 6.632813-18.476563 0l-22.695312-39.71875v66.367188c0 5.886719-4.773438 10.648437-10.648438 10.648437-5.878906 0-10.644531-4.761718-10.644531-10.648437v-106.457031c0-4.824219 3.246094-9.058594 7.910156-10.292969 4.671875-1.257813 9.582032.808593 11.972656 5.015625l33.34375 58.347656 33.34375-58.339844c2.398438-4.203125 7.292969-6.261718 11.976563-5.015625 4.660156 1.234375 7.910156 5.472657 7.910156 10.292969v106.457031c0 5.886719-4.769531 10.648438-10.648437 10.648438zm0 0"/><path d="m132.15625 542.9375h-63.875c-5.878906 0-10.644531-4.757812-10.644531-10.644531v-53.230469c0-5.886719 4.765625-10.640625 10.644531-10.640625h63.875c5.875 0 10.648438 4.753906 10.648438 10.640625s-4.773438 10.648438-10.648438 10.648438h-53.226562v31.933593h53.226562c5.875 0 10.648438 4.761719 10.648438 10.648438s-4.773438 10.644531-10.648438 10.644531zm0 0"/><path d="m132.15625 596.167969h-63.875c-5.878906 0-10.644531-4.761719-10.644531-10.648438v-53.226562c0-5.886719 4.765625-10.648438 10.644531-10.648438h63.875c5.875 0 10.648438 4.761719 10.648438 10.648438s-4.773438 10.644531-10.648438 10.644531h-53.226562v31.941406h53.226562c5.875 0 10.648438 4.753906 10.648438 10.640625s-4.773438 10.648438-10.648438 10.648438zm0 0"/><path d="m323.777344 393.898438h-212.914063c-4.648437 0-8.761719-3.011719-10.15625-7.441407-1.394531-4.425781.234375-9.257812 4.046875-11.921875l106.457032-74.519531c3.664062-2.554687 8.550781-2.554687 12.203124 0l106.457032 74.519531c3.808594 2.664063 5.445312 7.496094 4.042968 11.921875-1.375 4.429688-5.484374 7.441407-10.136718 7.441407zm-179.140625-21.292969h145.363281l-72.679688-50.871094zm0 0"/><path d="m323.777344 393.898438c-2.148438 0-4.277344-.648438-6.097656-1.925782l-91.246094-63.875c-2.851563-2-4.546875-5.246094-4.546875-8.71875 0-3.46875 1.695312-6.726562 4.546875-8.714844l91.246094-63.875c3.246093-2.28125 7.492187-2.570312 11.015624-.71875 3.511719 1.824219 5.730469 5.464844 5.730469 9.4375v127.746094c0 3.972656-2.21875 7.613282-5.730469 9.441406-1.550781.808594-3.238281 1.203126-4.917968 1.203126zm-72.691406-74.519532 62.046874 43.421875v-86.847656zm0 0"/><path d="m110.863281 393.898438c-1.679687 0-3.363281-.394532-4.917969-1.203126-3.511718-1.828124-5.726562-5.46875-5.726562-9.441406v-127.746094c0-3.972656 2.214844-7.613281 5.726562-9.445312 3.523438-1.851562 7.773438-1.554688 11.019532.714844l91.242187 63.871094c2.855469 2.003906 4.546875 5.246093 4.546875 8.722656 0 3.46875-1.691406 6.726562-4.546875 8.71875l-91.242187 63.875c-1.824219 1.285156-3.945313 1.933594-6.101563 1.933594zm10.648438-117.945313v86.847656l62.042969-43.421875zm0 0"/><path d="m232.535156 330.023438c-2.140625 0-4.269531-.648438-6.101562-1.925782l-9.113282-6.363281-9.097656 6.375c-3.664062 2.554687-8.554687 2.554687-12.203125 0l-69.953125-48.972656c-2.863281-1.996094-4.554687-5.257813-4.554687-8.726563v-121.359375c0-5.886719 4.765625-10.648437 10.644531-10.648437h170.328125c5.878906 0 10.648437 4.761718 10.648437 10.648437v121.359375c0 3.46875-1.695312 6.730469-4.546874 8.71875l-69.949219 48.96875c-1.832031 1.277344-3.972657 1.925782-6.101563 1.925782zm-15.214844-31.933594c2.140626 0 4.269532.648437 6.101563 1.925781l9.101563 6.378906 59.320312-41.523437v-105.179688h-149.039062v105.179688l59.304687 41.511718 9.101563-6.378906c1.839843-1.277344 3.96875-1.914062 6.109374-1.914062zm0 0"/><path d="m238.613281 212.921875h-42.585937c-5.875 0-10.640625-4.757813-10.640625-10.644531 0-5.890625 4.765625-10.644532 10.640625-10.644532h42.585937c5.875 0 10.648438 4.753907 10.648438 10.644532 0 5.886718-4.773438 10.644531-10.648438 10.644531zm0 0"/><path d="m259.902344 255.507812h-85.164063c-5.878906 0-10.644531-4.761718-10.644531-10.648437s4.765625-10.644531 10.644531-10.644531h85.164063c5.878906 0 10.648437 4.757812 10.648437 10.644531s-4.769531 10.648437-10.648437 10.648437zm0 0"/></svg>