<svg height="681pt" viewBox="-117 -21 681 681.335" width="681pt" xmlns="http://www.w3.org/2000/svg"><path d="m196.027344 596.167969h-10.640625c-5.878907 0-10.648438-4.761719-10.648438-10.648438v-106.457031c0-5.886719 4.769531-10.640625 10.648438-10.640625h10.640625c35.230468 0 63.875 28.644531 63.875 63.871094 0 35.226562-28.644532 63.875-63.875 63.875zm0-21.289063h.109375zm0-85.167968v85.167968c23.484375 0 42.585937-19.101562 42.585937-42.585937s-19.101562-42.582031-42.585937-42.582031zm0 0"/><path d="m430.234375 638.75h-425.828125c-5.875 0-10.644531-4.757812-10.644531-10.648438v-617.449218c0-5.886719 4.769531-10.6406252 10.644531-10.6406252h330.019531c2.820313 0 5.535157 1.1132812 7.523438 3.1171872l95.816406 95.808594c1.996094 1.992188 3.117187 4.699219 3.117187 7.527344v521.636718c0 5.890626-4.769531 10.648438-10.648437 10.648438zm-415.179687-21.289062h404.535156v-506.589844l-89.574219-89.570313h-314.960937zm0 0"/><path d="m430.234375 117.109375h-95.808594c-5.878906 0-10.648437-4.753906-10.648437-10.644531v-95.8125c0-4.296875 2.597656-8.195313 6.570312-9.832032 3.980469-1.664062 8.554688-.7460932 11.601563 2.308594l95.816406 95.808594c3.039063 3.046875 3.957031 7.621094 2.308594 11.601562-1.652344 3.984376-5.535157 6.570313-9.839844 6.570313zm-85.164063-21.289063h59.46875l-59.46875-59.464843zm0 0"/><path d="m430.234375 638.75h-425.828125c-5.875 0-10.644531-4.757812-10.644531-10.648438v-191.621093c0-5.886719 4.769531-10.644531 10.644531-10.644531h425.828125c5.878906 0 10.648437 4.757812 10.648437 10.644531v191.621093c0 5.890626-4.769531 10.648438-10.648437 10.648438zm-415.179687-21.289062h404.535156v-170.332032h-404.535156zm0 0"/><path d="m105.542969 542.9375h-37.261719c-5.878906 0-10.644531-4.757812-10.644531-10.644531s4.765625-10.648438 10.644531-10.648438h37.261719c8.804687 0 15.96875-7.160156 15.96875-15.96875 0-8.800781-7.164063-15.964843-15.96875-15.964843h-37.261719c-5.878906 0-10.644531-4.761719-10.644531-10.648438s4.765625-10.640625 10.644531-10.640625h37.261719c20.542969 0 37.261719 16.710937 37.261719 37.253906 0 20.550781-16.71875 37.261719-37.261719 37.261719zm0 0"/><path d="m105.542969 596.167969h-37.261719c-5.878906 0-10.644531-4.761719-10.644531-10.648438s4.765625-10.640625 10.644531-10.640625h37.261719c8.804687 0 15.96875-7.164062 15.96875-15.972656 0-8.804688-7.164063-15.96875-15.96875-15.96875h-37.261719c-5.878906 0-10.644531-4.757812-10.644531-10.644531s4.765625-10.648438 10.644531-10.648438h37.261719c20.542969 0 37.261719 16.71875 37.261719 37.261719 0 20.546875-16.71875 37.261719-37.261719 37.261719zm0 0"/><path d="m339.746094 596.167969h-37.261719c-5.875 0-10.640625-4.761719-10.640625-10.648438s4.765625-10.640625 10.640625-10.640625h37.261719c8.808594 0 15.972656-7.164062 15.972656-15.972656 0-8.804688-7.164062-15.96875-15.972656-15.96875h-10.648438c-20.542968 0-37.253906-16.710938-37.253906-37.261719 0-20.542969 16.710938-37.253906 37.253906-37.253906h37.261719c5.878906 0 10.648437 4.753906 10.648437 10.640625s-4.769531 10.648438-10.648437 10.648438h-37.261719c-8.800781 0-15.964844 7.164062-15.964844 15.964843 0 8.808594 7.164063 15.96875 15.964844 15.96875h10.648438c20.546875 0 37.261718 16.71875 37.261718 37.261719 0 20.546875-16.714843 37.261719-37.261718 37.261719zm0 0"/><path d="m217.320312 361.964844c-1.628906 0-3.253906-.375-4.757812-1.121094l-85.164062-42.582031c-3.609376-1.820313-5.886719-5.492188-5.886719-9.527344v-106.457031c0-3.695313 1.914062-7.113282 5.042969-9.0625 3.144531-1.957032 7.070312-2.113282 10.363281-.464844l85.164062 42.582031c3.605469 1.8125 5.886719 5.492188 5.886719 9.527344v106.457031c0 3.691406-1.914062 7.113282-5.046875 9.058594-1.710937 1.058594-3.652344 1.589844-5.601563 1.589844zm-74.515624-59.8125 63.871093 31.941406v-82.65625l-63.871093-31.933594zm0 0"/><path d="m217.320312 361.964844c-1.945312 0-3.882812-.53125-5.597656-1.589844-3.128906-1.945312-5.046875-5.367188-5.046875-9.058594v-106.457031c0-4.035156 2.277344-7.714844 5.886719-9.527344l85.167969-42.582031c3.296875-1.648438 7.214843-1.492188 10.355469.464844 3.132812 1.949218 5.046874 5.367187 5.046874 9.0625v106.457031c0 4.035156-2.277343 7.71875-5.886718 9.527344l-85.164063 42.582031c-1.5.746094-3.128906 1.121094-4.761719 1.121094zm10.648438-110.527344v82.65625l63.875-31.941406v-82.648438zm0 0"/><path d="m217.320312 255.507812c-1.628906 0-3.265624-.375-4.757812-1.121093l-85.164062-42.582031c-3.609376-1.820313-5.886719-5.492188-5.886719-9.527344s2.277343-7.714844 5.886719-9.527344l85.164062-42.585938c2.992188-1.5 6.527344-1.5 9.527344 0l85.167968 42.585938c3.597657 1.8125 5.875 5.492188 5.875 9.527344s-2.277343 7.71875-5.886718 9.527344l-85.164063 42.582031c-1.492187.746093-3.128906 1.121093-4.761719 1.121093zm-61.359374-53.230468 61.359374 30.679687 61.363282-30.679687-61.363282-30.679688zm0 0"/><path d="m217.320312 170.339844c-5.875 0-10.644531-4.761719-10.644531-10.648438v-42.582031c0-5.886719 4.769531-10.644531 10.644531-10.644531 5.878907 0 10.648438 4.757812 10.648438 10.644531v42.582031c0 5.886719-4.769531 10.648438-10.648438 10.648438zm0 0"/><path d="m132.144531 212.921875c-2.023437 0-4.078125-.582031-5.894531-1.785156l-31.941406-21.292969c-4.882813-3.269531-6.203125-9.867188-2.949219-14.765625 3.261719-4.898437 9.871094-6.207031 14.765625-2.949219l31.941406 21.292969c4.882813 3.265625 6.203125 9.867187 2.949219 14.765625-2.058594 3.074219-5.429687 4.734375-8.871094 4.734375zm0 0"/><path d="m302.496094 212.921875c-3.4375 0-6.8125-1.660156-8.863282-4.734375-3.261718-4.898438-1.941406-11.5 2.945313-14.765625l31.9375-21.292969c4.886719-3.257812 11.5-1.949218 14.765625 2.949219 3.257812 4.898437 1.9375 11.496094-2.949219 14.765625l-31.933593 21.292969c-1.824219 1.203125-3.878907 1.785156-5.902344 1.785156zm0 0"/><path d="m217.320312 404.546875c-5.875 0-10.644531-4.761719-10.644531-10.648437v-42.582032c0-5.886718 4.769531-10.644531 10.644531-10.644531 5.878907 0 10.648438 4.757813 10.648438 10.644531v42.582032c0 5.886718-4.769531 10.648437-10.648438 10.648437zm0 0"/><path d="m334.414062 340.671875c-2.019531 0-4.078124-.585937-5.898437-1.789063l-31.9375-21.289062c-4.886719-3.273438-6.207031-9.871094-2.945313-14.769531 3.253907-4.894531 9.867188-6.207031 14.765626-2.945313l31.933593 21.289063c4.886719 3.265625 6.207031 9.871093 2.949219 14.765625-2.050781 3.078125-5.429688 4.738281-8.867188 4.738281zm0 0"/><path d="m100.230469 340.671875c-3.441407 0-6.8125-1.660156-8.871094-4.738281-3.253906-4.894532-1.933594-11.5 2.949219-14.765625l31.941406-21.289063c4.886719-3.261718 11.496094-1.949218 14.765625 2.945313 3.253906 4.898437 1.933594 11.496093-2.949219 14.769531l-31.941406 21.289062c-1.816406 1.203126-3.871094 1.789063-5.894531 1.789063zm0 0"/></svg>