<svg height="681pt" viewBox="-117 -21 681 681.33176" width="681pt" xmlns="http://www.w3.org/2000/svg"><path d="m430.234375 638.75h-425.828125c-5.878906 0-10.644531-4.757812-10.644531-10.644531v-617.453125c0-5.886719 4.765625-10.64843775 10.644531-10.64843775h330.019531c2.816407 0 5.53125 1.12109375 7.523438 3.12109375l95.808593 95.8125c2.003907 1.988281 3.121094 4.691406 3.121094 7.523438v521.644531c0 5.875-4.765625 10.644531-10.644531 10.644531zm-415.179687-21.292969h404.53125v-506.585937l-89.570313-89.574219h-314.960937zm0 0"/><path d="m430.234375 117.109375h-95.808594c-5.878906 0-10.648437-4.761719-10.648437-10.648437v-95.808594c0-4.304688 2.597656-8.195313 6.570312-9.839844 3.96875-1.65625 8.554688-.7304688 11.601563 2.3125l95.808593 95.8125c3.046876 3.046875 3.964844 7.621094 2.3125 11.601562-1.648437 3.984376-5.523437 6.570313-9.835937 6.570313zm-85.164063-21.289063h59.46875l-59.46875-59.472656zm0 0"/><path d="m430.234375 638.75h-425.828125c-5.878906 0-10.644531-4.757812-10.644531-10.644531v-191.625c0-5.886719 4.765625-10.648438 10.644531-10.648438h425.828125c5.878906 0 10.644531 4.761719 10.644531 10.648438v191.625c0 5.875-4.765625 10.644531-10.644531 10.644531zm-415.179687-21.292969h404.53125v-170.332031h-404.53125zm0 0"/><path d="m249.257812 596.164062c-3.671874 0-7.175781-1.902343-9.125-5.160156l-44.105468-73.507812v68.027344c0 5.886718-4.769532 10.640624-10.640625 10.640624-5.878907 0-10.648438-4.753906-10.648438-10.640624v-106.457032c0-4.78125 3.191407-8.988281 7.800781-10.265625 4.621094-1.265625 9.507813.671875 11.96875 4.78125l44.101563 73.496094v-68.023437c0-5.886719 4.773437-10.648438 10.648437-10.648438s10.644532 4.761719 10.644532 10.648438v106.457031c0 4.777343-3.191406 8.980469-7.800782 10.257812-.953124.269531-1.898437.394531-2.84375.394531zm0 0"/><path d="m132.152344 489.707031h-63.871094c-5.878906 0-10.644531-4.753906-10.644531-10.640625 0-5.886718 4.765625-10.648437 10.644531-10.648437h63.871094c5.878906 0 10.648437 4.761719 10.648437 10.648437 0 5.886719-4.769531 10.640625-10.648437 10.640625zm0 0"/><path d="m132.152344 596.164062h-63.871094c-5.878906 0-10.644531-4.753906-10.644531-10.640624 0-5.886719 4.765625-10.648438 10.644531-10.648438h63.871094c5.878906 0 10.648437 4.761719 10.648437 10.648438 0 5.886718-4.769531 10.640624-10.648437 10.640624zm0 0"/><path d="m100.21875 596.164062c-5.875 0-10.648438-4.753906-10.648438-10.640624v-106.457032c0-5.886718 4.773438-10.648437 10.648438-10.648437 5.871094 0 10.644531 4.761719 10.644531 10.648437v106.457032c0 5.875-4.773437 10.640624-10.644531 10.640624zm0 0"/><path d="m366.359375 489.707031h-63.875c-5.875 0-10.640625-4.753906-10.640625-10.640625 0-5.886718 4.765625-10.648437 10.640625-10.648437h63.875c5.878906 0 10.644531 4.761719 10.644531 10.648437 0 5.886719-4.765625 10.640625-10.644531 10.640625zm0 0"/><path d="m366.359375 596.164062h-63.875c-5.875 0-10.640625-4.753906-10.640625-10.640624 0-5.886719 4.765625-10.648438 10.640625-10.648438h63.875c5.878906 0 10.644531 4.761719 10.644531 10.648438 0 5.886718-4.765625 10.640624-10.644531 10.640624zm0 0"/><path d="m334.425781 596.164062c-5.878906 0-10.648437-4.753906-10.648437-10.640624v-106.457032c0-5.886718 4.769531-10.648437 10.648437-10.648437 5.871094 0 10.644531 4.761719 10.644531 10.648437v106.457032c0 5.875-4.773437 10.640624-10.644531 10.640624zm0 0"/><path d="m313.132812 383.25h-191.621093c-5.878907 0-10.648438-4.753906-10.648438-10.640625v-234.207031c0-5.886719 4.769531-10.648438 10.648438-10.648438h127.746093c2.820313 0 5.53125 1.121094 7.527344 3.117188l63.875 63.875c2 1.992187 3.117188 4.699218 3.117188 7.53125v170.332031c0 5.875-4.769532 10.640625-10.644532 10.640625zm-180.980468-21.289062h170.332031v-155.28125l-57.636719-57.636719h-112.695312zm0 0"/><path d="m313.132812 212.917969h-63.875c-5.875 0-10.648437-4.753907-10.648437-10.640625v-63.875c0-4.304688 2.597656-8.199219 6.570313-9.839844 3.980468-1.671875 8.558593-.730469 11.605468 2.308594l63.875 63.875c3.042969 3.046875 3.960938 7.621094 2.308594 11.605468-1.652344 3.980469-5.527344 6.566407-9.835938 6.566407zm-53.230468-21.289063h27.53125l-27.53125-27.53125zm0 0"/><path d="m249.257812 298.085938h-63.871093c-5.878907 0-10.648438-4.757813-10.648438-10.644532 0-5.886718 4.769531-10.648437 10.648438-10.648437h63.871093c5.875 0 10.644532 4.761719 10.644532 10.648437 0 5.886719-4.769532 10.644532-10.644532 10.644532zm0 0"/><path d="m249.257812 255.503906h-63.871093c-5.878907 0-10.648438-4.757812-10.648438-10.644531s4.769531-10.648437 10.648438-10.648437h63.871093c5.875 0 10.644532 4.761718 10.644532 10.648437s-4.769532 10.644531-10.644532 10.644531zm0 0"/><path d="m249.257812 340.667969h-63.871093c-5.878907 0-10.648438-4.757813-10.648438-10.644531 0-5.886719 4.769531-10.648438 10.648438-10.648438h63.871093c5.875 0 10.644532 4.761719 10.644532 10.648438 0 5.886718-4.769532 10.644531-10.644532 10.644531zm0 0"/></svg>