<svg height="681pt" viewBox="-117 -21 681 681.33176" width="681pt" xmlns="http://www.w3.org/2000/svg"><path d="m430.234375 638.75h-425.828125c-5.878906 0-10.644531-4.757812-10.644531-10.644531v-617.453125c0-5.886719 4.765625-10.64843775 10.644531-10.64843775h330.019531c2.816407 0 5.53125 1.12109375 7.523438 3.12109375l95.808593 95.8125c2.003907 1.988281 3.121094 4.691406 3.121094 7.523438v521.644531c0 5.875-4.765625 10.644531-10.644531 10.644531zm-415.179687-21.292969h404.53125v-506.585937l-89.570313-89.574219h-314.960937zm0 0"/><path d="m430.234375 117.109375h-95.808594c-5.878906 0-10.648437-4.761719-10.648437-10.648437v-95.808594c0-4.304688 2.597656-8.195313 6.570312-9.839844 3.980469-1.65625 8.554688-.7304688 11.601563 2.3125l95.808593 95.8125c3.046876 3.046875 3.964844 7.621094 2.3125 11.601562-1.648437 3.984376-5.523437 6.570313-9.835937 6.570313zm-85.164063-21.289063h59.46875l-59.46875-59.472656zm0 0"/><path d="m430.234375 638.75h-425.828125c-5.878906 0-10.644531-4.757812-10.644531-10.644531v-191.625c0-5.886719 4.765625-10.648438 10.644531-10.648438h425.828125c5.878906 0 10.644531 4.761719 10.644531 10.648438v191.625c0 5.875-4.765625 10.644531-10.644531 10.644531zm-415.179687-21.292969h404.53125v-170.332031h-404.53125zm0 0"/><path d="m249.257812 489.707031h-63.871093c-5.878907 0-10.648438-4.753906-10.648438-10.640625 0-5.886718 4.769531-10.648437 10.648438-10.648437h63.871093c5.875 0 10.644532 4.761719 10.644532 10.648437 0 5.886719-4.769532 10.640625-10.644532 10.640625zm0 0"/><path d="m217.320312 596.164062c-5.878906 0-10.644531-4.753906-10.644531-10.640624v-106.457032c0-5.886718 4.765625-10.648437 10.644531-10.648437 5.875 0 10.648438 4.761719 10.648438 10.648437v106.457032c0 5.875-4.773438 10.640624-10.648438 10.640624zm0 0"/><path d="m366.359375 489.707031h-63.875c-5.875 0-10.640625-4.753906-10.640625-10.640625 0-5.886718 4.765625-10.648437 10.640625-10.648437h63.875c5.878906 0 10.644531 4.761719 10.644531 10.648437 0 5.886719-4.765625 10.640625-10.644531 10.640625zm0 0"/><path d="m366.359375 542.9375h-63.875c-5.875 0-10.640625-4.757812-10.640625-10.644531 0-5.890625 4.765625-10.644531 10.640625-10.644531h63.875c5.878906 0 10.644531 4.753906 10.644531 10.644531 0 5.886719-4.765625 10.644531-10.644531 10.644531zm0 0"/><path d="m302.484375 596.164062c-5.875 0-10.640625-4.753906-10.640625-10.640624v-106.457032c0-5.886718 4.765625-10.648437 10.640625-10.648437 5.878906 0 10.648437 4.761719 10.648437 10.648437v106.457032c0 5.875-4.769531 10.640624-10.648437 10.640624zm0 0"/><path d="m132.152344 489.707031h-63.871094c-5.878906 0-10.644531-4.753906-10.644531-10.640625 0-5.886718 4.765625-10.648437 10.644531-10.648437h63.871094c5.878906 0 10.648437 4.761719 10.648437 10.648437 0 5.886719-4.769531 10.640625-10.648437 10.640625zm0 0"/><path d="m100.21875 596.164062c-5.875 0-10.648438-4.753906-10.648438-10.640624v-106.457032c0-5.886718 4.773438-10.648437 10.648438-10.648437 5.871094 0 10.644531 4.761719 10.644531 10.648437v106.457032c0 5.875-4.773437 10.640624-10.644531 10.640624zm0 0"/><path d="m249.257812 266.148438h-63.871093c-3.34375 0-6.488281-1.5625-8.5-4.222657-2.011719-2.675781-2.660157-6.125-1.734375-9.339843l21.289062-74.519532c1.3125-4.578125 5.484375-7.730468 10.234375-7.730468h21.292969c4.753906 0 8.925781 3.152343 10.226562 7.730468l21.292969 74.519532c.917969 3.214843.277344 6.664062-1.734375 9.339843-2.011718 2.648438-5.15625 4.222657-8.496094 4.222657zm-49.757812-21.289063h35.652344l-15.214844-53.230469h-5.226562zm0 0"/><path d="m355.710938 393.898438h-85.160157c-4.582031 0-8.644531-2.929688-10.105469-7.28125l-10.644531-31.9375c-1.085937-3.246094-.542969-6.824219 1.457031-9.589844 2.003907-2.769532 5.21875-4.421875 8.636719-4.421875h5.5625l-12.773437-31.933594h-70.75l-12.777344 31.933594h5.582031c3.425781 0 6.632813 1.640625 8.632813 4.421875 2 2.777344 2.546875 6.351562 1.457031 9.589844l-10.648437 31.9375c-1.445313 4.34375-5.511719 7.28125-10.101563 7.28125h-85.152344c-3.429687 0-6.628906-1.640626-8.632812-4.417969-2.003907-2.78125-2.542969-6.355469-1.457031-9.59375l10.640624-31.9375c1.449219-4.351563 5.519532-7.28125 10.09375-7.28125h14.085938l12.777344-31.933594h-5.570313c-5.878906 0-10.644531-4.761719-10.644531-10.648437v-42.582032c0-5.890625 4.765625-10.644531 10.644531-10.644531h23.804688l29.796875-109.261719c1.265625-4.636718 5.472656-7.84375 10.273437-7.84375h85.164063c4.800781 0 9.007812 3.214844 10.273437 7.84375l29.796875 109.261719h23.804688c5.878906 0 10.648437 4.753906 10.648437 10.644531v42.582032c0 5.886718-4.769531 10.648437-10.648437 10.648437h-5.566406l12.773437 31.933594h14.085937c4.574219 0 8.644532 2.929687 10.101563 7.28125l10.648437 31.9375c1.082032 3.246093.539063 6.824219-1.464843 9.59375-1.996094 2.765625-5.210938 4.417969-8.644531 4.417969zm-77.484376-21.289063h62.722657l-3.546875-10.648437h-13.625c-4.351563 0-8.269532-2.652344-9.878906-6.699219l-21.289063-53.222657c-1.3125-3.28125-.917969-6.996093 1.0625-9.925781 1.980469-2.925781 5.28125-4.671875 8.8125-4.671875h10.648437v-21.292968h-21.289062c-4.804688 0-9.011719-3.214844-10.277344-7.84375l-29.796875-109.261719h-68.910156l-29.800781 109.261719c-1.265625 4.640624-5.464844 7.84375-10.269532 7.84375h-21.292968v21.292968h10.648437c3.53125 0 6.832031 1.753906 8.816407 4.671875 1.976562 2.917969 2.382812 6.644531 1.0625 9.925781l-21.292969 53.222657c-1.617188 4.046875-5.535157 6.699219-9.878907 6.699219h-13.605468l-3.542969 10.648437h62.726563l3.542968-10.648437h-6.527344c-3.53125 0-6.832031-1.757813-8.816406-4.675782-1.976562-2.914062-2.382812-6.640625-1.0625-9.921875l21.292969-53.226562c1.617187-4.042969 5.535156-6.695313 9.878906-6.695313h85.164063c4.351562 0 8.269531 2.652344 9.878906 6.695313l21.292969 53.226562c1.308593 3.28125.914062 7-1.0625 9.921875-1.984375 2.929688-5.285157 4.675782-8.816407 4.675782h-6.527343zm0 0"/></svg>