<svg height="681pt" viewBox="-117 -21 681 681.33176" width="681pt" xmlns="http://www.w3.org/2000/svg"><path d="m430.234375 638.75h-425.828125c-5.878906 0-10.644531-4.757812-10.644531-10.644531v-617.453125c0-5.886719 4.765625-10.64843775 10.644531-10.64843775h330.019531c2.816407 0 5.53125 1.12109375 7.523438 3.12109375l95.808593 95.8125c2.003907 1.988281 3.121094 4.691406 3.121094 7.523438v521.644531c0 5.875-4.765625 10.644531-10.644531 10.644531zm-415.179687-21.292969h404.53125v-506.585937l-89.570313-89.574219h-314.960937zm0 0"/><path d="m430.234375 117.109375h-95.808594c-5.878906 0-10.648437-4.761719-10.648437-10.648437v-95.808594c0-4.304688 2.597656-8.195313 6.570312-9.839844 3.980469-1.65625 8.554688-.7304688 11.601563 2.3125l95.808593 95.8125c3.046876 3.046875 3.964844 7.621094 2.3125 11.601562-1.648437 3.984376-5.523437 6.570313-9.835937 6.570313zm-85.164063-21.289063h59.46875l-59.46875-59.472656zm0 0"/><path d="m430.234375 638.75h-425.828125c-5.878906 0-10.644531-4.757812-10.644531-10.644531v-191.625c0-5.886719 4.765625-10.648438 10.644531-10.648438h425.828125c5.878906 0 10.644531 4.761719 10.644531 10.648438v191.625c0 5.875-4.765625 10.644531-10.644531 10.644531zm-415.179687-21.292969h404.53125v-170.332031h-404.53125zm0 0"/><path d="m259.902344 234.210938h-85.164063c-5.878906 0-10.644531-4.757813-10.644531-10.644532v-63.875c0-5.886718 4.765625-10.648437 10.644531-10.648437h85.164063c5.878906 0 10.648437 4.761719 10.648437 10.648437v63.875c0 5.878906-4.769531 10.644532-10.648437 10.644532zm-74.515625-21.292969h63.871093v-42.582031h-63.871093zm0 0"/><path d="m334.425781 383.25h-234.207031c-5.875 0-10.648438-4.753906-10.648438-10.640625v-212.917969c0-5.886718 4.773438-10.648437 10.648438-10.648437h234.207031c5.871094 0 10.644531 4.761719 10.644531 10.648437v212.917969c0 5.875-4.773437 10.640625-10.644531 10.640625zm-223.5625-21.289062h212.914063v-191.625h-212.914063zm0 0"/><path d="m185.386719 340.667969h-42.585938c-5.875 0-10.648437-4.757813-10.648437-10.644531v-42.582032c0-5.886718 4.773437-10.648437 10.648437-10.648437s10.644531 4.761719 10.644531 10.648437v31.933594h31.941407c5.871093 0 10.640625 4.761719 10.640625 10.648438 0 5.886718-4.769532 10.644531-10.640625 10.644531zm0 0"/><path d="m291.84375 340.667969h-42.585938c-5.875 0-10.648437-4.757813-10.648437-10.644531 0-5.886719 4.773437-10.648438 10.648437-10.648438h31.9375v-31.933594c0-5.886718 4.769532-10.648437 10.648438-10.648437 5.871094 0 10.640625 4.761719 10.640625 10.648437v42.582032c0 5.878906-4.769531 10.644531-10.640625 10.644531zm0 0"/><path d="m68.28125 596.164062c-5.878906 0-10.644531-4.753906-10.644531-10.640624v-106.457032c0-5.886718 4.765625-10.648437 10.644531-10.648437 5.875 0 10.644531 4.761719 10.644531 10.648437v106.457032c0 5.875-4.769531 10.640624-10.644531 10.640624zm0 0"/><path d="m100.21875 553.582031h-31.9375c-5.878906 0-10.644531-4.753906-10.644531-10.644531v-63.871094c0-5.886718 4.765625-10.648437 10.644531-10.648437h31.9375c23.484375 0 42.582031 19.097656 42.582031 42.582031s-19.097656 42.582031-42.582031 42.582031zm-21.292969-21.289062h21.292969c11.742188 0 21.292969-9.546875 21.292969-21.292969 0-11.738281-9.550781-21.292969-21.292969-21.292969h-21.292969zm0 0"/><path d="m185.386719 596.164062c-5.878907 0-10.648438-4.753906-10.648438-10.640624v-106.457032c0-5.886718 4.769531-10.648437 10.648438-10.648437 5.871093 0 10.640625 4.761719 10.640625 10.648437v106.457032c0 5.875-4.769532 10.640624-10.640625 10.640624zm0 0"/><path d="m185.386719 542.9375c-3.046875 0-6.082031-1.300781-8.1875-3.824219-3.773438-4.523437-3.15625-11.238281 1.359375-14.996093l63.875-53.230469c4.511718-3.757813 11.222656-3.160157 14.988281 1.367187 3.765625 4.519532 3.152344 11.234375-1.363281 15l-63.875 53.222656c-1.980469 1.644532-4.394532 2.460938-6.796875 2.460938zm0 0"/><path d="m249.257812 596.164062c-2.40625 0-4.824218-.808593-6.816406-2.453124l-63.875-53.234376c-4.511718-3.765624-5.125-10.472656-1.359375-15 3.769531-4.511718 10.472657-5.097656 14.992188-1.359374l63.875 53.226562c4.511719 3.769531 5.128906 10.480469 1.359375 15-2.097656 2.527344-5.132813 3.820312-8.175782 3.820312zm0 0"/><path d="m345.023438 596.164062h-21.164063c-17.660156 0-32.03125-14.371093-32.03125-32.03125v-63.683593c0-17.660157 14.371094-32.03125 32.03125-32.03125h42.5c5.878906 0 10.644531 4.761719 10.644531 10.648437 0 5.886719-4.765625 10.640625-10.644531 10.640625h-42.484375c-5.921875 0-10.742188 4.816407-10.742188 10.742188v63.683593c0 5.929688 4.8125 10.742188 10.742188 10.742188h21.160156c5.886719 0 10.691406-4.792969 10.691406-10.6875v-31.894531c0-5.890625 4.765626-10.644531 10.644532-10.644531 5.875 0 10.648437 4.753906 10.648437 10.644531v31.894531c-.015625 17.632812-14.351562 31.976562-31.996093 31.976562zm0 0"/><path d="m366.359375 542.9375h-21.289063c-5.878906 0-10.644531-4.757812-10.644531-10.644531 0-5.890625 4.765625-10.644531 10.644531-10.644531h21.289063c5.878906 0 10.644531 4.753906 10.644531 10.644531 0 5.886719-4.765625 10.644531-10.644531 10.644531zm0 0"/></svg>