<svg height="681pt" viewBox="-117 -21 681 681.33176" width="681pt" xmlns="http://www.w3.org/2000/svg"><path d="m430.234375 638.75h-425.828125c-5.878906 0-10.644531-4.757812-10.644531-10.644531v-617.453125c0-5.886719 4.765625-10.64843775 10.644531-10.64843775h330.019531c2.816407 0 5.53125 1.12109375 7.523438 3.12109375l95.808593 95.8125c2.003907 1.988281 3.121094 4.691406 3.121094 7.523438v521.644531c0 5.875-4.765625 10.644531-10.644531 10.644531zm-415.179687-21.292969h404.53125v-506.585937l-89.570313-89.574219h-314.960937zm0 0"/><path d="m430.234375 117.109375h-95.808594c-5.878906 0-10.648437-4.761719-10.648437-10.648437v-95.808594c0-4.304688 2.597656-8.195313 6.570312-9.839844 3.96875-1.65625 8.554688-.7304688 11.601563 2.3125l95.808593 95.8125c3.046876 3.046875 3.964844 7.621094 2.3125 11.601562-1.648437 3.984376-5.523437 6.570313-9.835937 6.570313zm-85.164063-21.289063h59.46875l-59.46875-59.472656zm0 0"/><path d="m430.234375 638.75h-425.828125c-5.878906 0-10.644531-4.757812-10.644531-10.644531v-191.625c0-5.886719 4.765625-10.648438 10.644531-10.648438h425.828125c5.878906 0 10.644531 4.761719 10.644531 10.648438v191.625c0 5.875-4.765625 10.644531-10.644531 10.644531zm-415.179687-21.292969h404.53125v-170.332031h-404.53125zm0 0"/><path d="m366.359375 596.164062c-5.875 0-10.648437-4.753906-10.648437-10.640624v-66.367188l-22.695313 39.710938c-3.789063 6.628906-14.6875 6.628906-18.476563 0l-22.695312-39.722657v66.367188c0 5.886719-4.773438 10.644531-10.648438 10.644531-5.878906 0-10.644531-4.757812-10.644531-10.644531v-106.457031c0-4.824219 3.246094-9.058594 7.910157-10.296876 4.660156-1.242187 9.582031.808594 11.972656 5.015626l33.34375 58.347656 33.34375-58.339844c2.390625-4.203125 7.3125-6.257812 11.972656-5.011719 4.664062 1.234375 7.910156 5.472657 7.910156 10.296875v106.457032c0 5.875-4.765625 10.640624-10.644531 10.640624zm0 0"/><path d="m217.320312 596.164062h-21.292968c-17.605469 0-31.933594-14.324218-31.933594-31.933593v-63.875c0-17.605469 14.316406-31.9375 31.933594-31.9375h21.292968c17.605469 0 31.9375 14.332031 31.9375 31.9375v63.875c0 17.609375-14.320312 31.933593-31.9375 31.933593zm-21.292968-106.457031c-5.867188 0-10.640625 4.773438-10.640625 10.648438v63.875c0 5.878906 4.765625 10.644531 10.640625 10.644531h21.292968c5.867188 0 10.648438-4.765625 10.648438-10.644531v-63.875c0-5.875-4.773438-10.648438-10.648438-10.648438zm0 0"/><path d="m132.152344 596.164062h-42.484375c-17.660157 0-32.03125-14.371093-32.03125-32.03125v-63.683593c0-17.660157 14.371093-32.03125 32.03125-32.03125h42.484375c5.878906 0 10.648437 4.761719 10.648437 10.648437 0 5.886719-4.769531 10.640625-10.648437 10.640625h-42.484375c-5.929688 0-10.742188 4.816407-10.742188 10.730469v63.6875c0 5.929688 4.8125 10.738281 10.742188 10.738281h42.484375c5.878906 0 10.648437 4.761719 10.648437 10.648438s-4.769531 10.652343-10.648437 10.652343zm0 0"/><path d="m323.785156 330.023438h-212.933594c-17.605468 0-31.925781-14.332032-31.925781-31.929688v-117.109375c0-17.597656 14.320313-31.925781 31.925781-31.925781h212.933594c17.609375 0 31.925782 14.328125 31.925782 31.925781v117.109375c0 17.597656-14.316407 31.929688-31.925782 31.929688zm-212.933594-159.671876c-5.867187 0-10.632812 4.765626-10.632812 10.632813v117.109375c0 5.867188 4.765625 10.640625 10.632812 10.640625h212.933594c5.871094 0 10.640625-4.773437 10.640625-10.640625v-117.109375c0-5.867187-4.769531-10.632813-10.640625-10.632813zm0 0"/><path d="m323.785156 330.023438h-212.933594c-17.605468 0-31.925781-14.332032-31.925781-31.929688v-21.300781c0-5.886719 4.769531-10.644531 10.644531-10.644531h255.5c5.875 0 10.640626 4.757812 10.640626 10.644531v21.300781c0 17.597656-14.316407 31.929688-31.925782 31.929688zm-223.566406-42.582032v10.652344c0 5.867188 4.765625 10.640625 10.632812 10.640625h212.933594c5.871094 0 10.640625-4.773437 10.640625-10.640625v-10.652344zm0 0"/><path d="m249.257812 393.898438h-63.871093c-5.878907 0-10.648438-4.761719-10.648438-10.648438v-63.875c0-5.886719 4.769531-10.640625 10.648438-10.640625h63.871093c5.875 0 10.644532 4.753906 10.644532 10.640625v63.875c0 5.878906-4.769532 10.648438-10.644532 10.648438zm-53.230468-21.289063h42.582031v-42.585937h-42.582031zm0 0"/><path d="m281.195312 393.898438h-127.75c-5.878906 0-10.644531-4.761719-10.644531-10.648438s4.765625-10.640625 10.644531-10.640625h127.75c5.875 0 10.648438 4.753906 10.648438 10.640625s-4.773438 10.648438-10.648438 10.648438zm0 0"/></svg>