<svg height="681pt" viewBox="-117 -21 681 681.33176" width="681pt" xmlns="http://www.w3.org/2000/svg"><path d="m430.234375 638.75h-425.828125c-5.878906 0-10.644531-4.757812-10.644531-10.644531v-617.453125c0-5.886719 4.765625-10.64843775 10.644531-10.64843775h330.019531c2.816407 0 5.53125 1.12109375 7.523438 3.12109375l95.808593 95.8125c2.003907 1.988281 3.121094 4.691406 3.121094 7.523438v521.644531c0 5.875-4.765625 10.644531-10.644531 10.644531zm-415.179687-21.292969h404.53125v-506.585937l-89.570313-89.574219h-314.960937zm0 0"/><path d="m430.234375 117.109375h-95.808594c-5.878906 0-10.648437-4.761719-10.648437-10.648437v-95.808594c0-4.304688 2.597656-8.195313 6.570312-9.839844 3.96875-1.65625 8.554688-.7304688 11.601563 2.3125l95.808593 95.8125c3.046876 3.046875 3.964844 7.621094 2.3125 11.601562-1.648437 3.984376-5.523437 6.570313-9.835937 6.570313zm-85.164063-21.289063h59.46875l-59.46875-59.472656zm0 0"/><path d="m430.234375 638.75h-425.828125c-5.878906 0-10.644531-4.757812-10.644531-10.644531v-191.625c0-5.886719 4.765625-10.648438 10.644531-10.648438h425.828125c5.878906 0 10.644531 4.761719 10.644531 10.648438v191.625c0 5.875-4.765625 10.644531-10.644531 10.644531zm-415.179687-21.292969h404.53125v-170.332031h-404.53125zm0 0"/><path d="m238.609375 202.277344h-42.582031c-5.875 0-10.640625-4.761719-10.640625-10.648438v-42.585937c0-5.886719 4.765625-10.640625 10.640625-10.640625h42.582031c5.878906 0 10.648437 4.753906 10.648437 10.640625v42.585937c0 5.875-4.769531 10.648438-10.648437 10.648438zm-31.933594-21.292969h21.292969v-21.292969h-21.292969zm0 0"/><path d="m238.609375 383.25h-42.582031c-5.875 0-10.640625-4.753906-10.640625-10.640625v-127.75c0-5.886719 4.765625-10.648437 10.640625-10.648437h42.582031c5.878906 0 10.648437 4.761718 10.648437 10.648437v127.75c0 5.875-4.769531 10.640625-10.648437 10.640625zm-31.933594-21.289062h21.292969v-106.457032h-21.292969zm0 0"/><path d="m345.070312 596.164062h-21.292968c-17.605469 0-31.933594-14.324218-31.933594-31.933593v-63.875c0-17.605469 14.316406-31.9375 31.933594-31.9375h21.292968c17.605469 0 31.933594 14.332031 31.933594 31.9375v63.875c0 17.609375-14.316406 31.933593-31.933594 31.933593zm-21.292968-106.457031c-5.867188 0-10.644532 4.773438-10.644532 10.648438v63.875c0 5.878906 4.765626 10.644531 10.644532 10.644531h21.292968c5.867188 0 10.640626-4.765625 10.640626-10.644531v-63.875c0-5.875-4.765626-10.648438-10.640626-10.648438zm0 0"/><path d="m132.152344 596.164062c-3.671875 0-7.171875-1.902343-9.121094-5.160156l-44.105469-73.507812v68.027344c0 5.886718-4.769531 10.640624-10.644531 10.640624-5.878906 0-10.644531-4.753906-10.644531-10.640624v-106.457032c0-4.78125 3.191406-8.988281 7.800781-10.265625 4.621094-1.265625 9.507812.671875 11.964844 4.78125l44.109375 73.496094v-68.023437c0-5.886719 4.765625-10.648438 10.640625-10.648438 5.878906 0 10.648437 4.761719 10.648437 10.648438v106.457031c0 4.777343-3.195312 8.980469-7.804687 10.257812-.945313.269531-1.898438.394531-2.84375.394531zm0 0"/><path d="m249.257812 489.707031h-63.871093c-5.878907 0-10.648438-4.753906-10.648438-10.640625 0-5.886718 4.769531-10.648437 10.648438-10.648437h63.871093c5.875 0 10.644532 4.761719 10.644532 10.648437 0 5.886719-4.769532 10.640625-10.644532 10.640625zm0 0"/><path d="m249.257812 542.9375h-63.871093c-5.878907 0-10.648438-4.757812-10.648438-10.644531 0-5.890625 4.769531-10.644531 10.648438-10.644531h63.871093c5.875 0 10.644532 4.753906 10.644532 10.644531 0 5.886719-4.769532 10.644531-10.644532 10.644531zm0 0"/><path d="m185.386719 596.164062c-5.878907 0-10.648438-4.753906-10.648438-10.640624v-106.457032c0-5.886718 4.769531-10.648437 10.648438-10.648437 5.871093 0 10.640625 4.761719 10.640625 10.648437v106.457032c0 5.875-4.769532 10.640624-10.640625 10.640624zm0 0"/></svg>