<svg height="681pt" viewBox="-117 -21 681 681.335" width="681pt" xmlns="http://www.w3.org/2000/svg"><path d="m430.234375 638.75h-425.828125c-5.875 0-10.644531-4.757812-10.644531-10.648438v-617.449218c0-5.886719 4.769531-10.6406252 10.644531-10.6406252h330.019531c2.820313 0 5.535157 1.1132812 7.523438 3.1171872l95.816406 95.808594c1.996094 1.992188 3.117187 4.699219 3.117187 7.527344v521.636718c0 5.890626-4.769531 10.648438-10.648437 10.648438zm-415.179687-21.289062h404.535156v-506.589844l-89.574219-89.570313h-314.960937zm0 0"/><path d="m430.234375 117.109375h-95.808594c-5.878906 0-10.648437-4.753906-10.648437-10.644531v-95.8125c0-4.296875 2.597656-8.195313 6.570312-9.832032 3.980469-1.664062 8.554688-.7460932 11.601563 2.308594l95.816406 95.808594c3.039063 3.046875 3.957031 7.621094 2.308594 11.601562-1.652344 3.984376-5.535157 6.570313-9.839844 6.570313zm-85.164063-21.289063h59.46875l-59.46875-59.464843zm0 0"/><path d="m430.234375 638.75h-425.828125c-5.875 0-10.644531-4.757812-10.644531-10.648438v-191.621093c0-5.886719 4.769531-10.644531 10.644531-10.644531h425.828125c5.878906 0 10.648437 4.757812 10.648437 10.644531v191.621093c0 5.890626-4.769531 10.648438-10.648437 10.648438zm-415.179687-21.289062h404.535156v-170.332032h-404.535156zm0 0"/><path d="m217.320312 351.316406c-46.957031 0-85.164062-38.207031-85.164062-85.167968 0-46.957032 38.207031-85.164063 85.164062-85.164063 46.960938 0 85.164063 38.207031 85.164063 85.164063 0 46.960937-38.203125 85.167968-85.164063 85.167968zm0-149.039062c-35.214843 0-63.875 28.648437-63.875 63.871094 0 35.230468 28.660157 63.875 63.875 63.875 35.230469 0 63.875-28.644532 63.875-63.875 0-35.222657-28.644531-63.871094-63.875-63.871094zm0 0"/><path d="m196.027344 308.734375c-1.804688 0-3.613282-.460937-5.246094-1.386719-3.328125-1.894531-5.394531-5.429687-5.394531-9.257812v-63.875c0-3.835938 2.066406-7.367188 5.394531-9.265625 3.332031-1.902344 7.429688-1.824219 10.71875.144531l53.234375 31.933594c3.210937 1.914062 5.167969 5.375 5.167969 9.121094 0 3.75-1.957032 7.207031-5.160156 9.125l-53.230469 31.9375c-1.691407 1.011718-3.585938 1.523437-5.484375 1.523437zm10.648437-55.71875v26.261719l21.886719-13.128906zm0 0"/><path d="m313.132812 361.964844c-2.503906 0-5.011718-.875-7.035156-2.664063-4.410156-3.898437-4.835937-10.621093-.9375-15.03125 18.859375-21.390625 29.265625-49.117187 29.265625-78.121093 0-28.996094-10.40625-56.730469-29.277343-78.117188-3.894532-4.40625-3.472657-11.136719.9375-15.03125 4.40625-3.898438 11.148437-3.46875 15.019531.9375 22.324219 25.28125 34.613281 58.03125 34.613281 92.210938 0 34.1875-12.289062 66.929687-34.601562 92.214843-2.105469 2.386719-5.042969 3.601563-7.984376 3.601563zm0 0"/><path d="m355.707031 383.253906c-2.121093 0-4.257812-.636718-6.136719-1.949218-4.796874-3.394532-5.949218-10.039063-2.550781-14.847657 19.339844-27.382812 29.988281-63.003906 29.988281-100.308593 0-37.296876-10.648437-72.933594-29.988281-100.308594-3.386719-4.800782-2.246093-11.449219 2.550781-14.855469 4.816407-3.371094 11.449219-2.230469 14.839844 2.558594 21.859375 30.953125 33.890625 70.949219 33.890625 112.605469s-12.03125 81.652343-33.890625 112.601562c-2.074218 2.925781-5.363281 4.503906-8.703125 4.503906zm0 0"/><path d="m121.511719 361.964844c-2.949219 0-5.878907-1.214844-7.988281-3.601563-22.308594-25.285156-34.59375-58.027343-34.59375-92.214843 0-34.179688 12.285156-66.929688 34.59375-92.210938 3.898437-4.40625 10.628906-4.820312 15.023437-.9375 4.40625 3.894531 4.835937 10.625.9375 15.03125-18.863281 21.386719-29.265625 49.132812-29.265625 78.117188 0 28.992187 10.402344 56.730468 29.277344 78.121093 3.886718 4.410157 3.46875 11.132813-.9375 15.03125-2.023438 1.789063-4.535156 2.664063-7.046875 2.664063zm0 0"/><path d="m78.9375 383.253906c-3.34375 0-6.632812-1.5625-8.707031-4.503906-21.855469-30.957031-33.882813-70.945312-33.882813-112.601562s12.027344-81.640626 33.882813-112.597657c3.394531-4.789062 10.027343-5.9375 14.839843-2.550781 4.800782 3.390625 5.949219 10.039062 2.558594 14.847656-19.347656 27.367188-29.992187 63.003906-29.992187 100.300782 0 37.304687 10.644531 72.933593 29.992187 100.316406 3.390625 4.800781 2.242188 11.445312-2.558594 14.851562-1.863281 1.300782-4.011718 1.9375-6.132812 1.9375zm0 0"/><path d="m334.425781 596.167969c-4.355469 0-8.261719-2.648438-9.894531-6.695313l-42.582031-106.457031c-2.175781-5.460937.46875-11.65625 5.933593-13.839844 5.480469-2.183593 11.65625.46875 13.839844 5.941407l32.703125 81.734374 32.691407-81.746093c2.183593-5.472657 8.355468-8.148438 13.839843-5.9375 5.460938 2.175781 8.113281 8.375 5.929688 13.832031l-42.582031 106.457031c-1.617188 4.0625-5.527344 6.710938-9.878907 6.710938zm0 0"/><path d="m249.261719 596.167969c-5.878907 0-10.648438-4.761719-10.648438-10.648438v-93.371093c0-1.351563-1.097656-2.4375-2.4375-2.4375h-37.703125c-1.347656 0-2.445312 1.097656-2.445312 2.4375v93.371093c0 5.886719-4.765625 10.648438-10.640625 10.648438-5.878907 0-10.648438-4.761719-10.648438-10.648438v-93.371093c0-13.085938 10.648438-23.726563 23.734375-23.726563h37.703125c13.085938 0 23.726563 10.640625 23.726563 23.726563v93.371093c0 5.886719-4.765625 10.648438-10.640625 10.648438zm0 0"/><path d="m249.261719 542.9375h-63.875c-5.878907 0-10.648438-4.757812-10.648438-10.644531s4.769531-10.648438 10.648438-10.648438h63.875c5.875 0 10.640625 4.761719 10.640625 10.648438s-4.765625 10.644531-10.640625 10.644531zm0 0"/><path d="m132.15625 596.167969c-4.207031 0-8.082031-2.488281-9.78125-6.453125l-22.15625-51.683594-22.152344 51.675781c-1.914062 4.457031-6.589844 7.074219-11.402344 6.332031-4.800781-.734374-8.496093-4.621093-8.972656-9.464843l-10.648437-106.457031c-.585938-5.855469 3.683593-11.066407 9.542969-11.65625 5.871093-.53125 11.066406 3.683593 11.65625 9.539062l6.535156 65.367188 15.667968-36.558594c1.671876-3.917969 5.515626-6.453125 9.773438-6.453125 4.261719 0 8.101562 2.535156 9.78125 6.453125l15.671875 36.558594 6.535156-65.367188c.585938-5.855469 5.847657-10.007812 11.660157-9.539062 5.855468.589843 10.117187 5.800781 9.539062 11.65625l-10.648438 106.457031c-.476562 4.832031-4.171874 8.722656-8.96875 9.464843-.558593.085938-1.097656.128907-1.632812.128907zm0 0"/></svg>