<svg height="681pt" viewBox="-117 -21 681 681.335" width="681pt" xmlns="http://www.w3.org/2000/svg"><path d="m430.234375 638.75h-425.828125c-5.875 0-10.644531-4.757812-10.644531-10.648438v-617.449218c0-5.886719 4.769531-10.6406252 10.644531-10.6406252h330.019531c2.820313 0 5.535157 1.1132812 7.523438 3.1171872l95.816406 95.808594c1.996094 1.992188 3.117187 4.699219 3.117187 7.527344v521.636718c0 5.890626-4.769531 10.648438-10.648437 10.648438zm-415.179687-21.289062h404.535156v-506.589844l-89.574219-89.570313h-314.960937zm0 0"/><path d="m430.234375 117.109375h-95.808594c-5.878906 0-10.648437-4.753906-10.648437-10.644531v-95.8125c0-4.296875 2.597656-8.195313 6.570312-9.832032 3.980469-1.664062 8.546875-.7460932 11.601563 2.308594l95.816406 95.808594c3.039063 3.046875 3.957031 7.621094 2.308594 11.601562-1.652344 3.984376-5.535157 6.570313-9.839844 6.570313zm-85.164063-21.289063h59.46875l-59.46875-59.464843zm0 0"/><path d="m259.902344 532.292969h-85.164063c-5.878906 0-10.644531-4.757813-10.644531-10.648438v-85.164062c0-5.886719 4.765625-10.644531 10.644531-10.644531h85.164063c5.878906 0 10.648437 4.757812 10.648437 10.644531v85.164062c0 5.890625-4.769531 10.648438-10.648437 10.648438zm-74.515625-21.289063h63.875v-63.875h-63.875zm0 0"/><path d="m217.320312 447.128906c-5.875 0-10.644531-4.761718-10.644531-10.648437v-244.847657c0-5.886718 4.769531-10.648437 10.644531-10.648437 5.878907 0 10.648438 4.761719 10.648438 10.648437v244.847657c0 5.886719-4.769531 10.648437-10.648438 10.648437zm0 0"/><path d="m217.320312 638.75c-5.875 0-10.644531-4.757812-10.644531-10.648438v-106.457031c0-5.886719 4.769531-10.640625 10.644531-10.640625 5.878907 0 10.648438 4.753906 10.648438 10.640625v106.457031c0 5.890626-4.769531 10.648438-10.648438 10.648438zm0 0"/><path d="m249.261719 393.898438h-63.875c-5.878907 0-10.648438-4.757813-10.648438-10.644532 0-5.886718 4.769531-10.648437 10.648438-10.648437h63.875c5.875 0 10.640625 4.761719 10.640625 10.648437 0 5.886719-4.765625 10.644532-10.640625 10.644532zm0 0"/><path d="m249.261719 340.671875h-63.875c-5.878907 0-10.648438-4.761719-10.648438-10.648437 0-5.886719 4.769531-10.644532 10.648438-10.644532h63.875c5.875 0 10.640625 4.757813 10.640625 10.644532 0 5.886718-4.765625 10.648437-10.640625 10.648437zm0 0"/><path d="m249.261719 287.441406h-63.875c-5.878907 0-10.648438-4.757812-10.648438-10.644531s4.769531-10.648437 10.648438-10.648437h63.875c5.875 0 10.640625 4.761718 10.640625 10.648437s-4.765625 10.644531-10.640625 10.644531zm0 0"/><path d="m249.261719 234.214844h-63.875c-5.878907 0-10.648438-4.761719-10.648438-10.648438 0-5.886718 4.769531-10.644531 10.648438-10.644531h63.875c5.875 0 10.640625 4.757813 10.640625 10.644531 0 5.886719-4.765625 10.648438-10.640625 10.648438zm0 0"/><path d="m259.902344 489.710938h-85.164063c-5.878906 0-10.644531-4.761719-10.644531-10.648438v-42.582031c0-5.886719 4.765625-10.644531 10.644531-10.644531h85.164063c5.878906 0 10.648437 4.757812 10.648437 10.644531v42.582031c0 5.886719-4.769531 10.648438-10.648437 10.648438zm-74.515625-21.289063h63.875v-21.292969h-63.875zm0 0"/></svg>