<svg height="681pt" viewBox="-117 -21 681 681.335" width="681pt" xmlns="http://www.w3.org/2000/svg"><path d="m430.234375 638.75h-425.828125c-5.875 0-10.644531-4.757812-10.644531-10.648438v-617.449218c0-5.886719 4.769531-10.6406252 10.644531-10.6406252h330.019531c2.820313 0 5.535157 1.1132812 7.523438 3.1171872l95.816406 95.808594c1.996094 2.003906 3.117187 4.699219 3.117187 7.527344v521.636718c0 5.890626-4.769531 10.648438-10.648437 10.648438zm-415.179687-21.289062h404.535156v-506.589844l-89.574219-89.570313h-314.960937zm0 0"/><path d="m430.234375 117.109375h-95.808594c-5.878906 0-10.648437-4.753906-10.648437-10.644531v-95.8125c0-4.296875 2.597656-8.195313 6.570312-9.832032 3.980469-1.664062 8.546875-.7460932 11.601563 2.308594l95.816406 95.808594c3.039063 3.046875 3.957031 7.621094 2.308594 11.601562-1.652344 3.984376-5.535157 6.570313-9.839844 6.570313zm-85.164063-21.289063h59.46875l-59.46875-59.464843zm0 0"/><path d="m430.234375 638.75h-425.828125c-5.875 0-10.644531-4.757812-10.644531-10.648438v-191.621093c0-5.886719 4.769531-10.644531 10.644531-10.644531h425.828125c5.878906 0 10.648437 4.757812 10.648437 10.644531v191.621093c0 5.890626-4.769531 10.648438-10.648437 10.648438zm-415.179687-21.289062h404.535156v-170.332032h-404.535156zm0 0"/><path d="m100.21875 574.878906c-23.484375 0-42.582031-19.101562-42.582031-42.585937s19.097656-42.582031 42.582031-42.582031 42.585938 19.097656 42.585938 42.582031-19.109376 42.585937-42.585938 42.585937zm0-63.875c-11.742188 0-21.289062 9.546875-21.289062 21.289063 0 11.742187 9.546874 21.292969 21.289062 21.292969s21.292969-9.550782 21.292969-21.292969c0-11.742188-9.550781-21.289063-21.292969-21.289063zm0 0"/><path d="m334.425781 574.878906c-23.484375 0-42.582031-19.101562-42.582031-42.585937s19.097656-42.582031 42.582031-42.582031 42.582031 19.097656 42.582031 42.582031-19.109374 42.585937-42.582031 42.585937zm0-63.875c-11.746093 0-21.292969 9.546875-21.292969 21.289063 0 11.742187 9.546876 21.292969 21.292969 21.292969 11.738281 0 21.292969-9.550782 21.292969-21.292969 0-11.742188-9.554688-21.289063-21.292969-21.289063zm0 0"/><path d="m217.320312 574.878906c-23.484374 0-42.582031-19.101562-42.582031-42.585937s19.097657-42.582031 42.582031-42.582031c23.484376 0 42.582032 19.097656 42.582032 42.582031s-19.105469 42.585937-42.582032 42.585937zm0-63.875c-11.738281 0-21.292968 9.546875-21.292968 21.289063 0 11.742187 9.554687 21.292969 21.292968 21.292969 11.746094 0 21.292969-9.550782 21.292969-21.292969 0-11.742188-9.546875-21.289063-21.292969-21.289063zm0 0"/></svg>