<svg height="682pt" viewBox="-117 -21 682 682.66784" width="682pt" xmlns="http://www.w3.org/2000/svg"><path d="m431.25 640h-426.664062c-5.886719 0-10.667969-4.777344-10.667969-10.667969v-618.664062c0-5.882813 4.78125-10.66406275 10.667969-10.66406275h330.667968c2.820313 0 5.539063 1.12109375 7.539063 3.12499975l96 96c2 2.003906 3.125 4.714844 3.125 7.539063v522.664062c0 5.890625-4.78125 10.667969-10.667969 10.667969zm-415.996094-21.332031h405.332032v-507.578125l-89.753907-89.75h-315.578125zm0 0"/><path d="m431.25 117.339844h-95.996094c-5.890625 0-10.671875-4.78125-10.671875-10.671875v-96c0-4.304688 2.605469-8.195313 6.582031-9.851563 3.980469-1.65625 8.574219-.7460935 11.628907 2.3125l96 96c3.050781 3.054688 3.964843 7.636719 2.3125 11.628906-1.652344 3.976563-5.546875 6.582032-9.855469 6.582032zm-85.332031-21.335938h59.582031l-59.582031-59.582031zm0 0"/><path d="m431.25 640h-426.664062c-5.886719 0-10.667969-4.777344-10.667969-10.667969v-191.996093c0-5.886719 4.78125-10.667969 10.667969-10.667969h426.664062c5.886719 0 10.667969 4.78125 10.667969 10.667969v191.996093c0 5.890625-4.78125 10.667969-10.667969 10.667969zm-415.996094-21.332031h405.332032v-170.667969h-405.332032zm0 0"/><path d="m153.917969 213.339844h-85.332031c-5.890626 0-10.664063-4.78125-10.664063-10.667969v-42.667969c0-5.886718 4.773437-10.667968 10.664063-10.667968h85.332031c5.886719 0 10.667969 4.78125 10.667969 10.667968v42.667969c0 5.886719-4.78125 10.667969-10.667969 10.667969zm-74.664063-21.339844h64v-21.332031h-64zm0 0"/><path d="m153.917969 256.003906h-85.332031c-5.890626 0-10.664063-4.78125-10.664063-10.667968v-42.664063c0-5.890625 4.773437-10.671875 10.664063-10.671875h85.332031c5.886719 0 10.667969 4.78125 10.667969 10.671875v42.664063c0 5.886718-4.78125 10.667968-10.667969 10.667968zm-74.664063-21.332031h64v-21.332031h-64zm0 0"/><path d="m367.25 256.003906h-213.332031c-5.886719 0-10.664063-4.78125-10.664063-10.667968v-42.664063c0-5.890625 4.777344-10.671875 10.664063-10.671875h213.332031c5.886719 0 10.667969 4.78125 10.667969 10.671875v42.664063c0 5.886718-4.78125 10.667968-10.667969 10.667968zm-202.664062-21.332031h192v-21.332031h-192zm0 0"/><path d="m153.917969 298.671875h-85.332031c-5.890626 0-10.664063-4.78125-10.664063-10.671875v-42.664062c0-5.890626 4.773437-10.664063 10.664063-10.664063h85.332031c5.886719 0 10.667969 4.773437 10.667969 10.664063v42.664062c0 5.890625-4.78125 10.671875-10.667969 10.671875zm-74.664063-21.335937h64v-21.332032h-64zm0 0"/><path d="m367.25 298.671875h-213.332031c-5.886719 0-10.664063-4.78125-10.664063-10.671875v-42.664062c0-5.890626 4.777344-10.664063 10.664063-10.664063h213.332031c5.886719 0 10.667969 4.773437 10.667969 10.664063v42.664062c0 5.890625-4.78125 10.671875-10.667969 10.671875zm-202.664062-21.335937h192v-21.332032h-192zm0 0"/><path d="m153.917969 341.335938h-85.332031c-5.890626 0-10.664063-4.78125-10.664063-10.667969v-42.667969c0-5.886719 4.773437-10.664062 10.664063-10.664062h85.332031c5.886719 0 10.667969 4.777343 10.667969 10.664062v42.667969c0 5.886719-4.78125 10.667969-10.667969 10.667969zm-74.664063-21.332032h64v-21.332031h-64zm0 0"/><path d="m367.25 341.335938h-213.332031c-5.886719 0-10.664063-4.78125-10.664063-10.667969v-42.667969c0-5.886719 4.777344-10.664062 10.664063-10.664062h213.332031c5.886719 0 10.667969 4.777343 10.667969 10.664062v42.667969c0 5.886719-4.78125 10.667969-10.667969 10.667969zm-202.664062-21.332032h192v-21.332031h-192zm0 0"/><path d="m153.917969 384h-85.332031c-5.890626 0-10.664063-4.777344-10.664063-10.660156v-42.671875c0-5.882813 4.773437-10.664063 10.664063-10.664063h85.332031c5.886719 0 10.667969 4.78125 10.667969 10.664063v42.671875c0 5.882812-4.78125 10.660156-10.667969 10.660156zm-74.664063-21.332031h64v-21.332031h-64zm0 0"/><path d="m367.25 384h-213.332031c-5.886719 0-10.664063-4.777344-10.664063-10.660156v-42.671875c0-5.882813 4.777344-10.664063 10.664063-10.664063h213.332031c5.886719 0 10.667969 4.78125 10.667969 10.664063v42.671875c0 5.882812-4.78125 10.660156-10.667969 10.660156zm-202.664062-21.332031h192v-21.332031h-192zm0 0"/><path d="m367.25 490.667969h-64c-5.886719 0-10.667969-4.777344-10.667969-10.664063 0-5.890625 4.78125-10.671875 10.667969-10.671875h64c5.886719 0 10.667969 4.78125 10.667969 10.671875 0 5.886719-4.78125 10.664063-10.667969 10.664063zm0 0"/><path d="m367.25 544h-64c-5.886719 0-10.667969-4.78125-10.667969-10.664062 0-5.886719 4.78125-10.667969 10.667969-10.667969h64c5.886719 0 10.667969 4.78125 10.667969 10.667969 0 5.882812-4.78125 10.664062-10.667969 10.664062zm0 0"/><path d="m303.25 597.335938c-5.886719 0-10.667969-4.78125-10.667969-10.667969v-106.664063c0-5.890625 4.78125-10.671875 10.667969-10.671875 5.890625 0 10.664062 4.78125 10.664062 10.671875v106.664063c0 5.886719-4.773437 10.667969-10.664062 10.667969zm0 0"/><path d="m79.253906 597.335938h-10.667968c-5.890626 0-10.664063-4.78125-10.664063-10.667969v-106.664063c0-5.890625 4.773437-10.671875 10.664063-10.671875h10.667968c35.292969 0 64 28.707031 64 64.003907 0 35.292968-28.707031 64-64 64zm0-21.332032h.105469zm0-85.335937v85.335937c23.53125 0 42.664063-19.136718 42.664063-42.667968 0-23.535157-19.132813-42.667969-42.664063-42.667969zm0 0"/><path d="m185.917969 597.335938c-5.890625 0-10.664063-4.78125-10.664063-10.667969v-106.664063c0-5.890625 4.773438-10.671875 10.664063-10.671875 5.886719 0 10.667969 4.78125 10.667969 10.671875v106.664063c0 5.886719-4.78125 10.667969-10.667969 10.667969zm0 0"/><path d="m223.25 544h-37.332031c-5.890625 0-10.664063-4.78125-10.664063-10.664062v-53.332032c0-5.890625 4.773438-10.671875 10.664063-10.671875h37.332031c20.585938 0 37.335938 16.75 37.335938 37.335938 0 20.585937-16.75 37.332031-37.335938 37.332031zm-26.664062-21.332031h26.664062c8.824219 0 16.003906-7.175781 16.003906-16 0-8.820313-7.179687-16-16.003906-16h-26.664062zm0 0"/><path d="m223.25 597.335938h-37.332031c-5.890625 0-10.664063-4.78125-10.664063-10.667969v-53.332031c0-5.886719 4.773438-10.667969 10.664063-10.667969h37.332031c20.585938 0 37.335938 16.746093 37.335938 37.332031s-16.75 37.335938-37.335938 37.335938zm-26.664062-21.332032h26.664062c8.824219 0 16.003906-7.179687 16.003906-16.003906 0-8.820312-7.179687-16-16.003906-16h-26.664062zm0 0"/></svg>