<?xml version="1.0" standalone="no"?>
<!DOCTYPE svg PUBLIC "-//W3C//DTD SVG 20010904//EN"
 "http://www.w3.org/TR/2001/REC-SVG-20010904/DTD/svg10.dtd">
<svg version="1.0" xmlns="http://www.w3.org/2000/svg"
 width="2477.000000pt" height="2477.000000pt" viewBox="0 0 2477.000000 2477.000000"
 preserveAspectRatio="xMidYMid meet">
<metadata>
Created by potrace 1.11, written by Peter Selinger 2001-2013
</metadata>
<g transform="translate(0.000000,2477.000000) scale(0.100000,-0.100000)"
fill="#000000" stroke="none">
<path d="M9773 19649 c-51 -15 -100 -71 -119 -136 -22 -75 -15 -192 14 -250
67 -129 225 -132 299 -5 24 41 28 60 31 149 4 102 4 102 25 88 12 -8 33 -15
48 -15 33 0 39 -14 39 -93 0 -72 -5 -83 -43 -92 -40 -10 -63 -49 -49 -81 17
-36 55 -46 163 -42 78 2 101 7 118 22 29 26 27 60 -6 85 -16 12 -34 26 -40 31
-9 8 -13 51 -13 150 0 127 -2 142 -20 160 -28 28 -76 25 -141 -7 -37 -20 -58
-38 -68 -60 l-14 -31 -31 46 c-48 72 -122 103 -193 81z m62 -138 c5 -9 -31
-41 -47 -41 -12 0 -9 25 4 38 14 14 35 16 43 3z m25 -175 c0 -20 -27 -39 -46
-32 -15 6 -15 8 1 26 21 23 45 26 45 6z"/>
<path d="M11133 19649 c-79 -23 -133 -121 -133 -241 0 -88 18 -145 59 -188 83
-87 196 -71 274 40 17 24 17 25 30 5 82 -130 230 -134 304 -7 24 41 28 60 31
149 4 102 4 102 25 88 12 -8 33 -15 48 -15 33 0 39 -14 39 -93 0 -72 -5 -83
-43 -92 -40 -10 -63 -49 -49 -81 17 -36 55 -46 163 -42 78 2 101 7 118 22 29
26 27 60 -6 85 -16 12 -34 26 -40 31 -9 8 -13 51 -13 150 0 127 -2 142 -20
160 -28 28 -76 25 -141 -7 -37 -20 -58 -38 -68 -60 l-14 -31 -31 46 c-39 59
-86 86 -146 86 -56 0 -110 -30 -140 -80 -12 -18 -25 -34 -28 -34 -4 1 -19 18
-34 40 -43 61 -117 89 -185 69z m62 -138 c5 -9 -31 -41 -47 -41 -12 0 -9 25 4
38 14 14 35 16 43 3z m340 0 c5 -9 -31 -41 -47 -41 -12 0 -9 25 4 38 14 14 35
16 43 3z m-315 -175 c0 -20 -27 -39 -46 -32 -15 6 -15 8 1 26 21 23 45 26 45
6z m340 0 c0 -20 -27 -39 -46 -32 -15 6 -15 8 1 26 21 23 45 26 45 6z"/>
<path d="M12493 19649 c-79 -23 -133 -121 -133 -241 0 -88 18 -145 59 -188 83
-87 205 -69 268 38 24 41 28 60 31 149 4 102 4 102 25 88 12 -8 33 -15 48 -15
33 0 39 -14 39 -93 0 -72 -5 -83 -43 -92 -40 -10 -63 -49 -49 -81 17 -36 55
-46 163 -42 78 2 101 7 118 22 29 26 27 60 -6 85 -16 12 -34 26 -40 31 -9 8
-13 51 -13 150 0 127 -2 142 -20 160 -28 28 -76 25 -141 -7 -37 -20 -58 -38
-68 -60 l-14 -31 -31 46 c-48 72 -122 103 -193 81z m62 -138 c5 -9 -31 -41
-47 -41 -12 0 -9 25 4 38 14 14 35 16 43 3z m25 -175 c0 -20 -27 -39 -46 -32
-15 6 -15 8 1 26 21 23 45 26 45 6z"/>
<path d="M13863 19649 c-79 -23 -133 -121 -133 -241 0 -88 18 -145 59 -188 83
-87 205 -69 268 38 24 41 28 60 31 149 4 102 4 102 25 88 12 -8 33 -15 48 -15
33 0 39 -14 39 -93 0 -72 -5 -83 -43 -92 -40 -10 -63 -49 -49 -81 17 -36 55
-46 163 -42 78 2 101 7 118 22 29 26 27 60 -6 85 -16 12 -34 26 -40 31 -9 8
-13 51 -13 150 0 127 -2 142 -20 160 -28 28 -76 25 -141 -7 -37 -20 -58 -38
-68 -60 l-14 -31 -31 46 c-48 72 -122 103 -193 81z m62 -138 c5 -9 -31 -41
-47 -41 -12 0 -9 25 4 38 14 14 35 16 43 3z m25 -175 c0 -20 -27 -39 -46 -32
-15 6 -15 8 1 26 21 23 45 26 45 6z"/>
<path d="M14543 19649 c-79 -23 -133 -121 -133 -241 0 -88 18 -145 59 -188 83
-87 196 -71 274 40 17 24 17 25 30 5 69 -110 189 -133 271 -51 43 43 66 112
66 195 0 78 -12 126 -43 172 -67 100 -214 97 -277 -7 -12 -18 -25 -34 -28 -34
-4 1 -19 18 -34 40 -43 61 -117 89 -185 69z m62 -138 c5 -9 -31 -41 -47 -41
-12 0 -9 25 4 38 14 14 35 16 43 3z m340 0 c5 -9 -31 -41 -47 -41 -12 0 -9 25
4 38 14 14 35 16 43 3z m-315 -175 c0 -20 -27 -39 -46 -32 -15 6 -15 8 1 26
21 23 45 26 45 6z m340 0 c0 -20 -27 -39 -46 -32 -15 6 -15 8 1 26 21 23 45
26 45 6z"/>
<path d="M10430 19619 c-60 -27 -80 -47 -80 -80 0 -35 24 -59 60 -59 34 0 40
-13 40 -93 0 -72 -5 -83 -43 -92 -40 -10 -63 -49 -49 -81 17 -36 55 -46 163
-42 78 2 101 7 118 22 29 26 27 60 -6 85 -16 12 -34 26 -40 31 -9 8 -13 51
-13 150 0 127 -2 142 -20 160 -26 26 -72 25 -130 -1z"/>
<path d="M10770 19619 c-60 -27 -80 -47 -80 -80 0 -35 24 -59 60 -59 34 0 40
-13 40 -93 0 -72 -5 -83 -43 -92 -40 -10 -63 -49 -49 -81 17 -36 55 -46 163
-42 78 2 101 7 118 22 29 26 27 60 -6 85 -16 12 -34 26 -40 31 -9 8 -13 51
-13 150 0 127 -2 142 -20 160 -26 26 -72 25 -130 -1z"/>
<path d="M12130 19619 c-60 -27 -80 -47 -80 -80 0 -35 24 -59 60 -59 34 0 40
-13 40 -93 0 -72 -5 -83 -43 -92 -40 -10 -63 -49 -49 -81 17 -36 55 -46 163
-42 78 2 101 7 118 22 29 26 27 60 -6 85 -16 12 -34 26 -40 31 -9 8 -13 51
-13 150 0 127 -2 142 -20 160 -26 26 -72 25 -130 -1z"/>
<path d="M13150 19619 c-60 -27 -80 -47 -80 -80 0 -35 24 -59 60 -59 34 0 40
-13 40 -93 0 -72 -5 -83 -43 -92 -40 -10 -63 -49 -49 -81 17 -36 55 -46 163
-42 78 2 101 7 118 22 29 26 27 60 -6 85 -16 12 -34 26 -40 31 -9 8 -13 51
-13 150 0 127 -2 142 -20 160 -26 26 -72 25 -130 -1z"/>
<path d="M13500 19619 c-60 -27 -80 -47 -80 -80 0 -35 24 -59 60 -59 34 0 40
-13 40 -93 0 -72 -5 -83 -43 -92 -40 -10 -63 -49 -49 -81 17 -36 55 -46 163
-42 78 2 101 7 118 22 29 26 27 60 -6 85 -16 12 -34 26 -40 31 -9 8 -13 51
-13 150 0 127 -2 142 -20 160 -26 26 -72 25 -130 -1z"/>
<path d="M9773 18899 c-51 -15 -100 -71 -119 -136 -22 -75 -15 -192 14 -250
67 -129 225 -132 299 -5 24 41 28 60 31 149 4 102 4 102 25 88 12 -8 33 -15
48 -15 33 0 39 -14 39 -93 0 -72 -5 -83 -43 -92 -40 -10 -63 -49 -49 -81 17
-36 55 -46 163 -42 78 2 101 7 118 22 29 26 27 60 -6 85 -16 12 -34 26 -40 31
-9 8 -13 51 -13 150 0 127 -2 142 -20 160 -28 28 -76 25 -141 -7 -37 -20 -58
-38 -68 -60 l-14 -31 -31 46 c-48 72 -122 103 -193 81z m62 -138 c5 -9 -31
-41 -47 -41 -12 0 -9 25 4 38 14 14 35 16 43 3z m25 -175 c0 -20 -27 -39 -46
-32 -15 6 -15 8 1 26 21 23 45 26 45 6z"/>
<path d="M11133 18899 c-79 -23 -133 -121 -133 -241 0 -88 18 -145 59 -188 83
-87 205 -69 268 38 24 41 28 60 31 149 4 102 4 102 25 88 12 -8 33 -15 48 -15
33 0 39 -14 39 -93 0 -72 -5 -83 -43 -92 -40 -10 -63 -49 -49 -81 17 -36 55
-46 163 -42 78 2 101 7 118 22 29 26 27 60 -6 85 -16 12 -34 26 -40 31 -9 8
-13 51 -13 150 0 127 -2 142 -20 160 -28 28 -76 25 -141 -7 -37 -20 -58 -38
-68 -60 l-14 -31 -31 46 c-48 72 -122 103 -193 81z m62 -138 c5 -9 -31 -41
-47 -41 -12 0 -9 25 4 38 14 14 35 16 43 3z m25 -175 c0 -20 -27 -39 -46 -32
-15 6 -15 8 1 26 21 23 45 26 45 6z"/>
<path d="M11813 18899 c-79 -23 -133 -121 -133 -241 0 -88 18 -145 59 -188 83
-87 205 -69 268 38 24 41 28 60 31 149 4 102 4 102 25 88 12 -8 33 -15 48 -15
33 0 39 -14 39 -93 0 -72 -5 -83 -43 -92 -40 -10 -63 -49 -49 -81 17 -36 55
-46 163 -42 78 2 101 7 118 22 29 26 27 60 -6 85 -16 12 -34 26 -40 31 -9 8
-13 51 -13 150 0 127 -2 142 -20 160 -28 28 -76 25 -141 -7 -37 -20 -58 -38
-68 -60 l-14 -31 -31 46 c-48 72 -122 103 -193 81z m62 -138 c5 -9 -31 -41
-47 -41 -12 0 -9 25 4 38 14 14 35 16 43 3z m25 -175 c0 -20 -27 -39 -46 -32
-15 6 -15 8 1 26 21 23 45 26 45 6z"/>
<path d="M12493 18899 c-79 -23 -133 -121 -133 -241 0 -88 18 -145 59 -188 83
-87 205 -69 268 38 24 41 28 60 31 149 4 102 4 102 25 88 12 -8 33 -15 48 -15
33 0 39 -14 39 -93 0 -72 -5 -83 -43 -92 -40 -10 -63 -49 -49 -81 17 -36 55
-46 163 -42 78 2 101 7 118 22 29 26 27 60 -6 85 -16 12 -34 26 -40 31 -9 8
-13 51 -13 150 0 127 -2 142 -20 160 -28 28 -76 25 -141 -7 -37 -20 -58 -38
-68 -60 l-14 -31 -31 46 c-48 72 -122 103 -193 81z m62 -138 c5 -9 -31 -41
-47 -41 -12 0 -9 25 4 38 14 14 35 16 43 3z m25 -175 c0 -20 -27 -39 -46 -32
-15 6 -15 8 1 26 21 23 45 26 45 6z"/>
<path d="M13523 18899 c-87 -26 -139 -132 -131 -268 7 -120 52 -188 139 -211
70 -19 138 13 192 90 17 24 17 25 30 5 82 -130 230 -134 304 -7 24 41 28 60
31 149 4 102 4 102 25 88 12 -8 33 -15 48 -15 33 0 39 -14 39 -93 0 -72 -5
-83 -43 -92 -40 -10 -63 -49 -49 -81 17 -36 55 -46 163 -42 78 2 101 7 118 22
29 26 27 60 -6 85 -16 12 -34 26 -40 31 -9 8 -13 51 -13 150 0 127 -2 142 -20
160 -28 28 -76 25 -141 -7 -37 -20 -58 -38 -68 -60 l-14 -31 -31 46 c-39 59
-86 86 -146 86 -56 0 -110 -30 -140 -80 -12 -18 -25 -34 -28 -34 -4 1 -19 18
-34 40 -43 61 -117 89 -185 69z m62 -138 c5 -9 -31 -41 -47 -41 -12 0 -9 25 4
38 14 14 35 16 43 3z m340 0 c5 -9 -31 -41 -47 -41 -12 0 -9 25 4 38 14 14 35
16 43 3z m-315 -175 c0 -20 -27 -39 -46 -32 -15 6 -15 8 1 26 21 23 45 26 45
6z m340 0 c0 -20 -27 -39 -46 -32 -15 6 -15 8 1 26 21 23 45 26 45 6z"/>
<path d="M14543 18899 c-79 -23 -133 -121 -133 -241 0 -88 18 -145 59 -188 83
-87 196 -71 274 40 17 24 17 25 30 5 69 -110 189 -133 271 -51 43 43 66 112
66 195 0 78 -12 126 -43 172 -67 100 -214 97 -277 -7 -12 -18 -25 -34 -28 -34
-4 1 -19 18 -34 40 -43 61 -117 89 -185 69z m62 -138 c5 -9 -31 -41 -47 -41
-12 0 -9 25 4 38 14 14 35 16 43 3z m340 0 c5 -9 -31 -41 -47 -41 -12 0 -9 25
4 38 14 14 35 16 43 3z m-315 -175 c0 -20 -27 -39 -46 -32 -15 6 -15 8 1 26
21 23 45 26 45 6z m340 0 c0 -20 -27 -39 -46 -32 -15 6 -15 8 1 26 21 23 45
26 45 6z"/>
<path d="M10430 18869 c-60 -27 -80 -47 -80 -80 0 -35 24 -59 60 -59 34 0 40
-13 40 -93 0 -72 -5 -83 -43 -92 -40 -10 -63 -49 -49 -81 17 -36 55 -46 163
-42 78 2 101 7 118 22 29 26 27 60 -6 85 -16 12 -34 26 -40 31 -9 8 -13 51
-13 150 0 127 -2 142 -20 160 -26 26 -72 25 -130 -1z"/>
<path d="M10770 18869 c-60 -27 -80 -47 -80 -80 0 -35 24 -59 60 -59 34 0 40
-13 40 -93 0 -72 -5 -83 -43 -92 -40 -10 -63 -49 -49 -81 17 -36 55 -46 163
-42 78 2 101 7 118 22 29 26 27 60 -6 85 -16 12 -34 26 -40 31 -9 8 -13 51
-13 150 0 127 -2 142 -20 160 -26 26 -72 25 -130 -1z"/>
<path d="M13150 18869 c-60 -27 -80 -47 -80 -80 0 -35 24 -59 60 -59 34 0 40
-13 40 -93 0 -72 -5 -83 -43 -92 -40 -10 -63 -49 -49 -81 17 -36 55 -46 163
-42 78 2 101 7 118 22 29 26 27 60 -6 85 -16 12 -34 26 -40 31 -9 8 -13 51
-13 150 0 127 -2 142 -20 160 -26 26 -72 25 -130 -1z"/>
<path d="M9773 18159 c-51 -15 -100 -71 -119 -136 -22 -75 -15 -192 14 -250
67 -129 225 -132 299 -5 24 41 28 60 31 149 4 102 4 102 25 88 12 -8 33 -15
48 -15 33 0 39 -14 39 -93 0 -72 -5 -83 -43 -92 -40 -10 -63 -49 -49 -81 17
-36 55 -46 163 -42 78 2 101 7 118 22 29 26 27 60 -6 85 -16 12 -34 26 -40 31
-9 8 -13 51 -13 150 0 127 -2 142 -20 160 -28 28 -76 25 -141 -7 -37 -20 -58
-38 -68 -60 l-14 -31 -31 46 c-48 72 -122 103 -193 81z m62 -138 c5 -9 -31
-41 -47 -41 -12 0 -9 25 4 38 14 14 35 16 43 3z m25 -175 c0 -20 -27 -39 -46
-32 -15 6 -15 8 1 26 21 23 45 26 45 6z"/>
<path d="M11473 18159 c-79 -23 -133 -121 -133 -241 0 -88 18 -145 59 -188 83
-87 196 -71 274 40 17 24 17 25 30 5 82 -130 230 -134 304 -7 24 41 28 60 31
149 4 102 4 102 25 88 12 -8 33 -15 48 -15 33 0 39 -14 39 -93 0 -72 -5 -83
-43 -92 -40 -10 -63 -49 -49 -81 17 -36 55 -46 163 -42 78 2 101 7 118 22 29
26 27 60 -6 85 -16 12 -34 26 -40 31 -9 8 -13 51 -13 150 0 127 -2 142 -20
160 -28 28 -76 25 -141 -7 -37 -20 -58 -38 -68 -60 l-14 -31 -31 46 c-39 59
-86 86 -146 86 -56 0 -110 -30 -140 -80 -12 -18 -25 -34 -28 -34 -4 1 -19 18
-34 40 -43 61 -117 89 -185 69z m62 -138 c5 -9 -31 -41 -47 -41 -12 0 -9 25 4
38 14 14 35 16 43 3z m340 0 c5 -9 -31 -41 -47 -41 -12 0 -9 25 4 38 14 14 35
16 43 3z m-315 -175 c0 -20 -27 -39 -46 -32 -15 6 -15 8 1 26 21 23 45 26 45
6z m340 0 c0 -20 -27 -39 -46 -32 -15 6 -15 8 1 26 21 23 45 26 45 6z"/>
<path d="M12493 18159 c-79 -23 -133 -121 -133 -241 0 -88 18 -145 59 -188 83
-87 196 -71 274 40 17 24 17 25 30 5 82 -131 220 -134 310 -5 17 24 17 25 30
5 80 -128 236 -134 302 -11 24 44 39 45 55 6 17 -40 62 -77 110 -90 72 -19
144 14 187 88 24 41 28 60 31 149 4 102 4 102 25 88 12 -8 33 -15 48 -15 33 0
39 -14 39 -93 0 -72 -5 -83 -43 -92 -40 -10 -63 -49 -49 -81 17 -36 55 -46
163 -42 78 2 101 7 118 22 29 26 27 60 -6 85 -16 12 -34 26 -40 31 -9 8 -13
51 -13 150 0 127 -2 142 -20 160 -28 28 -76 25 -141 -7 -37 -20 -58 -38 -68
-60 l-14 -31 -31 46 c-40 59 -86 86 -147 86 -58 0 -116 -35 -144 -88 -24 -44
-39 -46 -55 -6 -17 40 -62 77 -110 90 -71 19 -140 -13 -192 -90 -17 -24 -18
-25 -29 -5 -74 123 -229 133 -299 19 -12 -18 -25 -34 -28 -34 -4 1 -19 18 -34
40 -43 61 -117 89 -185 69z m62 -138 c5 -9 -31 -41 -47 -41 -12 0 -9 25 4 38
14 14 35 16 43 3z m340 0 c5 -9 -31 -41 -47 -41 -12 0 -9 25 4 38 14 14 35 16
43 3z m340 0 c5 -9 -31 -41 -47 -41 -12 0 -9 25 4 38 14 14 35 16 43 3z m350
0 c5 -9 -31 -41 -47 -41 -12 0 -9 25 4 38 14 14 35 16 43 3z m-1005 -175 c0
-20 -27 -39 -46 -32 -15 6 -15 8 1 26 21 23 45 26 45 6z m340 0 c0 -20 -27
-39 -46 -32 -15 6 -15 8 1 26 21 23 45 26 45 6z m340 0 c0 -20 -27 -39 -46
-32 -15 6 -15 8 1 26 21 23 45 26 45 6z m350 0 c0 -20 -27 -39 -46 -32 -15 6
-15 8 1 26 21 23 45 26 45 6z"/>
<path d="M14203 18159 c-79 -23 -133 -121 -133 -241 0 -88 18 -145 59 -188 83
-87 205 -69 268 38 24 41 28 60 31 149 4 102 4 102 25 88 12 -8 33 -15 48 -15
33 0 39 -14 39 -93 0 -72 -5 -83 -43 -92 -40 -10 -63 -49 -49 -81 17 -36 55
-46 163 -42 78 2 101 7 118 22 29 26 27 60 -6 85 -16 12 -34 26 -40 31 -9 8
-13 51 -13 150 0 127 -2 142 -20 160 -28 28 -76 25 -141 -7 -37 -20 -58 -38
-68 -60 l-14 -31 -31 46 c-48 72 -122 103 -193 81z m62 -138 c5 -9 -31 -41
-47 -41 -12 0 -9 25 4 38 14 14 35 16 43 3z m25 -175 c0 -20 -27 -39 -46 -32
-15 6 -15 8 1 26 21 23 45 26 45 6z"/>
<path d="M14883 18159 c-79 -23 -133 -121 -133 -241 0 -88 18 -145 59 -188 93
-98 239 -59 285 76 18 53 21 160 6 215 -29 105 -125 166 -217 138z m62 -138
c5 -9 -31 -41 -47 -41 -12 0 -9 25 4 38 14 14 35 16 43 3z m25 -175 c0 -20
-27 -39 -46 -32 -15 6 -15 8 1 26 21 23 45 26 45 6z"/>
<path d="M10430 18129 c-60 -27 -80 -47 -80 -80 0 -35 24 -59 60 -59 34 0 40
-13 40 -93 0 -72 -5 -83 -43 -92 -40 -10 -63 -49 -49 -81 17 -36 55 -46 163
-42 78 2 101 7 118 22 29 26 27 60 -6 85 -16 12 -34 26 -40 31 -9 8 -13 51
-13 150 0 127 -2 142 -20 160 -26 26 -72 25 -130 -1z"/>
<path d="M10770 18129 c-60 -27 -80 -47 -80 -80 0 -35 24 -59 60 -59 34 0 40
-13 40 -93 0 -72 -5 -83 -43 -92 -40 -10 -63 -49 -49 -81 17 -36 55 -46 163
-42 78 2 101 7 118 22 29 26 27 60 -6 85 -16 12 -34 26 -40 31 -9 8 -13 51
-13 150 0 127 -2 142 -20 160 -26 26 -72 25 -130 -1z"/>
<path d="M11110 18129 c-60 -27 -80 -47 -80 -80 0 -35 24 -59 60 -59 34 0 40
-13 40 -93 0 -72 -5 -83 -43 -92 -40 -10 -63 -49 -49 -81 17 -36 55 -46 163
-42 78 2 101 7 118 22 29 26 27 60 -6 85 -16 12 -34 26 -40 31 -9 8 -13 51
-13 150 0 127 -2 142 -20 160 -26 26 -72 25 -130 -1z"/>
<path d="M9773 17419 c-51 -15 -100 -71 -119 -136 -22 -75 -15 -192 14 -250
67 -129 225 -132 299 -5 24 41 28 60 31 149 4 102 4 102 25 88 12 -8 33 -15
48 -15 33 0 39 -14 39 -93 0 -72 -5 -83 -43 -92 -40 -10 -63 -49 -49 -81 17
-36 55 -46 163 -42 78 2 101 7 118 22 29 26 27 60 -6 85 -16 12 -34 26 -40 31
-9 8 -13 51 -13 150 0 127 -2 142 -20 160 -28 28 -76 25 -141 -7 -37 -20 -58
-38 -68 -60 l-14 -31 -31 46 c-48 72 -122 103 -193 81z m62 -138 c5 -9 -31
-41 -47 -41 -12 0 -9 25 4 38 14 14 35 16 43 3z m25 -175 c0 -20 -27 -39 -46
-32 -15 6 -15 8 1 26 21 23 45 26 45 6z"/>
<path d="M10793 17419 c-79 -23 -133 -121 -133 -241 0 -88 18 -145 59 -188 83
-87 196 -71 274 40 17 24 17 25 30 5 82 -130 230 -134 304 -7 24 41 28 60 31
149 4 102 4 102 25 88 12 -8 33 -15 48 -15 33 0 39 -14 39 -93 0 -72 -5 -83
-43 -92 -40 -10 -63 -49 -49 -81 17 -36 55 -46 163 -42 78 2 101 7 118 22 29
26 27 60 -6 85 -16 12 -34 26 -40 31 -9 8 -13 51 -13 150 0 127 -2 142 -20
160 -28 28 -76 25 -141 -7 -37 -20 -58 -38 -68 -60 l-14 -31 -31 46 c-39 59
-86 86 -146 86 -56 0 -110 -30 -140 -80 -12 -18 -25 -34 -28 -34 -4 1 -19 18
-34 40 -43 61 -117 89 -185 69z m62 -138 c5 -9 -31 -41 -47 -41 -12 0 -9 25 4
38 14 14 35 16 43 3z m340 0 c5 -9 -31 -41 -47 -41 -12 0 -9 25 4 38 14 14 35
16 43 3z m-315 -175 c0 -20 -27 -39 -46 -32 -15 6 -15 8 1 26 21 23 45 26 45
6z m340 0 c0 -20 -27 -39 -46 -32 -15 6 -15 8 1 26 21 23 45 26 45 6z"/>
<path d="M11813 17419 c-79 -23 -133 -121 -133 -241 0 -88 18 -145 59 -188 83
-87 196 -71 274 40 17 24 17 25 30 5 82 -131 220 -134 310 -5 17 24 17 25 30
5 82 -130 230 -134 304 -7 24 41 28 60 31 149 4 102 4 102 25 88 12 -8 33 -15
48 -15 33 0 39 -14 39 -93 0 -72 -5 -83 -43 -92 -40 -10 -63 -49 -49 -81 17
-36 55 -46 163 -42 78 2 101 7 118 22 29 26 27 60 -6 85 -16 12 -34 26 -40 31
-9 8 -13 51 -13 150 0 127 -2 142 -20 160 -28 28 -76 25 -141 -7 -37 -20 -58
-38 -68 -60 l-14 -31 -31 46 c-39 59 -86 86 -146 86 -56 0 -110 -30 -140 -80
-12 -18 -25 -34 -28 -34 -4 1 -19 18 -34 40 -70 101 -214 98 -278 -6 -12 -18
-25 -34 -28 -34 -4 1 -19 18 -34 40 -43 61 -117 89 -185 69z m62 -138 c5 -9
-31 -41 -47 -41 -12 0 -9 25 4 38 14 14 35 16 43 3z m340 0 c5 -9 -31 -41 -47
-41 -12 0 -9 25 4 38 14 14 35 16 43 3z m340 0 c5 -9 -31 -41 -47 -41 -12 0
-9 25 4 38 14 14 35 16 43 3z m-655 -175 c0 -20 -27 -39 -46 -32 -15 6 -15 8
1 26 21 23 45 26 45 6z m340 0 c0 -20 -27 -39 -46 -32 -15 6 -15 8 1 26 21 23
45 26 45 6z m340 0 c0 -20 -27 -39 -46 -32 -15 6 -15 8 1 26 21 23 45 26 45 6z"/>
<path d="M13863 17419 c-79 -23 -133 -121 -133 -241 0 -88 18 -145 59 -188 83
-87 205 -69 268 38 24 41 28 60 31 149 4 102 4 102 25 88 12 -8 33 -15 48 -15
33 0 39 -14 39 -93 0 -72 -5 -83 -43 -92 -40 -10 -63 -49 -49 -81 17 -36 55
-46 163 -42 78 2 101 7 118 22 29 26 27 60 -6 85 -16 12 -34 26 -40 31 -9 8
-13 51 -13 150 0 127 -2 142 -20 160 -28 28 -76 25 -141 -7 -37 -20 -58 -38
-68 -60 l-14 -31 -31 46 c-48 72 -122 103 -193 81z m62 -138 c5 -9 -31 -41
-47 -41 -12 0 -9 25 4 38 14 14 35 16 43 3z m25 -175 c0 -20 -27 -39 -46 -32
-15 6 -15 8 1 26 21 23 45 26 45 6z"/>
<path d="M14543 17419 c-79 -23 -133 -121 -133 -241 0 -88 18 -145 59 -188 83
-87 205 -69 268 38 24 41 28 60 31 149 4 102 4 102 25 88 12 -8 33 -15 48 -15
33 0 39 -14 39 -93 0 -72 -5 -83 -43 -92 -40 -10 -63 -49 -49 -81 17 -36 55
-46 163 -42 78 2 101 7 118 22 29 26 27 60 -6 85 -16 12 -34 26 -40 31 -9 8
-13 51 -13 150 0 127 -2 142 -20 160 -28 28 -76 25 -141 -7 -37 -20 -58 -38
-68 -60 l-14 -31 -31 46 c-48 72 -122 103 -193 81z m62 -138 c5 -9 -31 -41
-47 -41 -12 0 -9 25 4 38 14 14 35 16 43 3z m25 -175 c0 -20 -27 -39 -46 -32
-15 6 -15 8 1 26 21 23 45 26 45 6z"/>
<path d="M10430 17389 c-60 -27 -80 -47 -80 -80 0 -35 24 -59 60 -59 34 0 40
-13 40 -93 0 -72 -5 -83 -43 -92 -40 -10 -63 -49 -49 -81 17 -36 55 -46 163
-42 78 2 101 7 118 22 29 26 27 60 -6 85 -16 12 -34 26 -40 31 -9 8 -13 51
-13 150 0 127 -2 142 -20 160 -26 26 -72 25 -130 -1z"/>
<path d="M13150 17389 c-60 -27 -80 -47 -80 -80 0 -35 24 -59 60 -59 34 0 40
-13 40 -93 0 -72 -5 -83 -43 -92 -40 -10 -63 -49 -49 -81 17 -36 55 -46 163
-42 78 2 101 7 118 22 29 26 27 60 -6 85 -16 12 -34 26 -40 31 -9 8 -13 51
-13 150 0 127 -2 142 -20 160 -26 26 -72 25 -130 -1z"/>
<path d="M13500 17389 c-60 -27 -80 -47 -80 -80 0 -35 24 -59 60 -59 34 0 40
-13 40 -93 0 -72 -5 -83 -43 -92 -40 -10 -63 -49 -49 -81 17 -36 55 -46 163
-42 78 2 101 7 118 22 29 26 27 60 -6 85 -16 12 -34 26 -40 31 -9 8 -13 51
-13 150 0 127 -2 142 -20 160 -26 26 -72 25 -130 -1z"/>
<path d="M9773 16669 c-51 -15 -100 -71 -119 -136 -22 -75 -15 -192 14 -250
67 -129 225 -132 299 -5 24 41 28 60 31 149 4 102 4 102 25 88 12 -8 33 -15
48 -15 33 0 39 -14 39 -93 0 -72 -5 -83 -43 -92 -40 -10 -63 -49 -49 -81 17
-36 55 -46 163 -42 78 2 101 7 118 22 29 26 27 60 -6 85 -16 12 -34 26 -40 31
-9 8 -13 51 -13 150 0 127 -2 142 -20 160 -28 28 -76 25 -141 -7 -37 -20 -58
-38 -68 -60 l-14 -31 -31 46 c-48 72 -122 103 -193 81z m62 -138 c5 -9 -31
-41 -47 -41 -12 0 -9 25 4 38 14 14 35 16 43 3z m25 -175 c0 -20 -27 -39 -46
-32 -15 6 -15 8 1 26 21 23 45 26 45 6z"/>
<path d="M10793 16669 c-79 -23 -133 -121 -133 -241 0 -88 18 -145 59 -188 83
-87 205 -69 268 38 24 41 28 60 31 149 4 102 4 102 25 88 12 -8 33 -15 48 -15
33 0 39 -14 39 -93 0 -72 -5 -83 -43 -92 -40 -10 -63 -49 -49 -81 17 -36 55
-46 163 -42 78 2 101 7 118 22 29 26 27 60 -6 85 -16 12 -34 26 -40 31 -9 8
-13 51 -13 150 0 127 -2 142 -20 160 -28 28 -76 25 -141 -7 -37 -20 -58 -38
-68 -60 l-14 -31 -31 46 c-48 72 -122 103 -193 81z m62 -138 c5 -9 -31 -41
-47 -41 -12 0 -9 25 4 38 14 14 35 16 43 3z m25 -175 c0 -20 -27 -39 -46 -32
-15 6 -15 8 1 26 21 23 45 26 45 6z"/>
<path d="M11813 16669 c-79 -23 -133 -121 -133 -241 0 -88 18 -145 59 -188 83
-87 205 -69 268 38 24 41 28 60 31 149 4 102 4 102 25 88 12 -8 33 -15 48 -15
33 0 39 -14 39 -93 0 -72 -5 -83 -43 -92 -40 -10 -63 -49 -49 -81 17 -36 55
-46 163 -42 78 2 101 7 118 22 29 26 27 60 -6 85 -16 12 -34 26 -40 31 -9 8
-13 51 -13 150 0 127 -2 142 -20 160 -28 28 -76 25 -141 -7 -37 -20 -58 -38
-68 -60 l-14 -31 -31 46 c-48 72 -122 103 -193 81z m62 -138 c5 -9 -31 -41
-47 -41 -12 0 -9 25 4 38 14 14 35 16 43 3z m25 -175 c0 -20 -27 -39 -46 -32
-15 6 -15 8 1 26 21 23 45 26 45 6z"/>
<path d="M12493 16669 c-79 -23 -133 -121 -133 -241 0 -88 18 -145 59 -188 83
-87 205 -69 268 38 24 41 28 60 31 149 4 102 4 102 25 88 12 -8 33 -15 48 -15
33 0 39 -14 39 -93 0 -72 -5 -83 -43 -92 -40 -10 -63 -49 -49 -81 17 -36 55
-46 163 -42 78 2 101 7 118 22 29 26 27 60 -6 85 -16 12 -34 26 -40 31 -9 8
-13 51 -13 150 0 127 -2 142 -20 160 -28 28 -76 25 -141 -7 -37 -20 -58 -38
-68 -60 l-14 -31 -31 46 c-48 72 -122 103 -193 81z m62 -138 c5 -9 -31 -41
-47 -41 -12 0 -9 25 4 38 14 14 35 16 43 3z m25 -175 c0 -20 -27 -39 -46 -32
-15 6 -15 8 1 26 21 23 45 26 45 6z"/>
<path d="M13863 16669 c-79 -23 -133 -121 -133 -241 0 -88 18 -145 59 -188 83
-87 196 -71 274 40 17 24 17 25 30 5 82 -131 220 -134 310 -5 17 24 17 25 30
5 82 -131 220 -134 310 -5 17 24 17 25 30 5 69 -110 189 -133 271 -50 93 93
87 328 -10 404 -83 65 -188 41 -256 -59 -17 -24 -18 -25 -29 -5 -79 131 -224
133 -311 5 -17 -24 -18 -25 -29 -5 -74 123 -229 133 -299 19 -12 -18 -25 -34
-28 -34 -4 1 -19 18 -34 40 -43 61 -117 89 -185 69z m62 -138 c5 -9 -31 -41
-47 -41 -12 0 -9 25 4 38 14 14 35 16 43 3z m340 0 c5 -9 -31 -41 -47 -41 -12
0 -9 25 4 38 14 14 35 16 43 3z m340 0 c5 -9 -31 -41 -47 -41 -12 0 -9 25 4
38 14 14 35 16 43 3z m340 0 c5 -9 -31 -41 -47 -41 -12 0 -9 25 4 38 14 14 35
16 43 3z m-995 -175 c0 -20 -27 -39 -46 -32 -15 6 -15 8 1 26 21 23 45 26 45
6z m340 0 c0 -20 -27 -39 -46 -32 -15 6 -15 8 1 26 21 23 45 26 45 6z m340 0
c0 -20 -27 -39 -46 -32 -15 6 -15 8 1 26 21 23 45 26 45 6z m340 0 c0 -20 -27
-39 -46 -32 -15 6 -15 8 1 26 21 23 45 26 45 6z"/>
<path d="M10430 16639 c-60 -27 -80 -47 -80 -80 0 -35 24 -59 60 -59 34 0 40
-13 40 -93 0 -72 -5 -83 -43 -92 -40 -10 -63 -49 -49 -81 17 -36 55 -46 163
-42 78 2 101 7 118 22 29 26 27 60 -6 85 -16 12 -34 26 -40 31 -9 8 -13 51
-13 150 0 127 -2 142 -20 160 -26 26 -72 25 -130 -1z"/>
<path d="M11450 16639 c-60 -27 -80 -47 -80 -80 0 -35 24 -59 60 -59 34 0 40
-13 40 -93 0 -72 -5 -83 -43 -92 -40 -10 -63 -49 -49 -81 17 -36 55 -46 163
-42 78 2 101 7 118 22 29 26 27 60 -6 85 -16 12 -34 26 -40 31 -9 8 -13 51
-13 150 0 127 -2 142 -20 160 -26 26 -72 25 -130 -1z"/>
<path d="M13150 16639 c-60 -27 -80 -47 -80 -80 0 -35 24 -59 60 -59 34 0 40
-13 40 -93 0 -72 -5 -83 -43 -92 -40 -10 -63 -49 -49 -81 17 -36 55 -46 163
-42 78 2 101 7 118 22 29 26 27 60 -6 85 -16 12 -34 26 -40 31 -9 8 -13 51
-13 150 0 127 -2 142 -20 160 -26 26 -72 25 -130 -1z"/>
<path d="M13500 16639 c-60 -27 -80 -47 -80 -80 0 -35 24 -59 60 -59 34 0 40
-13 40 -93 0 -72 -5 -83 -43 -92 -40 -10 -63 -49 -49 -81 17 -36 55 -46 163
-42 78 2 101 7 118 22 29 26 27 60 -6 85 -16 12 -34 26 -40 31 -9 8 -13 51
-13 150 0 127 -2 142 -20 160 -26 26 -72 25 -130 -1z"/>
<path d="M9773 15929 c-51 -15 -100 -71 -119 -136 -22 -75 -15 -192 14 -250
67 -129 225 -132 299 -5 24 41 28 60 31 149 4 102 4 102 25 88 12 -8 33 -15
48 -15 33 0 39 -14 39 -93 0 -72 -5 -83 -43 -92 -40 -10 -63 -49 -49 -81 17
-36 55 -46 163 -42 78 2 101 7 118 22 29 26 27 60 -6 85 -16 12 -34 26 -40 31
-9 8 -13 51 -13 150 0 127 -2 142 -20 160 -28 28 -76 25 -141 -7 -37 -20 -58
-38 -68 -60 l-14 -31 -31 46 c-48 72 -122 103 -193 81z m62 -138 c5 -9 -31
-41 -47 -41 -12 0 -9 25 4 38 14 14 35 16 43 3z m25 -175 c0 -20 -27 -39 -46
-32 -15 6 -15 8 1 26 21 23 45 26 45 6z"/>
<path d="M11133 15929 c-79 -23 -133 -121 -133 -241 0 -88 18 -145 59 -188 83
-87 196 -71 274 40 17 24 17 25 30 5 82 -130 230 -134 304 -7 24 41 28 60 31
149 4 102 4 102 25 88 12 -8 33 -15 48 -15 33 0 39 -14 39 -93 0 -72 -5 -83
-43 -92 -40 -10 -63 -49 -49 -81 17 -36 55 -46 163 -42 78 2 101 7 118 22 29
26 27 60 -6 85 -16 12 -34 26 -40 31 -9 8 -13 51 -13 150 0 127 -2 142 -20
160 -28 28 -76 25 -141 -7 -37 -20 -58 -38 -68 -60 l-14 -31 -31 46 c-39 59
-86 86 -146 86 -56 0 -110 -30 -140 -80 -12 -18 -25 -34 -28 -34 -4 1 -19 18
-34 40 -43 61 -117 89 -185 69z m62 -138 c5 -9 -31 -41 -47 -41 -12 0 -9 25 4
38 14 14 35 16 43 3z m340 0 c5 -9 -31 -41 -47 -41 -12 0 -9 25 4 38 14 14 35
16 43 3z m-315 -175 c0 -20 -27 -39 -46 -32 -15 6 -15 8 1 26 21 23 45 26 45
6z m340 0 c0 -20 -27 -39 -46 -32 -15 6 -15 8 1 26 21 23 45 26 45 6z"/>
<path d="M12493 15929 c-79 -23 -133 -121 -133 -241 0 -88 18 -145 59 -188 83
-87 205 -69 268 38 24 41 28 60 31 149 4 102 4 102 25 88 12 -8 33 -15 48 -15
33 0 39 -14 39 -93 0 -72 -5 -83 -43 -92 -40 -10 -63 -49 -49 -81 17 -36 55
-46 163 -42 78 2 101 7 118 22 29 26 27 60 -6 85 -16 12 -34 26 -40 31 -9 8
-13 51 -13 150 0 127 -2 142 -20 160 -28 28 -76 25 -141 -7 -37 -20 -58 -38
-68 -60 l-14 -31 -31 46 c-48 72 -122 103 -193 81z m62 -138 c5 -9 -31 -41
-47 -41 -12 0 -9 25 4 38 14 14 35 16 43 3z m25 -175 c0 -20 -27 -39 -46 -32
-15 6 -15 8 1 26 21 23 45 26 45 6z"/>
<path d="M13863 15929 c-79 -23 -133 -121 -133 -241 0 -88 18 -145 59 -188 83
-87 205 -69 268 38 24 41 28 60 31 149 4 102 4 102 25 88 12 -8 33 -15 48 -15
33 0 39 -14 39 -93 0 -72 -5 -83 -43 -92 -40 -10 -63 -49 -49 -81 17 -36 55
-46 163 -42 78 2 101 7 118 22 29 26 27 60 -6 85 -16 12 -34 26 -40 31 -9 8
-13 51 -13 150 0 127 -2 142 -20 160 -28 28 -76 25 -141 -7 -37 -20 -58 -38
-68 -60 l-14 -31 -31 46 c-48 72 -122 103 -193 81z m62 -138 c5 -9 -31 -41
-47 -41 -12 0 -9 25 4 38 14 14 35 16 43 3z m25 -175 c0 -20 -27 -39 -46 -32
-15 6 -15 8 1 26 21 23 45 26 45 6z"/>
<path d="M14543 15929 c-79 -23 -133 -121 -133 -241 0 -88 18 -145 59 -188 83
-87 196 -71 274 40 17 24 17 25 30 5 69 -110 189 -133 271 -51 43 43 66 112
66 195 0 78 -12 126 -43 172 -67 100 -214 97 -277 -7 -12 -18 -25 -34 -28 -34
-4 1 -19 18 -34 40 -43 61 -117 89 -185 69z m62 -138 c5 -9 -31 -41 -47 -41
-12 0 -9 25 4 38 14 14 35 16 43 3z m340 0 c5 -9 -31 -41 -47 -41 -12 0 -9 25
4 38 14 14 35 16 43 3z m-315 -175 c0 -20 -27 -39 -46 -32 -15 6 -15 8 1 26
21 23 45 26 45 6z m340 0 c0 -20 -27 -39 -46 -32 -15 6 -15 8 1 26 21 23 45
26 45 6z"/>
<path d="M10430 15899 c-60 -27 -80 -47 -80 -80 0 -35 24 -59 60 -59 34 0 40
-13 40 -93 0 -72 -5 -83 -43 -92 -40 -10 -63 -49 -49 -81 17 -36 55 -46 163
-42 78 2 101 7 118 22 29 26 27 60 -6 85 -16 12 -34 26 -40 31 -9 8 -13 51
-13 150 0 127 -2 142 -20 160 -26 26 -72 25 -130 -1z"/>
<path d="M10770 15899 c-60 -27 -80 -47 -80 -80 0 -35 24 -59 60 -59 34 0 40
-13 40 -93 0 -72 -5 -83 -43 -92 -40 -10 -63 -49 -49 -81 17 -36 55 -46 163
-42 78 2 101 7 118 22 29 26 27 60 -6 85 -16 12 -34 26 -40 31 -9 8 -13 51
-13 150 0 127 -2 142 -20 160 -26 26 -72 25 -130 -1z"/>
<path d="M12130 15899 c-60 -27 -80 -47 -80 -80 0 -35 24 -59 60 -59 34 0 40
-13 40 -93 0 -72 -5 -83 -43 -92 -40 -10 -63 -49 -49 -81 17 -36 55 -46 163
-42 78 2 101 7 118 22 29 26 27 60 -6 85 -16 12 -34 26 -40 31 -9 8 -13 51
-13 150 0 127 -2 142 -20 160 -26 26 -72 25 -130 -1z"/>
<path d="M13150 15899 c-60 -27 -80 -47 -80 -80 0 -35 24 -59 60 -59 34 0 40
-13 40 -93 0 -72 -5 -83 -43 -92 -40 -10 -63 -49 -49 -81 17 -36 55 -46 163
-42 78 2 101 7 118 22 29 26 27 60 -6 85 -16 12 -34 26 -40 31 -9 8 -13 51
-13 150 0 127 -2 142 -20 160 -26 26 -72 25 -130 -1z"/>
<path d="M13500 15899 c-60 -27 -80 -47 -80 -80 0 -35 24 -59 60 -59 34 0 40
-13 40 -93 0 -72 -5 -83 -43 -92 -40 -10 -63 -49 -49 -81 17 -36 55 -46 163
-42 78 2 101 7 118 22 29 26 27 60 -6 85 -16 12 -34 26 -40 31 -9 8 -13 51
-13 150 0 127 -2 142 -20 160 -26 26 -72 25 -130 -1z"/>
<path d="M4050 15184 c-159 -37 -160 -38 -370 -83 -80 -17 -163 -36 -185 -41
-70 -16 -358 -80 -585 -129 -143 -31 -176 -39 -275 -61 -27 -6 -68 -15 -90
-20 -84 -18 -178 -39 -285 -64 -36 -9 -119 -27 -185 -41 -141 -30 -207 -44
-255 -55 -19 -4 -60 -13 -90 -20 -30 -7 -71 -16 -90 -20 -19 -4 -120 -26 -225
-49 -218 -48 -258 -57 -319 -72 -53 -13 -85 1 -161 69 -241 217 -620 85 -676
-236 -28 -159 52 -327 200 -417 32 -19 66 -44 77 -56 10 -12 48 -41 84 -64 36
-23 72 -50 80 -60 8 -10 44 -37 80 -60 36 -23 72 -50 80 -60 8 -10 44 -37 80
-60 36 -23 72 -50 80 -60 8 -10 44 -37 80 -60 36 -23 72 -50 80 -60 8 -10 44
-37 80 -60 36 -23 72 -50 80 -60 8 -10 44 -37 80 -60 36 -23 72 -50 80 -60 8
-10 44 -37 80 -60 36 -23 72 -50 80 -60 8 -10 44 -37 80 -60 36 -23 72 -50 80
-60 8 -10 44 -37 80 -60 36 -23 72 -50 80 -60 8 -10 44 -37 80 -60 36 -23 72
-50 80 -60 8 -10 44 -37 80 -60 36 -23 72 -50 80 -60 8 -10 44 -37 80 -60 36
-23 72 -50 80 -60 8 -10 44 -37 80 -60 36 -23 72 -50 80 -60 8 -10 44 -37 80
-60 36 -23 72 -50 80 -60 8 -10 44 -37 80 -60 36 -23 72 -50 80 -60 8 -10 44
-37 80 -60 36 -23 72 -50 80 -60 8 -10 44 -37 80 -60 36 -23 72 -50 80 -60 8
-10 44 -37 80 -60 36 -23 72 -50 80 -60 8 -10 44 -37 80 -60 36 -23 72 -50 80
-60 8 -10 44 -37 80 -60 36 -23 72 -50 80 -60 8 -10 44 -37 80 -60 36 -23 72
-50 80 -60 8 -10 44 -37 80 -60 36 -23 72 -50 80 -60 8 -10 44 -37 80 -60 36
-23 72 -50 80 -60 8 -10 44 -37 80 -60 36 -23 72 -50 80 -60 8 -10 44 -37 80
-60 36 -23 72 -50 80 -60 8 -10 44 -37 80 -60 36 -23 72 -50 80 -60 8 -10 44
-37 80 -60 36 -23 72 -50 80 -60 8 -10 44 -37 80 -60 36 -23 72 -50 80 -60 8
-10 44 -37 80 -60 36 -23 72 -50 80 -60 8 -10 44 -37 80 -60 36 -23 72 -50 80
-60 8 -10 44 -37 80 -60 36 -23 72 -50 80 -60 8 -10 44 -37 80 -60 36 -23 72
-50 80 -60 8 -10 44 -37 80 -60 36 -23 72 -50 80 -60 8 -10 44 -37 80 -60 36
-23 72 -50 80 -60 8 -10 44 -37 80 -60 36 -23 72 -50 80 -60 8 -10 44 -37 80
-60 36 -23 72 -50 80 -60 8 -10 44 -37 80 -60 36 -23 72 -50 80 -60 8 -10 44
-37 80 -60 36 -23 72 -50 80 -60 8 -10 44 -37 80 -60 36 -23 72 -50 80 -60 8
-10 44 -37 80 -60 36 -23 72 -50 80 -60 8 -10 44 -37 80 -60 36 -23 72 -50 80
-60 8 -10 44 -37 80 -60 36 -23 72 -50 80 -60 8 -10 44 -37 80 -60 36 -23 72
-50 80 -60 8 -10 44 -37 80 -60 36 -23 72 -50 80 -60 8 -10 44 -37 80 -60 36
-23 72 -50 80 -60 8 -10 44 -37 80 -60 36 -23 72 -50 80 -60 8 -10 44 -37 80
-60 36 -23 72 -50 80 -60 8 -10 44 -37 80 -60 36 -23 72 -50 80 -60 8 -10 44
-37 80 -60 36 -23 72 -50 80 -60 8 -10 44 -37 80 -60 36 -23 72 -50 80 -60 8
-10 44 -37 80 -60 36 -23 72 -50 80 -60 8 -10 44 -37 80 -60 36 -23 72 -50 80
-60 8 -10 44 -37 80 -60 36 -23 72 -50 80 -60 8 -10 44 -37 80 -60 36 -23 72
-50 80 -60 8 -10 44 -37 80 -60 36 -23 72 -50 80 -60 8 -10 44 -37 80 -60 36
-23 72 -50 80 -60 8 -10 44 -37 80 -60 36 -23 72 -50 80 -60 8 -10 44 -37 80
-60 36 -23 72 -50 80 -60 8 -10 44 -37 80 -60 36 -23 72 -50 80 -60 8 -10 44
-37 80 -60 36 -23 72 -50 80 -60 8 -10 44 -37 80 -60 36 -23 72 -50 80 -60 8
-10 44 -37 80 -60 36 -23 72 -50 80 -60 8 -10 44 -37 80 -60 36 -23 72 -50 80
-60 8 -10 44 -37 80 -60 36 -23 72 -50 80 -60 8 -10 44 -37 80 -60 36 -23 72
-50 80 -60 8 -10 44 -37 80 -60 36 -23 72 -50 80 -60 8 -10 44 -37 80 -60 36
-23 72 -50 80 -60 8 -10 44 -37 80 -60 36 -23 72 -50 80 -60 8 -10 44 -37 80
-60 36 -23 72 -50 80 -60 8 -10 44 -37 80 -60 36 -23 72 -50 80 -60 8 -10 44
-37 80 -60 36 -23 72 -50 80 -60 8 -10 40 -34 70 -53 30 -19 74 -53 98 -74
120 -110 303 -137 445 -67 23 11 72 31 108 43 65 23 142 69 169 101 8 9 39 33
70 52 30 19 71 50 90 67 19 18 58 47 86 64 28 18 60 42 70 53 10 12 44 37 74
56 30 19 71 50 90 67 19 18 58 47 86 64 28 18 60 42 70 53 10 12 44 37 74 56
30 19 71 50 90 67 19 18 58 47 86 64 28 18 60 42 70 53 10 12 44 37 74 56 30
19 71 50 90 67 19 18 58 47 86 64 28 18 60 42 70 53 10 12 44 37 74 56 30 19
71 50 90 67 19 18 58 47 86 64 28 18 60 42 70 53 10 12 44 37 74 56 30 19 71
50 90 67 19 18 58 47 86 64 28 18 60 42 70 53 10 12 44 37 74 56 30 19 71 50
90 67 19 18 58 47 86 64 28 18 60 42 70 53 10 12 44 37 74 56 30 19 71 50 90
67 19 18 58 47 86 64 28 18 60 42 70 53 10 12 44 37 74 56 30 19 71 50 90 67
19 18 58 47 86 64 28 18 60 42 70 53 10 12 44 37 74 56 30 19 71 50 90 67 19
18 58 47 86 64 28 18 60 42 70 53 10 12 44 37 74 56 30 19 71 50 90 67 19 18
58 47 86 64 28 18 60 42 70 53 10 12 44 37 74 56 30 19 71 50 90 67 19 18 58
47 86 64 28 18 60 42 70 53 10 12 44 37 74 56 30 19 71 50 90 67 19 18 58 47
86 64 28 18 60 42 70 53 10 12 44 37 74 56 30 19 71 50 90 67 19 18 58 47 86
64 28 18 60 42 70 53 10 12 44 37 74 56 30 19 71 50 90 67 19 18 58 47 86 64
28 18 60 42 70 53 10 12 44 37 74 56 30 19 71 50 90 67 19 18 58 47 86 64 28
18 60 42 70 53 10 12 44 37 74 56 30 19 71 50 90 67 19 18 58 47 86 64 28 18
60 42 70 53 10 12 44 37 74 56 30 19 71 50 90 67 19 18 58 47 86 64 28 18 60
42 70 53 10 12 48 40 84 63 36 24 72 51 80 60 8 10 39 34 70 53 30 19 71 50
90 67 19 18 58 47 86 64 28 18 60 42 70 53 10 12 44 37 74 56 30 19 71 50 90
67 19 18 58 47 86 64 28 18 60 42 70 53 10 12 44 37 74 56 30 19 71 50 90 67
19 18 58 47 86 64 28 18 60 42 70 53 10 12 44 37 74 56 30 19 71 50 90 67 19
18 58 47 86 64 28 18 60 42 70 53 10 12 44 37 74 56 30 19 71 50 90 67 19 18
58 47 86 64 28 18 60 42 70 53 10 12 44 37 74 56 30 19 71 50 90 67 19 18 58
47 86 64 28 18 60 42 70 53 10 12 44 37 74 56 30 19 71 50 90 67 19 18 58 47
86 64 28 18 60 42 70 53 10 12 44 37 74 56 30 19 71 50 90 67 19 18 58 47 86
64 28 18 60 42 70 53 10 12 44 37 74 56 30 19 71 50 90 67 19 18 58 47 86 64
28 18 60 42 70 53 10 12 44 37 74 56 30 19 71 50 90 67 19 18 58 47 86 64 28
18 60 42 70 53 10 12 44 37 74 56 30 19 71 50 90 67 19 18 58 47 86 64 28 18
60 42 70 53 10 12 44 37 74 56 30 19 71 50 90 67 19 18 58 47 86 64 28 18 60
42 70 53 10 12 44 37 74 56 30 19 71 50 90 67 19 18 58 47 86 64 28 18 60 42
70 53 10 12 44 37 74 56 30 19 71 50 90 67 19 18 58 47 86 64 28 18 60 42 70
53 10 12 44 37 74 56 30 19 71 50 90 67 19 18 58 47 86 64 28 18 60 42 70 53
10 12 44 37 74 56 30 19 71 50 90 67 19 18 58 47 86 64 28 18 60 42 70 53 10
12 44 37 74 56 30 19 71 50 90 67 19 18 58 47 86 64 28 18 60 42 70 53 10 12
49 41 86 64 130 85 192 197 192 350 0 129 -25 188 -118 281 -94 93 -152 117
-286 118 -87 1 -101 -2 -165 -32 -38 -18 -84 -47 -102 -64 -25 -24 -38 -30
-60 -25 -98 21 -423 91 -493 107 -129 29 -465 103 -565 125 -66 14 -147 32
-180 40 -204 45 -483 107 -560 123 -122 27 -629 139 -960 214 -446 100 -412
96 -501 68 -42 -14 -92 -36 -110 -50 -18 -14 -48 -35 -66 -48 -70 -50 -357
-255 -432 -310 -101 -74 -178 -129 -240 -172 -12 -8 -75 -53 -140 -100 -65
-47 -128 -92 -139 -100 -12 -8 -52 -37 -89 -65 -81 -61 -170 -126 -252 -183
-119 -83 -131 -92 -162 -114 -18 -13 -69 -50 -114 -83 -45 -33 -95 -69 -110
-80 -15 -11 -65 -47 -110 -80 -95 -69 -131 -96 -180 -129 -19 -14 -91 -66
-160 -117 -69 -51 -181 -133 -250 -182 -69 -49 -156 -113 -195 -142 -38 -28
-110 -80 -159 -116 -48 -35 -123 -89 -165 -120 -266 -194 -391 -286 -426 -311
-22 -16 -75 -55 -117 -86 -42 -31 -123 -91 -180 -132 -56 -41 -165 -122 -243
-179 -77 -57 -158 -117 -180 -133 -22 -16 -80 -59 -129 -96 -48 -37 -98 -74
-110 -82 -24 -17 -40 -28 -209 -156 -66 -49 -129 -96 -140 -104 -12 -8 -49
-35 -82 -60 -33 -25 -71 -53 -85 -62 -25 -17 -221 -164 -335 -253 -33 -25 -94
-71 -135 -102 -158 -120 -366 -277 -395 -300 -32 -26 -118 -93 -241 -188 -153
-119 -332 -275 -454 -396 -115 -114 -360 -390 -399 -449 -9 -14 -44 -62 -78
-107 -33 -45 -87 -122 -119 -170 -31 -48 -69 -107 -84 -129 -26 -39 -78 -126
-129 -217 -114 -203 -282 -558 -356 -752 -14 -38 -33 -86 -40 -105 -88 -223
-215 -642 -275 -900 -12 -52 -28 -114 -34 -138 l-12 -43 -23 103 c-202 887
-552 1699 -998 2319 -86 120 -249 323 -328 409 -188 205 -441 436 -655 597
-92 70 -224 172 -288 223 -17 14 -50 39 -72 55 -23 17 -67 50 -98 75 -67 53
-520 396 -563 425 -16 11 -119 88 -229 170 -328 246 -492 367 -558 415 -35 25
-124 91 -200 147 -75 56 -155 115 -177 131 -22 16 -110 81 -195 144 -85 63
-201 148 -258 189 -56 41 -118 85 -136 99 -63 47 -209 153 -296 215 -19 14
-46 33 -60 42 -13 10 -79 59 -146 108 -66 50 -156 115 -198 145 -43 30 -107
78 -144 105 -37 28 -77 57 -89 65 -31 22 -453 327 -533 385 -37 28 -182 132
-322 233 -1445 1041 -1405 1013 -1477 1038 -84 30 -105 29 -281 -12z m194
-343 c5 -7 472 -345 686 -496 16 -11 144 -103 285 -205 141 -102 269 -194 285
-205 15 -11 65 -47 110 -80 80 -59 108 -79 180 -130 19 -14 51 -36 70 -50 42
-30 104 -74 134 -95 12 -8 73 -53 136 -100 108 -81 282 -207 353 -257 18 -12
64 -46 103 -75 105 -77 411 -299 464 -336 14 -9 79 -57 145 -106 141 -105 178
-132 280 -206 41 -30 109 -80 150 -110 40 -30 108 -80 151 -110 42 -30 118
-86 170 -125 51 -38 127 -95 170 -125 76 -55 268 -197 634 -470 107 -80 207
-154 222 -165 96 -70 234 -174 472 -355 98 -74 188 -142 200 -150 29 -20 88
-64 158 -120 85 -67 159 -124 235 -182 362 -275 590 -485 808 -744 286 -340
503 -690 729 -1177 147 -317 293 -748 396 -1172 62 -257 72 -305 105 -490 8
-49 20 -112 25 -140 12 -61 57 -419 66 -529 6 -66 5 -78 -7 -71 -18 10 -61 41
-244 178 -170 127 -249 184 -285 209 -14 9 -62 45 -107 80 -45 35 -117 88
-158 118 -42 30 -102 75 -134 100 -32 25 -77 59 -100 75 -23 17 -120 89 -216
160 -190 141 -469 349 -769 572 -105 78 -209 155 -231 172 -38 29 -289 215
-598 444 -76 56 -216 161 -312 232 -349 259 -555 412 -601 445 -12 8 -75 55
-140 104 -122 91 -323 242 -634 473 -96 71 -301 223 -455 338 -382 284 -549
408 -760 565 -226 167 -410 304 -637 473 -98 73 -242 180 -320 238 -134 99
-287 213 -718 533 -96 71 -299 222 -450 335 -151 112 -342 255 -425 316 -82
61 -240 178 -350 260 -110 82 -281 209 -380 282 -99 73 -198 147 -220 164 -22
16 -76 57 -120 89 -44 32 -123 91 -175 130 -113 85 -234 174 -291 215 -23 17
-68 50 -100 75 -32 25 -92 70 -134 100 -41 30 -120 89 -175 130 -55 41 -134
100 -175 130 -42 30 -93 69 -114 85 -20 17 -65 50 -100 75 -118 85 -119 74 10
99 63 13 130 27 149 31 19 4 55 12 80 18 25 5 137 31 250 56 113 26 250 56
305 68 128 26 125 25 420 92 138 32 295 66 350 78 129 26 126 25 420 92 138
32 293 66 345 77 52 10 151 32 220 48 140 33 156 35 164 22z m16516 -41 c107
-23 203 -45 213 -49 22 -8 86 43 -683 -541 -322 -245 -720 -548 -886 -675
-165 -126 -558 -426 -873 -665 -315 -239 -648 -492 -739 -562 -184 -140 -222
-181 -222 -239 0 -72 82 -129 144 -101 13 6 81 55 152 109 71 55 372 284 669
509 297 226 637 485 755 575 118 91 384 293 590 449 206 156 517 392 690 525
173 132 406 310 517 394 l203 153 207 -45 c115 -25 273 -60 353 -78 210 -46
201 -43 380 -83 91 -20 183 -41 205 -46 22 -5 85 -19 140 -31 145 -31 150 -32
380 -83 116 -26 233 -52 260 -58 118 -26 125 -10 -55 -143 -88 -66 -239 -178
-335 -250 -96 -71 -209 -156 -252 -188 -43 -32 -91 -68 -108 -80 -16 -12 -60
-44 -97 -72 -37 -27 -114 -85 -170 -127 -173 -130 -470 -350 -537 -398 -34
-25 -107 -79 -161 -120 -55 -41 -132 -99 -172 -128 -97 -71 -423 -313 -473
-351 -22 -17 -121 -91 -220 -164 -99 -74 -279 -207 -400 -297 -121 -90 -301
-224 -400 -297 -99 -73 -200 -149 -225 -168 -25 -19 -128 -96 -230 -171 -102
-76 -273 -203 -380 -282 -107 -80 -259 -193 -338 -251 -78 -58 -222 -165 -320
-238 -227 -169 -411 -306 -637 -473 -211 -157 -378 -281 -760 -565 -154 -115
-359 -267 -455 -338 -320 -238 -514 -383 -634 -473 -65 -49 -128 -96 -140
-104 -24 -17 -41 -29 -209 -156 -125 -94 -156 -116 -203 -149 -16 -11 -105
-77 -199 -147 -160 -120 -225 -168 -605 -450 -204 -151 -874 -649 -1295 -963
-96 -71 -202 -150 -237 -175 -34 -25 -78 -58 -99 -75 -20 -16 -71 -55 -113
-85 -43 -30 -97 -70 -122 -89 -24 -19 -47 -31 -51 -28 -12 13 55 542 97 762
41 211 44 227 80 380 12 50 26 110 32 135 5 25 21 83 34 130 13 47 29 101 34
120 5 19 39 127 75 240 153 470 333 865 593 1295 46 78 213 314 271 386 25 31
67 83 93 115 47 60 79 95 197 219 69 73 294 281 352 327 19 14 64 50 100 80
37 29 100 78 139 108 40 30 87 67 104 81 17 14 79 63 139 108 140 106 307 233
382 290 33 26 70 53 82 61 11 8 74 56 139 105 65 50 128 97 140 105 13 8 65
47 116 86 99 76 313 236 358 269 16 11 65 47 110 80 45 33 95 69 111 80 15 11
82 61 149 110 188 140 260 193 385 285 64 47 190 139 280 205 89 66 197 145
239 175 42 30 118 86 169 123 51 38 168 124 260 190 93 67 199 145 237 172
134 98 323 236 400 290 19 13 67 48 107 77 39 29 163 119 275 199 111 81 246
178 298 217 52 39 110 81 128 94 18 13 48 34 67 48 19 14 49 35 67 48 18 13
74 52 123 88 50 36 104 75 121 87 18 12 69 49 114 82 80 59 108 79 180 130 19
14 51 36 70 50 19 14 51 36 70 50 19 14 51 36 70 50 19 14 51 36 70 50 19 14
49 35 66 47 17 13 44 32 60 43 16 11 58 42 94 68 43 32 71 47 85 43 11 -2 108
-23 215 -46z"/>
<path d="M3484 13906 c-28 -28 -34 -41 -34 -77 0 -37 5 -47 43 -81 23 -22 132
-103 242 -182 621 -442 3380 -2411 3540 -2526 221 -159 369 -264 1015 -725
261 -186 571 -408 689 -493 226 -163 259 -182 315 -182 72 0 124 82 96 150
-12 29 -42 51 -770 570 -80 57 -230 165 -335 240 -104 75 -899 642 -1765 1260
-866 618 -1660 1185 -1765 1260 -104 75 -260 186 -345 247 -85 61 -288 206
-450 322 -162 116 -314 220 -337 231 -63 30 -99 26 -139 -14z"/>
<path d="M16674 10081 c-28 -17 -1424 -1065 -2441 -1832 -210 -159 -390 -301
-401 -316 -26 -39 -32 -67 -21 -109 17 -59 96 -92 151 -63 12 6 204 149 427
318 223 169 845 637 1381 1040 536 403 996 755 1023 781 41 42 47 54 47 90 0
34 -6 48 -34 76 -40 40 -83 45 -132 15z"/>
<path d="M9773 15179 c-51 -15 -100 -71 -119 -136 -22 -75 -15 -192 14 -250
67 -129 225 -132 299 -5 24 41 28 60 31 149 4 102 4 102 25 88 12 -8 33 -15
48 -15 33 0 39 -14 39 -93 0 -72 -5 -83 -43 -92 -40 -10 -63 -49 -49 -81 17
-36 55 -46 163 -42 78 2 101 7 118 22 29 26 27 60 -6 85 -16 12 -34 26 -40 31
-9 8 -13 51 -13 150 0 127 -2 142 -20 160 -28 28 -76 25 -141 -7 -37 -20 -58
-38 -68 -60 l-14 -31 -31 46 c-48 72 -122 103 -193 81z m62 -138 c5 -9 -31
-41 -47 -41 -12 0 -9 25 4 38 14 14 35 16 43 3z m25 -175 c0 -20 -27 -39 -46
-32 -15 6 -15 8 1 26 21 23 45 26 45 6z"/>
<path d="M11133 15179 c-79 -23 -133 -121 -133 -241 0 -88 18 -145 59 -188 83
-87 205 -69 268 38 24 41 28 60 31 149 4 102 4 102 25 88 12 -8 33 -15 48 -15
33 0 39 -14 39 -93 0 -72 -5 -83 -43 -92 -40 -10 -63 -49 -49 -81 17 -36 55
-46 163 -42 78 2 101 7 118 22 29 26 27 60 -6 85 -16 12 -34 26 -40 31 -9 8
-13 51 -13 150 0 127 -2 142 -20 160 -28 28 -76 25 -141 -7 -37 -20 -58 -38
-68 -60 l-14 -31 -31 46 c-48 72 -122 103 -193 81z m62 -138 c5 -9 -31 -41
-47 -41 -12 0 -9 25 4 38 14 14 35 16 43 3z m25 -175 c0 -20 -27 -39 -46 -32
-15 6 -15 8 1 26 21 23 45 26 45 6z"/>
<path d="M11813 15179 c-79 -23 -133 -121 -133 -241 0 -88 18 -145 59 -188 83
-87 205 -69 268 38 24 41 28 60 31 149 4 102 4 102 25 88 12 -8 33 -15 48 -15
33 0 39 -14 39 -93 0 -72 -5 -83 -43 -92 -40 -10 -63 -49 -49 -81 17 -36 55
-46 163 -42 78 2 101 7 118 22 29 26 27 60 -6 85 -16 12 -34 26 -40 31 -9 8
-13 51 -13 150 0 127 -2 142 -20 160 -28 28 -76 25 -141 -7 -37 -20 -58 -38
-68 -60 l-14 -31 -31 46 c-48 72 -122 103 -193 81z m62 -138 c5 -9 -31 -41
-47 -41 -12 0 -9 25 4 38 14 14 35 16 43 3z m25 -175 c0 -20 -27 -39 -46 -32
-15 6 -15 8 1 26 21 23 45 26 45 6z"/>
<path d="M12493 15179 c-79 -23 -133 -121 -133 -241 0 -88 18 -145 59 -188 83
-87 205 -69 268 38 24 41 28 60 31 149 4 102 4 102 25 88 12 -8 33 -15 48 -15
33 0 39 -14 39 -93 0 -72 -5 -83 -43 -92 -40 -10 -63 -49 -49 -81 17 -36 55
-46 163 -42 78 2 101 7 118 22 29 26 27 60 -6 85 -16 12 -34 26 -40 31 -9 8
-13 51 -13 150 0 127 -2 142 -20 160 -28 28 -76 25 -141 -7 -37 -20 -58 -38
-68 -60 l-14 -31 -31 46 c-48 72 -122 103 -193 81z m62 -138 c5 -9 -31 -41
-47 -41 -12 0 -9 25 4 38 14 14 35 16 43 3z m25 -175 c0 -20 -27 -39 -46 -32
-15 6 -15 8 1 26 21 23 45 26 45 6z"/>
<path d="M13523 15179 c-87 -26 -139 -132 -131 -268 7 -120 52 -188 139 -211
70 -19 138 13 192 90 17 24 17 25 30 5 82 -130 230 -134 304 -7 24 41 28 60
31 149 4 102 4 102 25 88 12 -8 33 -15 48 -15 33 0 39 -14 39 -93 0 -72 -5
-83 -43 -92 -40 -10 -63 -49 -49 -81 17 -36 55 -46 163 -42 78 2 101 7 118 22
29 26 27 60 -6 85 -16 12 -34 26 -40 31 -9 8 -13 51 -13 150 0 127 -2 142 -20
160 -28 28 -76 25 -141 -7 -37 -20 -58 -38 -68 -60 l-14 -31 -31 46 c-39 59
-86 86 -146 86 -56 0 -110 -30 -140 -80 -12 -18 -25 -34 -28 -34 -4 1 -19 18
-34 40 -43 61 -117 89 -185 69z m62 -138 c5 -9 -31 -41 -47 -41 -12 0 -9 25 4
38 14 14 35 16 43 3z m340 0 c5 -9 -31 -41 -47 -41 -12 0 -9 25 4 38 14 14 35
16 43 3z m-315 -175 c0 -20 -27 -39 -46 -32 -15 6 -15 8 1 26 21 23 45 26 45
6z m340 0 c0 -20 -27 -39 -46 -32 -15 6 -15 8 1 26 21 23 45 26 45 6z"/>
<path d="M14543 15179 c-79 -23 -133 -121 -133 -241 0 -88 18 -145 59 -188 83
-87 196 -71 274 40 17 24 17 25 30 5 69 -110 189 -133 271 -51 43 43 66 112
66 195 0 78 -12 126 -43 172 -67 100 -214 97 -277 -7 -12 -18 -25 -34 -28 -34
-4 1 -19 18 -34 40 -43 61 -117 89 -185 69z m62 -138 c5 -9 -31 -41 -47 -41
-12 0 -9 25 4 38 14 14 35 16 43 3z m340 0 c5 -9 -31 -41 -47 -41 -12 0 -9 25
4 38 14 14 35 16 43 3z m-315 -175 c0 -20 -27 -39 -46 -32 -15 6 -15 8 1 26
21 23 45 26 45 6z m340 0 c0 -20 -27 -39 -46 -32 -15 6 -15 8 1 26 21 23 45
26 45 6z"/>
<path d="M10430 15149 c-60 -27 -80 -47 -80 -80 0 -35 24 -59 60 -59 34 0 40
-13 40 -93 0 -72 -5 -83 -43 -92 -40 -10 -63 -49 -49 -81 17 -36 55 -46 163
-42 78 2 101 7 118 22 29 26 27 60 -6 85 -16 12 -34 26 -40 31 -9 8 -13 51
-13 150 0 127 -2 142 -20 160 -26 26 -72 25 -130 -1z"/>
<path d="M10770 15149 c-60 -27 -80 -47 -80 -80 0 -35 24 -59 60 -59 34 0 40
-13 40 -93 0 -72 -5 -83 -43 -92 -40 -10 -63 -49 -49 -81 17 -36 55 -46 163
-42 78 2 101 7 118 22 29 26 27 60 -6 85 -16 12 -34 26 -40 31 -9 8 -13 51
-13 150 0 127 -2 142 -20 160 -26 26 -72 25 -130 -1z"/>
<path d="M13150 15149 c-60 -27 -80 -47 -80 -80 0 -35 24 -59 60 -59 34 0 40
-13 40 -93 0 -72 -5 -83 -43 -92 -40 -10 -63 -49 -49 -81 17 -36 55 -46 163
-42 78 2 101 7 118 22 29 26 27 60 -6 85 -16 12 -34 26 -40 31 -9 8 -13 51
-13 150 0 127 -2 142 -20 160 -26 26 -72 25 -130 -1z"/>
<path d="M8233 14439 c-51 -15 -100 -71 -119 -136 -22 -75 -15 -192 14 -250
67 -129 225 -132 299 -5 24 41 28 60 31 149 4 102 4 102 25 88 12 -8 33 -15
48 -15 33 0 39 -14 39 -93 0 -72 -5 -83 -43 -92 -40 -10 -63 -49 -49 -81 17
-36 55 -46 163 -42 78 2 101 7 118 22 29 26 27 60 -6 85 -16 12 -34 26 -40 31
-9 8 -13 51 -13 150 0 127 -2 142 -20 160 -28 28 -76 25 -141 -7 -37 -20 -58
-38 -68 -60 l-14 -31 -31 46 c-48 72 -122 103 -193 81z m62 -138 c5 -9 -31
-41 -47 -41 -12 0 -9 25 4 38 14 14 35 16 43 3z m25 -175 c0 -20 -27 -39 -46
-32 -15 6 -15 8 1 26 21 23 45 26 45 6z"/>
<path d="M9943 14439 c-79 -23 -133 -121 -133 -241 0 -88 18 -145 59 -188 83
-87 196 -71 274 40 17 24 17 25 30 5 82 -130 230 -134 304 -7 24 41 28 60 31
149 4 102 4 102 25 88 12 -8 33 -15 48 -15 33 0 39 -14 39 -93 0 -72 -5 -83
-43 -92 -40 -10 -63 -49 -49 -81 17 -36 55 -46 163 -42 78 2 101 7 118 22 29
26 27 60 -6 85 -16 12 -34 26 -40 31 -9 8 -13 51 -13 150 0 127 -2 142 -20
160 -28 28 -76 25 -141 -7 -37 -20 -58 -38 -68 -60 l-14 -31 -31 46 c-39 59
-86 86 -146 86 -56 0 -110 -30 -140 -80 -12 -18 -25 -34 -28 -34 -4 1 -19 18
-34 40 -43 61 -117 89 -185 69z m62 -138 c5 -9 -31 -41 -47 -41 -12 0 -9 25 4
38 14 14 35 16 43 3z m340 0 c5 -9 -31 -41 -47 -41 -12 0 -9 25 4 38 14 14 35
16 43 3z m-315 -175 c0 -20 -27 -39 -46 -32 -15 6 -15 8 1 26 21 23 45 26 45
6z m340 0 c0 -20 -27 -39 -46 -32 -15 6 -15 8 1 26 21 23 45 26 45 6z"/>
<path d="M10963 14439 c-79 -23 -133 -121 -133 -241 0 -88 18 -145 59 -188 83
-87 196 -71 274 40 17 24 17 25 30 5 82 -131 220 -134 310 -5 17 24 17 25 30
5 82 -131 220 -134 310 -5 17 24 17 25 30 5 82 -130 230 -134 304 -7 24 41 28
60 31 149 4 102 4 102 25 88 12 -8 33 -15 48 -15 33 0 39 -14 39 -93 0 -72 -5
-83 -43 -92 -40 -10 -63 -49 -49 -81 17 -36 55 -46 163 -42 78 2 101 7 118 22
29 26 27 60 -6 85 -16 12 -34 26 -40 31 -9 8 -13 51 -13 150 0 127 -2 142 -20
160 -28 28 -76 25 -141 -7 -37 -20 -58 -38 -68 -60 l-14 -31 -31 46 c-39 59
-86 86 -146 86 -56 0 -110 -30 -140 -80 -12 -18 -25 -34 -28 -34 -4 1 -19 18
-34 40 -70 101 -214 98 -278 -6 -12 -18 -25 -34 -28 -34 -4 1 -19 18 -34 40
-70 101 -214 98 -278 -6 -12 -18 -25 -34 -28 -34 -4 1 -19 18 -34 40 -43 61
-117 89 -185 69z m62 -138 c5 -9 -31 -41 -47 -41 -12 0 -9 25 4 38 14 14 35
16 43 3z m340 0 c5 -9 -31 -41 -47 -41 -12 0 -9 25 4 38 14 14 35 16 43 3z
m340 0 c5 -9 -31 -41 -47 -41 -12 0 -9 25 4 38 14 14 35 16 43 3z m340 0 c5
-9 -31 -41 -47 -41 -12 0 -9 25 4 38 14 14 35 16 43 3z m-995 -175 c0 -20 -27
-39 -46 -32 -15 6 -15 8 1 26 21 23 45 26 45 6z m340 0 c0 -20 -27 -39 -46
-32 -15 6 -15 8 1 26 21 23 45 26 45 6z m340 0 c0 -20 -27 -39 -46 -32 -15 6
-15 8 1 26 21 23 45 26 45 6z m340 0 c0 -20 -27 -39 -46 -32 -15 6 -15 8 1 26
21 23 45 26 45 6z"/>
<path d="M12663 14439 c-79 -23 -133 -121 -133 -241 0 -88 18 -145 59 -188 83
-87 205 -69 268 38 24 41 28 60 31 149 4 102 4 102 25 88 12 -8 33 -15 48 -15
33 0 39 -14 39 -93 0 -72 -5 -83 -43 -92 -40 -10 -63 -49 -49 -81 17 -36 55
-46 163 -42 78 2 101 7 118 22 29 26 27 60 -6 85 -16 12 -34 26 -40 31 -9 8
-13 51 -13 150 0 127 -2 142 -20 160 -28 28 -76 25 -141 -7 -37 -20 -58 -38
-68 -60 l-14 -31 -31 46 c-48 72 -122 103 -193 81z m62 -138 c5 -9 -31 -41
-47 -41 -12 0 -9 25 4 38 14 14 35 16 43 3z m25 -175 c0 -20 -27 -39 -46 -32
-15 6 -15 8 1 26 21 23 45 26 45 6z"/>
<path d="M13343 14439 c-79 -23 -133 -121 -133 -241 0 -88 18 -145 59 -188 81
-85 211 -69 266 34 24 44 39 45 55 6 17 -40 62 -77 110 -90 72 -19 144 14 187
88 24 41 28 60 31 149 4 102 4 102 25 88 12 -8 33 -15 48 -15 33 0 39 -14 39
-93 0 -72 -5 -83 -43 -92 -40 -10 -63 -49 -49 -81 17 -36 55 -46 163 -42 78 2
101 7 118 22 29 26 27 60 -6 85 -16 12 -34 26 -40 31 -9 8 -13 51 -13 150 0
127 -2 142 -20 160 -28 28 -76 25 -141 -7 -37 -20 -58 -38 -68 -60 l-14 -31
-31 46 c-40 59 -86 86 -147 86 -58 0 -116 -35 -144 -88 -24 -44 -39 -46 -55
-6 -16 39 -61 77 -108 90 -43 11 -46 11 -89 -1z m62 -138 c5 -9 -31 -41 -47
-41 -12 0 -9 25 4 38 14 14 35 16 43 3z m350 0 c5 -9 -31 -41 -47 -41 -12 0
-9 25 4 38 14 14 35 16 43 3z m-325 -175 c0 -20 -27 -39 -46 -32 -15 6 -15 8
1 26 21 23 45 26 45 6z m350 0 c0 -20 -27 -39 -46 -32 -15 6 -15 8 1 26 21 23
45 26 45 6z"/>
<path d="M14713 14439 c-79 -23 -133 -121 -133 -241 0 -88 18 -145 59 -188 83
-87 196 -71 274 40 17 24 17 25 30 5 82 -130 230 -134 304 -7 24 41 28 60 31
149 4 102 4 102 25 88 12 -8 33 -15 48 -15 33 0 39 -14 39 -93 0 -72 -5 -83
-43 -92 -40 -10 -63 -49 -49 -81 17 -36 55 -46 163 -42 78 2 101 7 118 22 29
26 27 60 -6 85 -16 12 -34 26 -40 31 -9 8 -13 51 -13 150 0 127 -2 142 -20
160 -28 28 -76 25 -141 -7 -37 -20 -58 -38 -68 -60 l-14 -31 -31 46 c-39 59
-86 86 -146 86 -56 0 -110 -30 -140 -80 -12 -18 -25 -34 -28 -34 -4 1 -19 18
-34 40 -43 61 -117 89 -185 69z m62 -138 c5 -9 -31 -41 -47 -41 -12 0 -9 25 4
38 14 14 35 16 43 3z m340 0 c5 -9 -31 -41 -47 -41 -12 0 -9 25 4 38 14 14 35
16 43 3z m-315 -175 c0 -20 -27 -39 -46 -32 -15 6 -15 8 1 26 21 23 45 26 45
6z m340 0 c0 -20 -27 -39 -46 -32 -15 6 -15 8 1 26 21 23 45 26 45 6z"/>
<path d="M15733 14439 c-79 -23 -133 -121 -133 -241 0 -88 18 -145 59 -188 83
-87 196 -71 274 40 17 24 17 25 30 5 82 -131 220 -134 310 -5 17 24 17 25 30
5 69 -110 189 -133 271 -50 93 93 87 328 -10 404 -83 65 -188 41 -256 -59 -17
-24 -18 -25 -29 -5 -74 123 -229 133 -299 19 -12 -18 -25 -34 -28 -34 -4 1
-19 18 -34 40 -43 61 -117 89 -185 69z m62 -138 c5 -9 -31 -41 -47 -41 -12 0
-9 25 4 38 14 14 35 16 43 3z m340 0 c5 -9 -31 -41 -47 -41 -12 0 -9 25 4 38
14 14 35 16 43 3z m340 0 c5 -9 -31 -41 -47 -41 -12 0 -9 25 4 38 14 14 35 16
43 3z m-655 -175 c0 -20 -27 -39 -46 -32 -15 6 -15 8 1 26 21 23 45 26 45 6z
m340 0 c0 -20 -27 -39 -46 -32 -15 6 -15 8 1 26 21 23 45 26 45 6z m340 0 c0
-20 -27 -39 -46 -32 -15 6 -15 8 1 26 21 23 45 26 45 6z"/>
<path d="M8890 14409 c-60 -27 -80 -47 -80 -80 0 -35 24 -59 60 -59 34 0 40
-13 40 -93 0 -72 -5 -83 -43 -92 -40 -10 -63 -49 -49 -81 17 -36 55 -46 163
-42 78 2 101 7 118 22 29 26 27 60 -6 85 -16 12 -34 26 -40 31 -9 8 -13 51
-13 150 0 127 -2 142 -20 160 -26 26 -72 25 -130 -1z"/>
<path d="M9230 14409 c-60 -27 -80 -47 -80 -80 0 -35 24 -59 60 -59 34 0 40
-13 40 -93 0 -72 -5 -83 -43 -92 -40 -10 -63 -49 -49 -81 17 -36 55 -46 163
-42 78 2 101 7 118 22 29 26 27 60 -6 85 -16 12 -34 26 -40 31 -9 8 -13 51
-13 150 0 127 -2 142 -20 160 -26 26 -72 25 -130 -1z"/>
<path d="M9580 14409 c-60 -27 -80 -47 -80 -80 0 -35 24 -59 60 -59 34 0 40
-13 40 -93 0 -72 -5 -83 -43 -92 -40 -10 -63 -49 -49 -81 17 -36 55 -46 163
-42 78 2 101 7 118 22 29 26 27 60 -6 85 -16 12 -34 26 -40 31 -9 8 -13 51
-13 150 0 127 -2 142 -20 160 -26 26 -72 25 -130 -1z"/>
<path d="M14350 14409 c-60 -27 -80 -47 -80 -80 0 -35 24 -59 60 -59 34 0 40
-13 40 -93 0 -72 -5 -83 -43 -92 -40 -10 -63 -49 -49 -81 17 -36 55 -46 163
-42 78 2 101 7 118 22 29 26 27 60 -6 85 -16 12 -34 26 -40 31 -9 8 -13 51
-13 150 0 127 -2 142 -20 160 -26 26 -72 25 -130 -1z"/>
<path d="M10283 13699 c-79 -23 -133 -121 -133 -241 0 -88 18 -145 59 -188 83
-87 205 -69 268 38 24 41 28 60 31 149 4 102 4 102 25 88 12 -8 33 -15 48 -15
33 0 39 -14 39 -93 0 -72 -5 -83 -43 -92 -40 -10 -63 -49 -49 -81 17 -36 55
-46 163 -42 78 2 101 7 118 22 29 26 27 60 -6 85 -16 12 -34 26 -40 31 -9 8
-13 51 -13 150 0 127 -2 142 -20 160 -28 28 -76 25 -141 -7 -37 -20 -58 -38
-68 -60 l-14 -31 -31 46 c-48 72 -122 103 -193 81z m62 -138 c5 -9 -31 -41
-47 -41 -12 0 -9 25 4 38 14 14 35 16 43 3z m25 -175 c0 -20 -27 -39 -46 -32
-15 6 -15 8 1 26 21 23 45 26 45 6z"/>
<path d="M10963 13699 c-79 -23 -133 -121 -133 -241 0 -88 18 -145 59 -188 83
-87 205 -69 268 38 24 41 28 60 31 149 4 102 4 102 25 88 12 -8 33 -15 48 -15
33 0 39 -14 39 -93 0 -72 -5 -83 -43 -92 -40 -10 -63 -49 -49 -81 17 -36 55
-46 163 -42 78 2 101 7 118 22 29 26 27 60 -6 85 -16 12 -34 26 -40 31 -9 8
-13 51 -13 150 0 127 -2 142 -20 160 -28 28 -76 25 -141 -7 -37 -20 -58 -38
-68 -60 l-14 -31 -31 46 c-48 72 -122 103 -193 81z m62 -138 c5 -9 -31 -41
-47 -41 -12 0 -9 25 4 38 14 14 35 16 43 3z m25 -175 c0 -20 -27 -39 -46 -32
-15 6 -15 8 1 26 21 23 45 26 45 6z"/>
<path d="M11643 13699 c-79 -23 -133 -121 -133 -241 0 -88 18 -145 59 -188 83
-87 205 -69 268 38 24 41 28 60 31 149 4 102 4 102 25 88 12 -8 33 -15 48 -15
33 0 39 -14 39 -93 0 -72 -5 -83 -43 -92 -40 -10 -63 -49 -49 -81 17 -36 55
-46 163 -42 78 2 101 7 118 22 29 26 27 60 -6 85 -16 12 -34 26 -40 31 -9 8
-13 51 -13 150 0 127 -2 142 -20 160 -28 28 -76 25 -141 -7 -37 -20 -58 -38
-68 -60 l-14 -31 -31 46 c-48 72 -122 103 -193 81z m62 -138 c5 -9 -31 -41
-47 -41 -12 0 -9 25 4 38 14 14 35 16 43 3z m25 -175 c0 -20 -27 -39 -46 -32
-15 6 -15 8 1 26 21 23 45 26 45 6z"/>
<path d="M12663 13699 c-79 -23 -133 -121 -133 -241 0 -88 18 -145 59 -188 83
-87 205 -69 268 38 24 41 28 60 31 149 4 102 4 102 25 88 12 -8 33 -15 48 -15
33 0 39 -14 39 -93 0 -72 -5 -83 -43 -92 -40 -10 -63 -49 -49 -81 17 -36 55
-46 163 -42 78 2 101 7 118 22 29 26 27 60 -6 85 -16 12 -34 26 -40 31 -9 8
-13 51 -13 150 0 127 -2 142 -20 160 -28 28 -76 25 -141 -7 -37 -20 -58 -38
-68 -60 l-14 -31 -31 46 c-48 72 -122 103 -193 81z m62 -138 c5 -9 -31 -41
-47 -41 -12 0 -9 25 4 38 14 14 35 16 43 3z m25 -175 c0 -20 -27 -39 -46 -32
-15 6 -15 8 1 26 21 23 45 26 45 6z"/>
<path d="M13693 13699 c-51 -15 -100 -71 -119 -136 -22 -75 -15 -192 14 -250
67 -129 225 -132 299 -5 24 41 28 60 31 149 4 102 4 102 25 88 12 -8 33 -15
48 -15 33 0 39 -14 39 -93 0 -72 -5 -83 -43 -92 -40 -10 -63 -49 -49 -81 17
-36 55 -46 163 -42 78 2 101 7 118 22 29 26 27 60 -6 85 -16 12 -34 26 -40 31
-9 8 -13 51 -13 150 0 127 -2 142 -20 160 -28 28 -76 25 -141 -7 -37 -20 -58
-38 -68 -60 l-14 -31 -31 46 c-48 72 -122 103 -193 81z m62 -138 c5 -9 -31
-41 -47 -41 -12 0 -9 25 4 38 14 14 35 16 43 3z m25 -175 c0 -20 -27 -39 -46
-32 -15 6 -15 8 1 26 21 23 45 26 45 6z"/>
<path d="M14373 13699 c-79 -23 -133 -121 -133 -241 0 -88 18 -145 59 -188 83
-87 205 -69 268 38 24 41 28 60 31 149 4 102 4 102 25 88 12 -8 33 -15 48 -15
33 0 39 -14 39 -93 0 -72 -5 -83 -43 -92 -40 -10 -63 -49 -49 -81 17 -36 55
-46 163 -42 78 2 101 7 118 22 29 26 27 60 -6 85 -16 12 -34 26 -40 31 -9 8
-13 51 -13 150 0 127 -2 142 -20 160 -28 28 -76 25 -141 -7 -37 -20 -58 -38
-68 -60 l-14 -31 -31 46 c-48 72 -122 103 -193 81z m62 -138 c5 -9 -31 -41
-47 -41 -12 0 -9 25 4 38 14 14 35 16 43 3z m25 -175 c0 -20 -27 -39 -46 -32
-15 6 -15 8 1 26 21 23 45 26 45 6z"/>
<path d="M9230 13669 c-60 -27 -80 -47 -80 -80 0 -35 24 -59 60 -59 34 0 40
-13 40 -93 0 -72 -5 -83 -43 -92 -40 -10 -63 -49 -49 -81 17 -36 55 -46 163
-42 78 2 101 7 118 22 29 26 27 60 -6 85 -16 12 -34 26 -40 31 -9 8 -13 51
-13 150 0 127 -2 142 -20 160 -26 26 -72 25 -130 -1z"/>
<path d="M9580 13669 c-60 -27 -80 -47 -80 -80 0 -35 24 -59 60 -59 34 0 40
-13 40 -93 0 -72 -5 -83 -43 -92 -40 -10 -63 -49 -49 -81 17 -36 55 -46 163
-42 78 2 101 7 118 22 29 26 27 60 -6 85 -16 12 -34 26 -40 31 -9 8 -13 51
-13 150 0 127 -2 142 -20 160 -26 26 -72 25 -130 -1z"/>
<path d="M9920 13669 c-60 -27 -80 -47 -80 -80 0 -35 24 -59 60 -59 34 0 40
-13 40 -93 0 -72 -5 -83 -43 -92 -40 -10 -63 -49 -49 -81 17 -36 55 -46 163
-42 78 2 101 7 118 22 29 26 27 60 -6 85 -16 12 -34 26 -40 31 -9 8 -13 51
-13 150 0 127 -2 142 -20 160 -26 26 -72 25 -130 -1z"/>
<path d="M12300 13669 c-60 -27 -80 -47 -80 -80 0 -35 24 -59 60 -59 34 0 40
-13 40 -93 0 -72 -5 -83 -43 -92 -40 -10 -63 -49 -49 -81 17 -36 55 -46 163
-42 78 2 101 7 118 22 29 26 27 60 -6 85 -16 12 -34 26 -40 31 -9 8 -13 51
-13 150 0 127 -2 142 -20 160 -26 26 -72 25 -130 -1z"/>
<path d="M13320 13669 c-60 -27 -80 -47 -80 -80 0 -35 24 -59 60 -59 34 0 40
-13 40 -93 0 -72 -5 -83 -43 -92 -40 -10 -63 -49 -49 -81 17 -36 55 -46 163
-42 78 2 101 7 118 22 29 26 27 60 -6 85 -16 12 -34 26 -40 31 -9 8 -13 51
-13 150 0 127 -2 142 -20 160 -26 26 -72 25 -130 -1z"/>
<path d="M15030 13669 c-60 -27 -80 -47 -80 -80 0 -35 24 -59 60 -59 34 0 40
-13 40 -93 0 -72 -5 -83 -43 -92 -40 -10 -63 -49 -49 -81 17 -36 55 -46 163
-42 78 2 101 7 118 22 29 26 27 60 -6 85 -16 12 -34 26 -40 31 -9 8 -13 51
-13 150 0 127 -2 142 -20 160 -26 26 -72 25 -130 -1z"/>
<path d="M15370 13669 c-60 -27 -80 -47 -80 -80 0 -35 24 -59 60 -59 34 0 40
-13 40 -93 0 -72 -5 -83 -43 -92 -40 -10 -63 -49 -49 -81 17 -36 55 -46 163
-42 78 2 101 7 118 22 29 26 27 60 -6 85 -16 12 -34 26 -40 31 -9 8 -13 51
-13 150 0 127 -2 142 -20 160 -26 26 -72 25 -130 -1z"/>
<path d="M10283 12949 c-87 -26 -139 -132 -131 -268 7 -120 52 -188 139 -211
70 -19 138 13 192 90 17 24 17 25 30 5 82 -131 220 -134 310 -5 17 24 17 25
30 5 82 -131 220 -134 310 -5 17 24 17 25 30 5 82 -131 220 -134 310 -5 17 24
17 25 30 5 82 -130 230 -134 304 -7 24 41 28 60 31 149 4 102 4 102 25 88 12
-8 33 -15 48 -15 33 0 39 -14 39 -93 0 -72 -5 -83 -43 -92 -40 -10 -63 -49
-49 -81 17 -36 55 -46 163 -42 78 2 101 7 118 22 29 26 27 60 -6 85 -16 12
-34 26 -40 31 -9 8 -13 51 -13 150 0 127 -2 142 -20 160 -28 28 -76 25 -141
-7 -37 -20 -58 -38 -68 -60 l-14 -31 -31 46 c-39 59 -86 86 -146 86 -56 0
-110 -30 -140 -80 -12 -18 -25 -34 -28 -34 -4 1 -19 18 -34 40 -70 101 -214
98 -278 -6 -12 -18 -25 -34 -28 -34 -4 1 -19 18 -34 40 -70 101 -214 98 -278
-6 -12 -18 -25 -34 -28 -34 -4 1 -19 18 -34 40 -70 101 -214 98 -278 -6 -12
-18 -25 -34 -28 -34 -4 1 -19 18 -34 40 -43 61 -117 89 -185 69z m62 -138 c5
-9 -31 -41 -47 -41 -12 0 -9 25 4 38 14 14 35 16 43 3z m340 0 c5 -9 -31 -41
-47 -41 -12 0 -9 25 4 38 14 14 35 16 43 3z m340 0 c5 -9 -31 -41 -47 -41 -12
0 -9 25 4 38 14 14 35 16 43 3z m340 0 c5 -9 -31 -41 -47 -41 -12 0 -9 25 4
38 14 14 35 16 43 3z m340 0 c5 -9 -31 -41 -47 -41 -12 0 -9 25 4 38 14 14 35
16 43 3z m-1335 -175 c0 -20 -27 -39 -46 -32 -15 6 -15 8 1 26 21 23 45 26 45
6z m340 0 c0 -20 -27 -39 -46 -32 -15 6 -15 8 1 26 21 23 45 26 45 6z m340 0
c0 -20 -27 -39 -46 -32 -15 6 -15 8 1 26 21 23 45 26 45 6z m340 0 c0 -20 -27
-39 -46 -32 -15 6 -15 8 1 26 21 23 45 26 45 6z m340 0 c0 -20 -27 -39 -46
-32 -15 6 -15 8 1 26 21 23 45 26 45 6z"/>
<path d="M13003 12949 c-79 -23 -133 -121 -133 -241 0 -88 18 -145 59 -188 83
-87 196 -71 274 40 17 24 17 25 30 5 69 -110 189 -133 271 -51 45 45 66 112
66 205 0 125 -50 207 -141 231 -66 18 -141 -14 -179 -76 -12 -18 -25 -34 -28
-34 -4 1 -19 18 -34 40 -43 61 -117 89 -185 69z m62 -138 c5 -9 -31 -41 -47
-41 -12 0 -9 25 4 38 14 14 35 16 43 3z m340 0 c5 -9 -31 -41 -47 -41 -12 0
-9 25 4 38 14 14 35 16 43 3z m-315 -175 c0 -20 -27 -39 -46 -32 -15 6 -15 8
1 26 21 23 45 26 45 6z m340 0 c0 -20 -27 -39 -46 -32 -15 6 -15 8 1 26 21 23
45 26 45 6z"/>
<path d="M14373 12949 c-79 -23 -133 -121 -133 -241 0 -88 18 -145 59 -188 93
-98 239 -59 285 76 18 53 21 160 6 215 -29 105 -125 166 -217 138z m62 -138
c5 -9 -31 -41 -47 -41 -12 0 -9 25 4 38 14 14 35 16 43 3z m25 -175 c0 -20
-27 -39 -46 -32 -15 6 -15 8 1 26 21 23 45 26 45 6z"/>
<path d="M12300 12919 c-60 -27 -80 -47 -80 -80 0 -35 24 -59 60 -59 34 0 40
-13 40 -93 0 -72 -5 -83 -43 -92 -40 -10 -63 -49 -49 -81 17 -36 55 -46 163
-42 78 2 101 7 118 22 29 26 27 60 -6 85 -16 12 -34 26 -40 31 -9 8 -13 51
-13 150 0 127 -2 142 -20 160 -26 26 -72 25 -130 -1z"/>
<path d="M12640 12919 c-60 -27 -80 -47 -80 -80 0 -35 24 -59 60 -59 34 0 40
-13 40 -93 0 -72 -5 -83 -43 -92 -40 -10 -63 -49 -49 -81 17 -36 55 -46 163
-42 78 2 101 7 118 22 29 26 27 60 -6 85 -16 12 -34 26 -40 31 -9 8 -13 51
-13 150 0 127 -2 142 -20 160 -26 26 -72 25 -130 -1z"/>
<path d="M13670 12919 c-60 -27 -80 -47 -80 -80 0 -35 24 -59 60 -59 34 0 40
-13 40 -93 0 -72 -5 -83 -43 -92 -40 -10 -63 -49 -49 -81 17 -36 55 -46 163
-42 78 2 101 7 118 22 29 26 27 60 -6 85 -16 12 -34 26 -40 31 -9 8 -13 51
-13 150 0 127 -2 142 -20 160 -26 26 -72 25 -130 -1z"/>
<path d="M14010 12919 c-60 -27 -80 -47 -80 -80 0 -35 24 -59 60 -59 34 0 40
-13 40 -93 0 -72 -5 -83 -43 -92 -40 -10 -63 -49 -49 -81 17 -36 55 -46 163
-42 78 2 101 7 118 22 29 26 27 60 -6 85 -16 12 -34 26 -40 31 -9 8 -13 51
-13 150 0 127 -2 142 -20 160 -26 26 -72 25 -130 -1z"/>
<path d="M12323 12209 c-79 -23 -133 -121 -133 -241 0 -88 18 -145 59 -188 83
-87 205 -69 268 38 24 41 28 60 31 149 4 102 4 102 25 88 12 -8 33 -15 48 -15
33 0 39 -14 39 -93 0 -72 -5 -83 -43 -92 -40 -10 -63 -49 -49 -81 17 -36 55
-46 163 -42 78 2 101 7 118 22 29 26 27 60 -6 85 -16 12 -34 26 -40 31 -9 8
-13 51 -13 150 0 127 -2 142 -20 160 -28 28 -76 25 -141 -7 -37 -20 -58 -38
-68 -60 l-14 -31 -31 46 c-48 72 -122 103 -193 81z m62 -138 c5 -9 -31 -41
-47 -41 -12 0 -9 25 4 38 14 14 35 16 43 3z m25 -175 c0 -20 -27 -39 -46 -32
-15 6 -15 8 1 26 21 23 45 26 45 6z"/>
<path d="M13003 12209 c-79 -23 -133 -121 -133 -241 0 -88 18 -145 59 -188 83
-87 196 -71 274 40 17 24 17 25 30 5 69 -110 189 -133 271 -51 43 43 66 112
66 195 0 78 -12 126 -43 172 -67 100 -214 97 -277 -7 -12 -18 -25 -34 -28 -34
-4 1 -19 18 -34 40 -43 61 -117 89 -185 69z m62 -138 c5 -9 -31 -41 -47 -41
-12 0 -9 25 4 38 14 14 35 16 43 3z m340 0 c5 -9 -31 -41 -47 -41 -12 0 -9 25
4 38 14 14 35 16 43 3z m-315 -175 c0 -20 -27 -39 -46 -32 -15 6 -15 8 1 26
21 23 45 26 45 6z m340 0 c0 -20 -27 -39 -46 -32 -15 6 -15 8 1 26 21 23 45
26 45 6z"/>
<path d="M11280 12179 c-60 -27 -80 -47 -80 -80 0 -35 24 -59 60 -59 34 0 40
-13 40 -93 0 -72 -5 -83 -43 -92 -40 -10 -63 -49 -49 -81 17 -36 55 -46 163
-42 78 2 101 7 118 22 29 26 27 60 -6 85 -16 12 -34 26 -40 31 -9 8 -13 51
-13 150 0 127 -2 142 -20 160 -26 26 -72 25 -130 -1z"/>
<path d="M11620 12179 c-60 -27 -80 -47 -80 -80 0 -35 24 -59 60 -59 34 0 40
-13 40 -93 0 -72 -5 -83 -43 -92 -40 -10 -63 -49 -49 -81 17 -36 55 -46 163
-42 78 2 101 7 118 22 29 26 27 60 -6 85 -16 12 -34 26 -40 31 -9 8 -13 51
-13 150 0 127 -2 142 -20 160 -26 26 -72 25 -130 -1z"/>
<path d="M11960 12179 c-60 -27 -80 -47 -80 -80 0 -35 24 -59 60 -59 34 0 40
-13 40 -93 0 -72 -5 -83 -43 -92 -40 -10 -63 -49 -49 -81 17 -36 55 -46 163
-42 78 2 101 7 118 22 29 26 27 60 -6 85 -16 12 -34 26 -40 31 -9 8 -13 51
-13 150 0 127 -2 142 -20 160 -26 26 -72 25 -130 -1z"/>
<path d="M12323 11459 c-51 -15 -100 -71 -119 -136 -22 -75 -15 -192 14 -250
75 -144 262 -125 316 33 18 53 21 160 6 215 -29 105 -125 166 -217 138z m62
-138 c5 -9 -31 -41 -47 -41 -12 0 -9 25 4 38 14 14 35 16 43 3z m25 -175 c0
-20 -27 -39 -46 -32 -15 6 -15 8 1 26 21 23 45 26 45 6z"/>
</g>
</svg>
